Nokyung-Regular.ufo
<glyph name="exclam" format="2">
  <advance width="630"/>
  <unicode hex="0021"/>
  <outline>
    <contour>
      <point x="400" y="1291" type="curve" smooth="yes"/>
      <point x="400" y="1249"/>
      <point x="398" y="1055"/>
      <point x="396" y="1031" type="curve" smooth="yes"/>
      <point x="336" y="414" type="line" smooth="yes"/>
      <point x="334" y="392"/>
      <point x="292" y="392"/>
      <point x="290" y="414" type="curve" smooth="yes"/>
      <point x="234" y="1031" type="line"/>
      <point x="232" y="1074"/>
      <point x="229" y="1249"/>
      <point x="229" y="1291" type="curve" smooth="yes"/>
      <point x="229" y="1329"/>
      <point x="253" y="1340"/>
      <point x="316" y="1340" type="curve" smooth="yes"/>
      <point x="378" y="1340"/>
      <point x="400" y="1326"/>
    </contour>
    <contour>
      <point x="430" y="110" type="curve" smooth="yes"/>
      <point x="430" y="30"/>
      <point x="381" y="-20"/>
      <point x="315" y="-20" type="curve" smooth="yes"/>
      <point x="251" y="-20"/>
      <point x="200" y="30"/>
      <point x="200" y="110" type="curve" smooth="yes"/>
      <point x="200" y="190"/>
      <point x="251" y="240"/>
      <point x="315" y="240" type="curve" smooth="yes"/>
      <point x="381" y="240"/>
      <point x="430" y="190"/>
    </contour>
  </outline>
</glyph>
<glyph name="numbersign" format="2">
  <advance width="1003"/>
  <unicode hex="0023"/>
  <outline>
    <contour>
      <point x="407" y="1221" type="line"/>
      <point x="106" y="167" type="line"/>
      <point x="232" y="167" type="line"/>
      <point x="533" y="1221" type="line"/>
    </contour>
    <contour>
      <point x="21" y="481" type="line"/>
      <point x="933" y="481" type="line"/>
      <point x="933" y="606" type="line"/>
      <point x="21" y="606" type="line"/>
    </contour>
    <contour>
      <point x="70" y="803" type="line"/>
      <point x="982" y="803" type="line"/>
      <point x="982" y="928" type="line"/>
      <point x="70" y="928" type="line"/>
    </contour>
    <contour>
      <point x="762" y="1221" type="line"/>
      <point x="461" y="167" type="line"/>
      <point x="587" y="167" type="line"/>
      <point x="888" y="1221" type="line"/>
    </contour>
  </outline>
</glyph>
<glyph name="dollar" format="2">
  <advance width="1003"/>
  <unicode hex="0024"/>
  <outline>
    <contour>
      <point x="128" y="104" type="line"/>
      <point x="206" y="43"/>
      <point x="341" y="0"/>
      <point x="490" y="0" type="curve" smooth="yes"/>
      <point x="700" y="0"/>
      <point x="874" y="140"/>
      <point x="874" y="346" type="curve" smooth="yes"/>
      <point x="874" y="512"/>
      <point x="762" y="607"/>
      <point x="559" y="665" type="curve" smooth="yes"/>
      <point x="338" y="728"/>
      <point x="305" y="777"/>
      <point x="305" y="861" type="curve" smooth="yes"/>
      <point x="305" y="946"/>
      <point x="390" y="1027"/>
      <point x="512" y="1027" type="curve" smooth="yes"/>
      <point x="611" y="1027"/>
      <point x="684" y="1003"/>
      <point x="793" y="942" type="curve"/>
      <point x="824" y="1092" type="line"/>
      <point x="724" y="1140"/>
      <point x="639" y="1161"/>
      <point x="521" y="1161" type="curve" smooth="yes"/>
      <point x="265" y="1161"/>
      <point x="159" y="981"/>
      <point x="159" y="850" type="curve" smooth="yes"/>
      <point x="159" y="719"/>
      <point x="212" y="618"/>
      <point x="451" y="546" type="curve" smooth="yes"/>
      <point x="691" y="474"/>
      <point x="728" y="411"/>
      <point x="728" y="331" type="curve" smooth="yes"/>
      <point x="728" y="206"/>
      <point x="614" y="135"/>
      <point x="490" y="135" type="curve" smooth="yes"/>
      <point x="376" y="135"/>
      <point x="264" y="173"/>
      <point x="163" y="262" type="curve"/>
    </contour>
    <contour>
      <point x="467" y="1338" type="line"/>
      <point x="467" y="678" type="line"/>
      <point x="457" y="615" type="line"/>
      <point x="457" y="-184" type="line"/>
      <point x="566" y="-184" type="line"/>
      <point x="566" y="573" type="line"/>
      <point x="576" y="637" type="line"/>
      <point x="576" y="1338" type="line"/>
    </contour>
  </outline>
</glyph>
<glyph name="percent" format="1">
  <advance width="1276"/>
  <unicode hex="0025"/>
  <outline>
    <contour>
      <point x="1054" y="306" type="curve" smooth="yes"/>
      <point x="1054" y="152"/>
      <point x="1017" y="96"/>
      <point x="945" y="96" type="curve" smooth="yes"/>
      <point x="870" y="96"/>
      <point x="837" y="151"/>
      <point x="837" y="319" type="curve" smooth="yes"/>
      <point x="837" y="472"/>
      <point x="872" y="527"/>
      <point x="945" y="527" type="curve" smooth="yes"/>
      <point x="1021" y="527"/>
      <point x="1054" y="473"/>
    </contour>
    <contour>
      <point x="1192" y="317" type="curve" smooth="yes"/>
      <point x="1192" y="545"/>
      <point x="1095" y="644"/>
      <point x="949" y="644" type="curve" smooth="yes"/>
      <point x="803" y="644"/>
      <point x="699" y="543"/>
      <point x="699" y="308" type="curve" smooth="yes"/>
      <point x="699" y="72"/>
      <point x="795" y="-21"/>
      <point x="941" y="-21" type="curve" smooth="yes"/>
      <point x="1088" y="-21"/>
      <point x="1192" y="70"/>
    </contour>
    <contour>
      <point x="897" y="1237" type="line"/>
      <point x="243" y="-21" type="line"/>
      <point x="384" y="-21" type="line"/>
      <point x="1036" y="1237" type="line"/>
    </contour>
    <contour>
      <point x="439" y="900" type="curve" smooth="yes"/>
      <point x="439" y="746"/>
      <point x="401" y="690"/>
      <point x="329" y="690" type="curve" smooth="yes"/>
      <point x="255" y="690"/>
      <point x="222" y="745"/>
      <point x="222" y="912" type="curve" smooth="yes"/>
      <point x="222" y="1066"/>
      <point x="257" y="1120"/>
      <point x="329" y="1120" type="curve" smooth="yes"/>
      <point x="405" y="1120"/>
      <point x="439" y="1067"/>
    </contour>
    <contour>
      <point x="577" y="910" type="curve" smooth="yes"/>
      <point x="577" y="1139"/>
      <point x="480" y="1237"/>
      <point x="334" y="1237" type="curve" smooth="yes"/>
      <point x="188" y="1237"/>
      <point x="84" y="1137"/>
      <point x="84" y="901" type="curve" smooth="yes"/>
      <point x="84" y="665"/>
      <point x="180" y="573"/>
      <point x="326" y="573" type="curve" smooth="yes"/>
      <point x="472" y="573"/>
      <point x="577" y="664"/>
    </contour>
  </outline>
</glyph>
<glyph name="ampersand" format="2">
  <advance width="1022"/>
  <unicode hex="0026"/>
  <outline>
    <contour>
      <point x="815" y="477" type="line"/>
      <point x="762" y="337"/>
      <point x="527" y="125"/>
      <point x="380" y="125" type="curve" smooth="yes"/>
      <point x="259" y="125"/>
      <point x="192" y="223"/>
      <point x="192" y="318" type="curve" smooth="yes"/>
      <point x="192" y="410"/>
      <point x="247" y="491"/>
      <point x="393" y="619" type="curve" smooth="yes"/>
      <point x="544" y="752"/>
      <point x="660" y="883"/>
      <point x="660" y="993" type="curve" smooth="yes"/>
      <point x="660" y="1145"/>
      <point x="537" y="1241"/>
      <point x="410" y="1241" type="curve" smooth="yes"/>
      <point x="277" y="1241"/>
      <point x="130" y="1170"/>
      <point x="130" y="985" type="curve" smooth="yes"/>
      <point x="130" y="884"/>
      <point x="196" y="783"/>
      <point x="389" y="541" type="curve" smooth="yes"/>
      <point x="674" y="184"/>
      <point x="803" y="-21"/>
      <point x="857" y="-21" type="curve" smooth="yes"/>
      <point x="886" y="-21"/>
      <point x="951" y="32"/>
      <point x="982" y="59" type="curve"/>
      <point x="857" y="131"/>
      <point x="775" y="263"/>
      <point x="485" y="633" type="curve" smooth="yes"/>
      <point x="307" y="860"/>
      <point x="263" y="939"/>
      <point x="263" y="993" type="curve" smooth="yes"/>
      <point x="263" y="1069"/>
      <point x="333" y="1119"/>
      <point x="397" y="1119" type="curve" smooth="yes"/>
      <point x="464" y="1119"/>
      <point x="527" y="1072"/>
      <point x="527" y="997" type="curve" smooth="yes"/>
      <point x="527" y="923"/>
      <point x="438" y="835"/>
      <point x="293" y="702" type="curve" smooth="yes"/>
      <point x="122" y="545"/>
      <point x="46" y="441"/>
      <point x="46" y="314" type="curve" smooth="yes"/>
      <point x="46" y="126"/>
      <point x="181" y="-21"/>
      <point x="368" y="-21" type="curve" smooth="yes"/>
      <point x="596" y="-21"/>
      <point x="838" y="229"/>
      <point x="903" y="364" type="curve"/>
    </contour>
  </outline>
</glyph>
<glyph name="quotesingle" format="1">
  <advance width="480"/>
  <unicode hex="0027"/>
  <outline>
    <contour>
      <point x="330" y="1271" type="curve" smooth="yes"/>
      <point x="330" y="1219"/>
      <point x="315" y="1068"/>
      <point x="261" y="708" type="curve" smooth="yes"/>
      <point x="258" y="686"/>
      <point x="218" y="686"/>
      <point x="215" y="708" type="curve" smooth="yes"/>
      <point x="164" y="1068"/>
      <point x="150" y="1219"/>
      <point x="150" y="1271" type="curve" smooth="yes"/>
      <point x="150" y="1309"/>
      <point x="177" y="1340"/>
      <point x="240" y="1340" type="curve" smooth="yes"/>
      <point x="302" y="1340"/>
      <point x="330" y="1306"/>
    </contour>
  </outline>
</glyph>
<glyph name="parenleft" format="2">
  <advance width="712"/>
  <unicode hex="0028"/>
  <outline>
    <contour>
      <point x="602" y="-285" type="curve"/>
      <point x="578" y="-312" type="line"/>
      <point x="362" y="-157"/>
      <point x="200" y="54"/>
      <point x="200" y="425" type="curve" smooth="yes"/>
      <point x="200" y="795"/>
      <point x="362" y="1006"/>
      <point x="578" y="1162" type="curve"/>
      <point x="602" y="1135" type="line"/>
      <point x="452" y="996"/>
      <point x="300" y="765"/>
      <point x="300" y="425" type="curve" smooth="yes"/>
      <point x="300" y="85"/>
      <point x="452" y="-147"/>
    </contour>
  </outline>
</glyph>
<glyph name="parenright" format="2">
  <advance width="712"/>
  <unicode hex="0029"/>
  <outline>
    <contour>
      <point x="110" y="1135" type="curve"/>
      <point x="134" y="1162" type="line"/>
      <point x="350" y="1007"/>
      <point x="512" y="796"/>
      <point x="512" y="425" type="curve"/>
      <point x="512" y="55"/>
      <point x="350" y="-156"/>
      <point x="134" y="-312" type="curve"/>
      <point x="110" y="-285" type="line"/>
      <point x="260" y="-146"/>
      <point x="412" y="85"/>
      <point x="412" y="425" type="curve"/>
      <point x="412" y="765"/>
      <point x="260" y="997"/>
    </contour>
  </outline>
</glyph>
<glyph name="asterisk" format="1">
  <advance width="958"/>
  <unicode hex="002A"/>
  <outline>
    <contour>
      <point x="870" y="1175" type="curve" smooth="yes"/>
      <point x="879" y="1147"/>
      <point x="884" y="1129"/>
      <point x="884" y="1122" type="curve" smooth="yes"/>
      <point x="884" y="1112"/>
      <point x="876" y="1105"/>
      <point x="862" y="1100" type="curve" smooth="yes"/>
      <point x="831" y="1090"/>
      <point x="777" y="1080"/>
      <point x="699" y="1068" type="curve" smooth="yes"/>
      <point x="632" y="1057"/>
      <point x="579" y="1044"/>
      <point x="539" y="1028" type="curve"/>
      <point x="561" y="991"/>
      <point x="597" y="949"/>
      <point x="645" y="899" type="curve" smooth="yes"/>
      <point x="699" y="844"/>
      <point x="736" y="804"/>
      <point x="755" y="777" type="curve" smooth="yes"/>
      <point x="761" y="769"/>
      <point x="764" y="763"/>
      <point x="764" y="758" type="curve" smooth="yes"/>
      <point x="764" y="750"/>
      <point x="750" y="736"/>
      <point x="721" y="715" type="curve" smooth="yes"/>
      <point x="693" y="695"/>
      <point x="675" y="684"/>
      <point x="668" y="684" type="curve" smooth="yes"/>
      <point x="661" y="684"/>
      <point x="655" y="689"/>
      <point x="648" y="698" type="curve" smooth="yes"/>
      <point x="628" y="726"/>
      <point x="601" y="773"/>
      <point x="567" y="843" type="curve" smooth="yes"/>
      <point x="536" y="904"/>
      <point x="507" y="951"/>
      <point x="479" y="984" type="curve"/>
      <point x="451" y="951"/>
      <point x="421" y="904"/>
      <point x="390" y="843" type="curve"/>
      <point x="353" y="775"/>
      <point x="326" y="727"/>
      <point x="307" y="700" type="curve" smooth="yes"/>
      <point x="300" y="691"/>
      <point x="294" y="686"/>
      <point x="287" y="686" type="curve" smooth="yes"/>
      <point x="280" y="686"/>
      <point x="263" y="696"/>
      <point x="237" y="713" type="curve"/>
      <point x="207" y="737"/>
      <point x="191" y="752"/>
      <point x="191" y="760" type="curve" smooth="yes"/>
      <point x="191" y="765"/>
      <point x="194" y="771"/>
      <point x="199" y="779" type="curve" smooth="yes"/>
      <point x="219" y="805"/>
      <point x="256" y="845"/>
      <point x="312" y="900" type="curve" smooth="yes"/>
      <point x="361" y="948"/>
      <point x="396" y="991"/>
      <point x="418" y="1028" type="curve"/>
      <point x="379" y="1043"/>
      <point x="325" y="1057"/>
      <point x="257" y="1069" type="curve" smooth="yes"/>
      <point x="181" y="1082"/>
      <point x="127" y="1093"/>
      <point x="95" y="1103" type="curve" smooth="yes"/>
      <point x="81" y="1108"/>
      <point x="75" y="1115"/>
      <point x="75" y="1125" type="curve" smooth="yes"/>
      <point x="75" y="1132"/>
      <point x="79" y="1148"/>
      <point x="87" y="1173" type="curve" smooth="yes"/>
      <point x="100" y="1213"/>
      <point x="112" y="1232"/>
      <point x="122" y="1232" type="curve" smooth="yes"/>
      <point x="126" y="1232"/>
      <point x="131" y="1231"/>
      <point x="137" y="1230" type="curve" smooth="yes"/>
      <point x="167" y="1219"/>
      <point x="218" y="1197"/>
      <point x="287" y="1160" type="curve" smooth="yes"/>
      <point x="348" y="1129"/>
      <point x="399" y="1108"/>
      <point x="441" y="1099" type="curve"/>
      <point x="442" y="1111"/>
      <point x="442" y="1124"/>
      <point x="442" y="1137" type="curve" smooth="yes"/>
      <point x="442" y="1171"/>
      <point x="438" y="1219"/>
      <point x="428" y="1282" type="curve" smooth="yes"/>
      <point x="419" y="1345"/>
      <point x="414" y="1394"/>
      <point x="414" y="1429" type="curve" smooth="yes"/>
      <point x="414" y="1445"/>
      <point x="421" y="1455"/>
      <point x="435" y="1458" type="curve" smooth="yes"/>
      <point x="438" y="1459"/>
      <point x="452" y="1459"/>
      <point x="478" y="1459" type="curve" smooth="yes"/>
      <point x="523" y="1459" type="line"/>
      <point x="539" y="1456"/>
      <point x="547" y="1446"/>
      <point x="547" y="1429" type="curve" smooth="yes"/>
      <point x="547" y="1394"/>
      <point x="541" y="1345"/>
      <point x="530" y="1283" type="curve" smooth="yes"/>
      <point x="520" y="1220"/>
      <point x="514" y="1173"/>
      <point x="514" y="1141" type="curve" smooth="yes"/>
      <point x="514" y="1127"/>
      <point x="515" y="1113"/>
      <point x="516" y="1099" type="curve"/>
      <point x="557" y="1109"/>
      <point x="609" y="1129"/>
      <point x="670" y="1159" type="curve" smooth="yes"/>
      <point x="740" y="1194"/>
      <point x="790" y="1216"/>
      <point x="821" y="1227" type="curve" smooth="yes"/>
      <point x="827" y="1229"/>
      <point x="832" y="1230"/>
      <point x="836" y="1230" type="curve" smooth="yes"/>
      <point x="846" y="1230"/>
      <point x="857" y="1212"/>
    </contour>
  </outline>
</glyph>
<glyph name="plus" format="2">
  <advance width="1003"/>
  <unicode hex="002B"/>
  <outline>
    <contour>
      <point x="439" y="986" type="line"/>
      <point x="439" y="238" type="line"/>
      <point x="564" y="238" type="line"/>
      <point x="564" y="986" type="line"/>
    </contour>
    <contour>
      <point x="130" y="552" type="line"/>
      <point x="874" y="552" type="line"/>
      <point x="874" y="677" type="line"/>
      <point x="130" y="677" type="line"/>
    </contour>
  </outline>
</glyph>
<glyph name="comma" format="1">
  <advance width="600"/>
  <unicode hex="002C"/>
  <outline>
    <contour>
      <point x="433" y="52" type="curve" smooth="yes"/>
      <point x="433" y="-122"/>
      <point x="355" y="-307"/>
      <point x="209" y="-441" type="curve" smooth="yes"/>
      <point x="205" y="-445"/>
      <point x="202" y="-446"/>
      <point x="200" y="-444" type="curve" smooth="yes"/>
      <point x="196" y="-440"/>
      <point x="190" y="-434"/>
      <point x="188" y="-431" type="curve" smooth="yes"/>
      <point x="186" y="-428"/>
      <point x="187" y="-426"/>
      <point x="191" y="-421" type="curve" smooth="yes"/>
      <point x="290" y="-312"/>
      <point x="359" y="-167"/>
      <point x="359" y="-41" type="curve" smooth="yes"/>
      <point x="359" y="-4"/>
      <point x="351" y="13"/>
      <point x="337" y="13" type="curve" smooth="yes"/>
      <point x="326" y="13"/>
      <point x="319" y="-20"/>
      <point x="281" y="-20" type="curve" smooth="yes"/>
      <point x="241" y="-20"/>
      <point x="185" y="19"/>
      <point x="185" y="103" type="curve" smooth="yes"/>
      <point x="185" y="188"/>
      <point x="237" y="240"/>
      <point x="304" y="240" type="curve" smooth="yes"/>
      <point x="375" y="240"/>
      <point x="433" y="198"/>
    </contour>
  </outline>
</glyph>
<glyph name="hyphen" format="2">
  <advance width="570"/>
  <unicode hex="002D"/>
  <outline>
    <contour>
      <point x="520" y="450" type="curve" smooth="yes"/>
      <point x="520" y="421"/>
      <point x="512" y="410"/>
      <point x="495" y="410" type="curve" smooth="yes"/>
      <point x="75" y="410" type="line" smooth="yes"/>
      <point x="59" y="410"/>
      <point x="50" y="421"/>
      <point x="50" y="450" type="curve" smooth="yes"/>
      <point x="50" y="477"/>
      <point x="60" y="490"/>
      <point x="77" y="490" type="curve" smooth="yes"/>
      <point x="493" y="490" type="line" smooth="yes"/>
      <point x="511" y="490"/>
      <point x="520" y="477"/>
    </contour>
  </outline>
</glyph>
<glyph name="period" format="2">
  <advance width="600"/>
  <unicode hex="002E"/>
  <outline>
    <contour>
      <point x="415" y="110" type="curve" smooth="yes"/>
      <point x="415" y="30"/>
      <point x="366" y="-20"/>
      <point x="300" y="-20" type="curve" smooth="yes"/>
      <point x="236" y="-20"/>
      <point x="185" y="30"/>
      <point x="185" y="110" type="curve" smooth="yes"/>
      <point x="185" y="190"/>
      <point x="236" y="240"/>
      <point x="300" y="240" type="curve" smooth="yes"/>
      <point x="366" y="240"/>
      <point x="415" y="190"/>
    </contour>
  </outline>
</glyph>
<glyph name="slash" format="2">
  <advance width="706"/>
  <unicode hex="002F"/>
  <outline>
    <contour>
      <point x="655" y="1354" type="curve" smooth="yes"/>
      <point x="158" y="-8" type="line" smooth="yes"/>
      <point x="154" y="-20"/>
      <point x="135" y="-26"/>
      <point x="99" y="-26" type="curve" smooth="yes"/>
      <point x="64" y="-26"/>
      <point x="47" y="-20"/>
      <point x="51" y="-8" type="curve" smooth="yes"/>
      <point x="553" y="1354" type="line" smooth="yes"/>
      <point x="557" y="1366"/>
      <point x="576" y="1373"/>
      <point x="610" y="1373" type="curve" smooth="yes"/>
      <point x="644" y="1373"/>
      <point x="659" y="1366"/>
    </contour>
  </outline>
</glyph>
<glyph name="one" format="2">
  <advance width="1003"/>
  <unicode hex="0031"/>
  <anchor x="502" y="-84" name="L"/>
  <anchor x="502" y="1279" name="U"/>
  <outline>
    <contour>
      <point x="447" y="142" type="line"/>
      <point x="184" y="142" type="line"/>
      <point x="184" y="0" type="line"/>
      <point x="869" y="0" type="line"/>
      <point x="869" y="142" type="line"/>
      <point x="606" y="142" type="line"/>
      <point x="606" y="1237" type="line"/>
      <point x="464" y="1237" type="line"/>
      <point x="176" y="1060" type="line"/>
      <point x="196" y="910" type="line"/>
      <point x="447" y="1053" type="line"/>
    </contour>
  </outline>
</glyph>
<glyph name="two" format="1">
  <advance width="1003"/>
  <unicode hex="0032"/>
  <outline>
    <contour>
      <point x="903" y="150" type="line"/>
      <point x="836" y="139"/>
      <point x="704" y="138"/>
      <point x="539" y="138" type="curve" smooth="yes"/>
      <point x="326" y="138" type="line"/>
      <point x="509" y="294"/>
      <point x="844" y="609"/>
      <point x="844" y="890" type="curve" smooth="yes"/>
      <point x="844" y="1106"/>
      <point x="669" y="1241"/>
      <point x="468" y="1241" type="curve" smooth="yes"/>
      <point x="327" y="1241"/>
      <point x="172" y="1172"/>
      <point x="105" y="1078" type="curve"/>
      <point x="142" y="936" type="line"/>
      <point x="217" y="1027"/>
      <point x="336" y="1091"/>
      <point x="439" y="1091" type="curve" smooth="yes"/>
      <point x="558" y="1091"/>
      <point x="677" y="1031"/>
      <point x="677" y="874" type="curve" smooth="yes"/>
      <point x="677" y="642"/>
      <point x="327" y="305"/>
      <point x="100" y="142" type="curve"/>
      <point x="100" y="0" type="line"/>
      <point x="903" y="0" type="line"/>
    </contour>
    <contour>
      <point x="502" y="-84" type="move" name="L"/>
    </contour>
    <contour>
      <point x="468" y="1279" type="move" name="U"/>
    </contour>
  </outline>
</glyph>
<glyph name="three" format="1">
  <advance width="1003"/>
  <unicode hex="0033"/>
  <outline>
    <contour>
      <point x="343" y="727" type="line"/>
      <point x="343" y="585" type="line"/>
      <point x="401" y="585" type="line"/>
      <point x="599" y="585"/>
      <point x="748" y="492"/>
      <point x="748" y="355" type="curve" smooth="yes"/>
      <point x="748" y="201"/>
      <point x="600" y="125"/>
      <point x="472" y="125" type="curve" smooth="yes"/>
      <point x="322" y="125"/>
      <point x="204" y="194"/>
      <point x="113" y="297" type="curve"/>
      <point x="92" y="117" type="line"/>
      <point x="180" y="35"/>
      <point x="308" y="-21"/>
      <point x="456" y="-21" type="curve" smooth="yes"/>
      <point x="697" y="-21"/>
      <point x="911" y="142"/>
      <point x="911" y="339" type="curve" smooth="yes"/>
      <point x="911" y="562"/>
      <point x="721" y="649"/>
      <point x="602" y="669" type="curve"/>
      <point x="721" y="693"/>
      <point x="869" y="800"/>
      <point x="869" y="953" type="curve" smooth="yes"/>
      <point x="869" y="1132"/>
      <point x="692" y="1241"/>
      <point x="485" y="1241" type="curve"/>
      <point x="345" y="1241"/>
      <point x="217" y="1184"/>
      <point x="150" y="1108" type="curve"/>
      <point x="180" y="966" type="line"/>
      <point x="274" y="1063"/>
      <point x="364" y="1095"/>
      <point x="493" y="1095" type="curve" smooth="yes"/>
      <point x="594" y="1095"/>
      <point x="711" y="1045"/>
      <point x="711" y="932" type="curve" smooth="yes"/>
      <point x="711" y="828"/>
      <point x="568" y="727"/>
      <point x="401" y="727" type="curve"/>
    </contour>
    <contour>
      <point x="502" y="-84" type="move" name="L"/>
    </contour>
    <contour>
      <point x="502" y="1279" type="move" name="U"/>
    </contour>
  </outline>
</glyph>
<glyph name="four" format="1">
  <advance width="1003"/>
  <unicode hex="0034"/>
  <outline>
    <contour>
      <point x="941" y="330" type="line"/>
      <point x="941" y="460" type="line"/>
      <point x="782" y="460" type="line"/>
      <point x="782" y="1237" type="line"/>
      <point x="623" y="1237" type="line"/>
      <point x="75" y="460" type="line"/>
      <point x="75" y="330" type="line"/>
      <point x="623" y="330" type="line"/>
      <point x="623" y="0" type="line"/>
      <point x="782" y="0" type="line"/>
      <point x="782" y="330" type="line"/>
    </contour>
    <contour>
      <point x="623" y="1028" type="line"/>
      <point x="623" y="460" type="line"/>
      <point x="220" y="460" type="line"/>
    </contour>
    <contour>
      <point x="507" y="-84" type="move" name="L"/>
    </contour>
    <contour>
      <point x="507" y="1279" type="move" name="U"/>
    </contour>
  </outline>
</glyph>
<glyph name="five" format="2">
  <advance width="1003"/>
  <unicode hex="0035"/>
  <anchor x="502" y="-84" name="L"/>
  <anchor x="502" y="1279" name="U"/>
  <outline>
    <contour>
      <point x="163" y="573" type="line"/>
      <point x="267" y="613"/>
      <point x="338" y="627"/>
      <point x="426" y="627" type="curve" smooth="yes"/>
      <point x="560" y="627"/>
      <point x="727" y="562"/>
      <point x="727" y="393" type="curve" smooth="yes"/>
      <point x="727" y="224"/>
      <point x="610" y="130"/>
      <point x="443" y="130" type="curve" smooth="yes"/>
      <point x="326" y="130"/>
      <point x="246" y="152"/>
      <point x="134" y="242" type="curve"/>
      <point x="109" y="67" type="line"/>
      <point x="213" y="2"/>
      <point x="303" y="-21"/>
      <point x="433" y="-21" type="curve" smooth="yes"/>
      <point x="695" y="-21"/>
      <point x="886" y="136"/>
      <point x="886" y="397" type="curve" smooth="yes"/>
      <point x="886" y="620"/>
      <point x="696" y="777"/>
      <point x="456" y="777" type="curve" smooth="yes"/>
      <point x="395" y="777"/>
      <point x="344" y="772"/>
      <point x="318" y="769" type="curve"/>
      <point x="318" y="1078" type="line"/>
      <point x="640" y="1078" type="line"/>
      <point x="710" y="1078"/>
      <point x="773" y="1075"/>
      <point x="836" y="1062" type="curve"/>
      <point x="836" y="1221" type="line"/>
      <point x="163" y="1221" type="line"/>
    </contour>
  </outline>
</glyph>
<glyph name="six" format="1">
  <advance width="1003"/>
  <unicode hex="0036"/>
  <outline>
    <contour>
      <point x="864" y="1166" type="line"/>
      <point x="777" y="1225"/>
      <point x="705" y="1241"/>
      <point x="606" y="1241" type="curve" smooth="yes"/>
      <point x="209" y="1241"/>
      <point x="92" y="877"/>
      <point x="92" y="568" type="curve" smooth="yes"/>
      <point x="92" y="202"/>
      <point x="242" y="-21"/>
      <point x="502" y="-21" type="curve" smooth="yes"/>
      <point x="758" y="-21"/>
      <point x="932" y="139"/>
      <point x="932" y="393" type="curve" smooth="yes"/>
      <point x="932" y="601"/>
      <point x="788" y="748"/>
      <point x="556" y="748" type="curve" smooth="yes"/>
      <point x="396" y="748"/>
      <point x="274" y="652"/>
      <point x="180" y="523" type="curve"/>
      <point x="234" y="460" type="line"/>
      <point x="303" y="546"/>
      <point x="410" y="602"/>
      <point x="539" y="602" type="curve" smooth="yes"/>
      <point x="689" y="602"/>
      <point x="769" y="511"/>
      <point x="769" y="364" type="curve" smooth="yes"/>
      <point x="769" y="230"/>
      <point x="674" y="125"/>
      <point x="527" y="125" type="curve" smooth="yes"/>
      <point x="342" y="125"/>
      <point x="255" y="329"/>
      <point x="255" y="539" type="curve" smooth="yes"/>
      <point x="255" y="946"/>
      <point x="400" y="1095"/>
      <point x="598" y="1095" type="curve" smooth="yes"/>
      <point x="678" y="1095"/>
      <point x="755" y="1075"/>
      <point x="827" y="1003" type="curve"/>
    </contour>
    <contour>
      <point x="502" y="1279" type="move" name="U"/>
    </contour>
    <contour>
      <point x="502" y="-84" type="move" name="L"/>
    </contour>
  </outline>
</glyph>
<glyph name="nine" format="1">
  <advance width="1003"/>
  <unicode hex="0039"/>
  <outline>
    <contour>
      <point x="161" y="54" type="line"/>
      <point x="248" y="-4"/>
      <point x="320" y="-21"/>
      <point x="419" y="-21" type="curve" smooth="yes"/>
      <point x="816" y="-21"/>
      <point x="931" y="344"/>
      <point x="931" y="652" type="curve" smooth="yes"/>
      <point x="931" y="1002"/>
      <point x="774" y="1241"/>
      <point x="515" y="1241" type="curve" smooth="yes"/>
      <point x="292" y="1241"/>
      <point x="94" y="1092"/>
      <point x="94" y="838" type="curve" smooth="yes"/>
      <point x="94" y="646"/>
      <point x="235" y="490"/>
      <point x="467" y="490" type="curve" smooth="yes"/>
      <point x="627" y="490"/>
      <point x="771" y="599"/>
      <point x="852" y="734" type="curve"/>
      <point x="793" y="803" type="line"/>
      <point x="731" y="708"/>
      <point x="617" y="635"/>
      <point x="487" y="635" type="curve" smooth="yes"/>
      <point x="354" y="635"/>
      <point x="256" y="719"/>
      <point x="256" y="866" type="curve" smooth="yes"/>
      <point x="256" y="1000"/>
      <point x="351" y="1095"/>
      <point x="498" y="1095" type="curve" smooth="yes"/>
      <point x="700" y="1095"/>
      <point x="768" y="890"/>
      <point x="768" y="680" type="curve" smooth="yes"/>
      <point x="768" y="273"/>
      <point x="625" y="125"/>
      <point x="427" y="125" type="curve" smooth="yes"/>
      <point x="347" y="125"/>
      <point x="270" y="145"/>
      <point x="198" y="217" type="curve"/>
    </contour>
    <contour>
      <point x="502" y="-84" type="move" name="L"/>
    </contour>
    <contour>
      <point x="502" y="1279" type="move" name="U"/>
    </contour>
  </outline>
</glyph>
<glyph name="colon" format="2">
  <advance width="600"/>
  <unicode hex="003A"/>
  <outline>
    <contour>
      <point x="415" y="740" type="curve" smooth="yes"/>
      <point x="415" y="660"/>
      <point x="366" y="610"/>
      <point x="300" y="610" type="curve" smooth="yes"/>
      <point x="236" y="610"/>
      <point x="185" y="660"/>
      <point x="185" y="740" type="curve" smooth="yes"/>
      <point x="185" y="820"/>
      <point x="236" y="870"/>
      <point x="300" y="870" type="curve" smooth="yes"/>
      <point x="366" y="870"/>
      <point x="415" y="820"/>
    </contour>
    <contour>
      <point x="415" y="110" type="curve" smooth="yes"/>
      <point x="415" y="30"/>
      <point x="366" y="-20"/>
      <point x="300" y="-20" type="curve" smooth="yes"/>
      <point x="236" y="-20"/>
      <point x="185" y="30"/>
      <point x="185" y="110" type="curve" smooth="yes"/>
      <point x="185" y="190"/>
      <point x="236" y="240"/>
      <point x="300" y="240" type="curve" smooth="yes"/>
      <point x="366" y="240"/>
      <point x="415" y="190"/>
    </contour>
  </outline>
</glyph>
<glyph name="semicolon" format="2">
  <advance width="600"/>
  <unicode hex="003B"/>
  <outline>
    <contour>
      <point x="415" y="740" type="curve" smooth="yes"/>
      <point x="415" y="820"/>
      <point x="366" y="870"/>
      <point x="300" y="870" type="curve" smooth="yes"/>
      <point x="236" y="870"/>
      <point x="185" y="820"/>
      <point x="185" y="740" type="curve" smooth="yes"/>
      <point x="185" y="660"/>
      <point x="236" y="610"/>
      <point x="300" y="610" type="curve" smooth="yes"/>
      <point x="366" y="610"/>
      <point x="415" y="660"/>
    </contour>
    <contour>
      <point x="433" y="52" type="curve" smooth="yes"/>
      <point x="433" y="198"/>
      <point x="375" y="240"/>
      <point x="304" y="240" type="curve" smooth="yes"/>
      <point x="237" y="240"/>
      <point x="185" y="188"/>
      <point x="185" y="103" type="curve" smooth="yes"/>
      <point x="185" y="19"/>
      <point x="241" y="-20"/>
      <point x="281" y="-20" type="curve" smooth="yes"/>
      <point x="319" y="-20"/>
      <point x="326" y="13"/>
      <point x="337" y="13" type="curve" smooth="yes"/>
      <point x="351" y="13"/>
      <point x="359" y="-4"/>
      <point x="359" y="-41" type="curve" smooth="yes"/>
      <point x="359" y="-167"/>
      <point x="290" y="-312"/>
      <point x="191" y="-421" type="curve" smooth="yes"/>
      <point x="188" y="-424"/>
      <point x="187" y="-426"/>
      <point x="187" y="-428" type="curve" smooth="yes"/>
      <point x="187" y="-429"/>
      <point x="187" y="-431"/>
      <point x="189" y="-433" type="curve" smooth="yes"/>
      <point x="190" y="-434"/>
      <point x="196" y="-440"/>
      <point x="197" y="-441" type="curve" smooth="yes"/>
      <point x="199" y="-443"/>
      <point x="201" y="-444"/>
      <point x="203" y="-444" type="curve" smooth="yes"/>
      <point x="205" y="-444"/>
      <point x="207" y="-443"/>
      <point x="209" y="-441" type="curve" smooth="yes"/>
      <point x="355" y="-307"/>
      <point x="433" y="-122"/>
    </contour>
  </outline>
</glyph>
<glyph name="equal" format="1">
  <advance width="1003"/>
  <unicode hex="003D"/>
  <outline>
    <contour>
      <point x="100" y="401" type="line"/>
      <point x="903" y="401" type="line"/>
      <point x="903" y="527" type="line"/>
      <point x="100" y="527" type="line"/>
    </contour>
    <contour>
      <point x="100" y="694" type="line"/>
      <point x="903" y="694" type="line"/>
      <point x="903" y="819" type="line"/>
      <point x="100" y="819" type="line"/>
    </contour>
  </outline>
</glyph>
<glyph name="greater" format="1">
  <advance width="1003"/>
  <unicode hex="003E"/>
  <outline>
    <contour>
      <point x="100" y="865" type="line"/>
      <point x="761" y="610" type="line"/>
      <point x="100" y="355" type="line"/>
      <point x="100" y="205" type="line"/>
      <point x="920" y="539" type="line"/>
      <point x="920" y="681" type="line"/>
      <point x="100" y="1016" type="line"/>
    </contour>
  </outline>
</glyph>
<glyph name="question" format="1">
  <advance width="879"/>
  <unicode hex="003F"/>
  <outline>
    <contour>
      <point x="779" y="1034" type="curve" smooth="yes"/>
      <point x="779" y="754"/>
      <point x="502" y="681"/>
      <point x="502" y="664" type="curve" smooth="yes"/>
      <point x="502" y="592"/>
      <point x="502" y="446"/>
      <point x="502" y="419" type="curve" smooth="yes"/>
      <point x="502" y="408"/>
      <point x="486" y="400"/>
      <point x="442" y="400" type="curve" smooth="yes"/>
      <point x="393" y="400"/>
      <point x="382" y="403"/>
      <point x="382" y="418" type="curve" smooth="yes"/>
      <point x="382" y="446"/>
      <point x="382" y="675"/>
      <point x="382" y="704" type="curve" smooth="yes"/>
      <point x="382" y="722"/>
      <point x="672" y="772"/>
      <point x="672" y="1017" type="curve"/>
      <point x="672" y="1163"/>
      <point x="560" y="1240"/>
      <point x="442" y="1240" type="curve" smooth="yes"/>
      <point x="325" y="1240"/>
      <point x="243" y="1167"/>
      <point x="204" y="1094" type="curve"/>
      <point x="194" y="1075"/>
      <point x="177" y="1079"/>
      <point x="142" y="1098" type="curve" smooth="yes"/>
      <point x="107" y="1117"/>
      <point x="93" y="1132"/>
      <point x="103" y="1148" type="curve" smooth="yes"/>
      <point x="154" y="1232"/>
      <point x="257" y="1340"/>
      <point x="442" y="1340" type="curve" smooth="yes"/>
      <point x="630" y="1340"/>
      <point x="779" y="1228"/>
    </contour>
    <contour>
      <point x="557" y="110" type="curve" smooth="yes"/>
      <point x="557" y="30"/>
      <point x="507" y="-20"/>
      <point x="441" y="-20" type="curve" smooth="yes"/>
      <point x="377" y="-20"/>
      <point x="327" y="30"/>
      <point x="327" y="110" type="curve" smooth="yes"/>
      <point x="327" y="190"/>
      <point x="377" y="240"/>
      <point x="441" y="240" type="curve" smooth="yes"/>
      <point x="507" y="240"/>
      <point x="557" y="190"/>
    </contour>
  </outline>
</glyph>
<glyph name="at" format="2">
  <advance width="1423"/>
  <unicode hex="0040"/>
  <outline>
    <contour>
      <point x="1342" y="585" type="curve" smooth="yes"/>
      <point x="1342" y="942"/>
      <point x="1093" y="1175"/>
      <point x="736" y="1175" type="curve" smooth="yes"/>
      <point x="389" y="1175"/>
      <point x="79" y="941"/>
      <point x="79" y="481" type="curve" smooth="yes"/>
      <point x="79" y="40"/>
      <point x="388" y="-196"/>
      <point x="715" y="-196" type="curve" smooth="yes"/>
      <point x="828" y="-196"/>
      <point x="961" y="-157"/>
      <point x="1045" y="-99" type="curve"/>
      <point x="957" y="-8" type="line"/>
      <point x="884" y="-59"/>
      <point x="805" y="-79"/>
      <point x="727" y="-79" type="curve" smooth="yes"/>
      <point x="437" y="-79"/>
      <point x="201" y="145"/>
      <point x="201" y="506" type="curve" smooth="yes"/>
      <point x="201" y="839"/>
      <point x="453" y="1062"/>
      <point x="727" y="1062" type="curve" smooth="yes"/>
      <point x="1056" y="1062"/>
      <point x="1225" y="838"/>
      <point x="1225" y="560" type="curve" smooth="yes"/>
      <point x="1225" y="361"/>
      <point x="1127" y="263"/>
      <point x="1070" y="263" type="curve" smooth="yes"/>
      <point x="1021" y="263"/>
      <point x="982" y="343"/>
      <point x="982" y="527" type="curve" smooth="yes"/>
      <point x="982" y="819" type="line"/>
      <point x="910" y="849"/>
      <point x="803" y="869"/>
      <point x="736" y="869" type="curve" smooth="yes"/>
      <point x="599" y="869"/>
      <point x="512" y="812"/>
      <point x="443" y="698" type="curve" smooth="yes"/>
      <point x="404" y="632"/>
      <point x="380" y="546"/>
      <point x="380" y="443" type="curve" smooth="yes"/>
      <point x="380" y="246"/>
      <point x="502" y="153"/>
      <point x="614" y="153" type="curve" smooth="yes"/>
      <point x="712" y="153"/>
      <point x="826" y="306"/>
      <point x="869" y="410" type="curve"/>
      <point x="878" y="269"/>
      <point x="943" y="150"/>
      <point x="1045" y="150" type="curve" smooth="yes"/>
      <point x="1191" y="150"/>
      <point x="1342" y="308"/>
    </contour>
    <contour>
      <point x="711" y="757" type="curve" smooth="yes"/>
      <point x="772" y="757"/>
      <point x="829" y="741"/>
      <point x="857" y="727" type="curve"/>
      <point x="857" y="602" type="line"/>
      <point x="830" y="487"/>
      <point x="701" y="268"/>
      <point x="625" y="268" type="curve" smooth="yes"/>
      <point x="565" y="268"/>
      <point x="506" y="333"/>
      <point x="506" y="481" type="curve" smooth="yes"/>
      <point x="506" y="545"/>
      <point x="519" y="611"/>
      <point x="543" y="652" type="curve" smooth="yes"/>
      <point x="590" y="732"/>
      <point x="654" y="757"/>
    </contour>
  </outline>
</glyph>
<glyph name="A" format="1">
  <advance width="1166"/>
  <unicode hex="0041"/>
  <outline>
    <contour>
      <point x="205" y="0" type="line"/>
      <point x="317" y="322" type="line"/>
      <point x="831" y="322" type="line"/>
      <point x="945" y="0" type="line"/>
      <point x="1116" y="0" type="line"/>
      <point x="1087" y="67"/>
      <point x="1055" y="141"/>
      <point x="999" y="297" type="curve" smooth="yes"/>
      <point x="665" y="1221" type="line"/>
      <point x="485" y="1221" type="line"/>
      <point x="150" y="297" type="line" smooth="yes"/>
      <point x="94" y="140"/>
      <point x="64" y="68"/>
      <point x="33" y="0" type="curve"/>
    </contour>
    <contour>
      <point x="786" y="451" type="line"/>
      <point x="362" y="451" type="line"/>
      <point x="573" y="1058" type="line"/>
    </contour>
    <contour>
      <point x="591" y="0" type="move" name="H"/>
    </contour>
    <contour>
      <point x="574" y="-84" type="move" name="L"/>
    </contour>
    <contour>
      <point x="1212" y="0" type="move" name="O"/>
    </contour>
    <contour>
      <point x="574" y="1279" type="move" name="U"/>
    </contour>
  </outline>
</glyph>
<glyph name="B" format="1">
  <advance width="1074"/>
  <unicode hex="0042"/>
  <outline>
    <contour>
      <point x="305" y="1095" type="line"/>
      <point x="340" y="1097"/>
      <point x="428" y="1099"/>
      <point x="493" y="1099" type="curve" smooth="yes"/>
      <point x="661" y="1099"/>
      <point x="727" y="1036"/>
      <point x="727" y="911" type="curve" smooth="yes"/>
      <point x="727" y="795"/>
      <point x="647" y="715"/>
      <point x="468" y="715" type="curve" smooth="yes"/>
      <point x="305" y="715" type="line"/>
    </contour>
    <contour>
      <point x="146" y="380" type="line"/>
      <point x="146" y="215"/>
      <point x="146" y="67"/>
      <point x="134" y="0" type="curve"/>
      <point x="178" y="-4"/>
      <point x="336" y="-8"/>
      <point x="506" y="-8" type="curve" smooth="yes"/>
      <point x="826" y="-8"/>
      <point x="953" y="148"/>
      <point x="953" y="351" type="curve" smooth="yes"/>
      <point x="953" y="559"/>
      <point x="814" y="635"/>
      <point x="686" y="669" type="curve"/>
      <point x="799" y="712"/>
      <point x="890" y="796"/>
      <point x="890" y="936" type="curve" smooth="yes"/>
      <point x="890" y="1155"/>
      <point x="750" y="1229"/>
      <point x="502" y="1229" type="curve" smooth="yes"/>
      <point x="360" y="1229"/>
      <point x="207" y="1226"/>
      <point x="134" y="1221" type="curve"/>
      <point x="146" y="1154"/>
      <point x="146" y="1000"/>
      <point x="146" y="836" type="curve" smooth="yes"/>
    </contour>
    <contour>
      <point x="305" y="585" type="line"/>
      <point x="502" y="585" type="line" smooth="yes"/>
      <point x="696" y="585"/>
      <point x="790" y="505"/>
      <point x="790" y="351" type="curve" smooth="yes"/>
      <point x="790" y="177"/>
      <point x="653" y="125"/>
      <point x="510" y="125" type="curve" smooth="yes"/>
      <point x="416" y="125"/>
      <point x="336" y="128"/>
      <point x="305" y="130" type="curve"/>
    </contour>
    <contour>
      <point x="514" y="-84" type="move" name="L"/>
    </contour>
    <contour>
      <point x="514" y="1279" type="move" name="U"/>
    </contour>
  </outline>
</glyph>
<glyph name="C" format="2">
  <advance width="1133"/>
  <unicode hex="0043"/>
  <anchor x="627" y="0" name="H"/>
  <anchor x="627" y="-84" name="L"/>
  <anchor x="627" y="1279" name="U"/>
  <outline>
    <contour>
      <point x="995" y="280" type="line"/>
      <point x="901" y="186"/>
      <point x="762" y="125"/>
      <point x="635" y="125" type="curve" smooth="yes"/>
      <point x="409" y="125"/>
      <point x="242" y="314"/>
      <point x="242" y="614" type="curve" smooth="yes"/>
      <point x="242" y="935"/>
      <point x="410" y="1099"/>
      <point x="644" y="1099" type="curve" smooth="yes"/>
      <point x="745" y="1099"/>
      <point x="861" y="1068"/>
      <point x="966" y="974" type="curve"/>
      <point x="1016" y="1124" type="line"/>
      <point x="896" y="1214"/>
      <point x="763" y="1241"/>
      <point x="644" y="1241" type="curve" smooth="yes"/>
      <point x="349" y="1241"/>
      <point x="79" y="1024"/>
      <point x="79" y="594" type="curve" smooth="yes"/>
      <point x="79" y="217"/>
      <point x="289" y="-21"/>
      <point x="627" y="-21" type="curve" smooth="yes"/>
      <point x="754" y="-21"/>
      <point x="931" y="27"/>
      <point x="1028" y="117" type="curve"/>
    </contour>
  </outline>
</glyph>
<glyph name="F" format="1">
  <advance width="961"/>
  <unicode hex="0046"/>
  <outline>
    <contour>
      <point x="305" y="698" type="line"/>
      <point x="305" y="1083" type="line"/>
      <point x="861" y="1083" type="line"/>
      <point x="861" y="1221" type="line"/>
      <point x="134" y="1221" type="line"/>
      <point x="146" y="1154"/>
      <point x="146" y="1017"/>
      <point x="146" y="853" type="curve" smooth="yes"/>
      <point x="146" y="364" type="line" smooth="yes"/>
      <point x="146" y="199"/>
      <point x="146" y="67"/>
      <point x="134" y="0" type="curve"/>
      <point x="318" y="0" type="line"/>
      <point x="305" y="65"/>
      <point x="305" y="198"/>
      <point x="305" y="364" type="curve" smooth="yes"/>
      <point x="305" y="564" type="line"/>
      <point x="790" y="564" type="line"/>
      <point x="790" y="698" type="line"/>
    </contour>
    <contour>
      <point x="497" y="-84" type="move" name="L"/>
    </contour>
    <contour>
      <point x="497" y="1279" type="move" name="U"/>
    </contour>
  </outline>
</glyph>
<glyph name="G" format="2">
  <advance width="1187"/>
  <unicode hex="0047"/>
  <anchor x="623" y="0" name="H"/>
  <anchor x="623" y="-84" name="L"/>
  <anchor x="623" y="1279" name="U"/>
  <outline>
    <contour>
      <point x="1066" y="623" type="line"/>
      <point x="614" y="623" type="line"/>
      <point x="614" y="485" type="line"/>
      <point x="907" y="485" type="line"/>
      <point x="907" y="205" type="line"/>
      <point x="805" y="143"/>
      <point x="732" y="125"/>
      <point x="633" y="125" type="curve" smooth="yes"/>
      <point x="394" y="125"/>
      <point x="242" y="315"/>
      <point x="242" y="623" type="curve" smooth="yes"/>
      <point x="242" y="915"/>
      <point x="401" y="1099"/>
      <point x="656" y="1099" type="curve" smooth="yes"/>
      <point x="767" y="1099"/>
      <point x="874" y="1075"/>
      <point x="999" y="974" type="curve"/>
      <point x="1053" y="1124" type="line"/>
      <point x="907" y="1222"/>
      <point x="792" y="1241"/>
      <point x="656" y="1241" type="curve" smooth="yes"/>
      <point x="336" y="1241"/>
      <point x="79" y="1002"/>
      <point x="79" y="602" type="curve" smooth="yes"/>
      <point x="79" y="201"/>
      <point x="307" y="-21"/>
      <point x="623" y="-21" type="curve" smooth="yes"/>
      <point x="767" y="-21"/>
      <point x="895" y="9"/>
      <point x="1066" y="130" type="curve"/>
    </contour>
  </outline>
</glyph>
<glyph name="H" format="2">
  <advance width="1233"/>
  <unicode hex="0048"/>
  <anchor x="238" y="0" name="H"/>
  <anchor x="606" y="-84" name="L"/>
  <anchor x="606" y="1279" name="U"/>
  <outline>
    <contour>
      <point x="907" y="0" type="line"/>
      <point x="1078" y="0" type="line"/>
      <point x="1066" y="67"/>
      <point x="1066" y="199"/>
      <point x="1066" y="364" type="curve" smooth="yes"/>
      <point x="1066" y="857" type="line" smooth="yes"/>
      <point x="1066" y="1022"/>
      <point x="1066" y="1154"/>
      <point x="1078" y="1221" type="curve"/>
      <point x="907" y="1221" type="line"/>
      <point x="907" y="698" type="line"/>
      <point x="305" y="698" type="line"/>
      <point x="305" y="1221" type="line"/>
      <point x="134" y="1221" type="line"/>
      <point x="146" y="1154"/>
      <point x="146" y="1022"/>
      <point x="146" y="857" type="curve" smooth="yes"/>
      <point x="146" y="364" type="line" smooth="yes"/>
      <point x="146" y="199"/>
      <point x="146" y="67"/>
      <point x="134" y="0" type="curve"/>
      <point x="305" y="0" type="line"/>
      <point x="305" y="564" type="line"/>
      <point x="907" y="564" type="line"/>
    </contour>
  </outline>
</glyph>
<glyph name="I" format="2">
  <advance width="815"/>
  <unicode hex="0049"/>
  <anchor x="399" y="0" name="H"/>
  <anchor x="399" y="-84" name="L"/>
  <anchor x="563" y="0" name="O"/>
  <anchor x="815" y="1003" name="R"/>
  <anchor x="399" y="1279" name="U"/>
  <outline>
    <contour>
      <point x="117" y="1221" type="line"/>
      <point x="117" y="1099" type="line"/>
      <point x="318" y="1099" type="line"/>
      <point x="318" y="121" type="line"/>
      <point x="117" y="121" type="line"/>
      <point x="117" y="0" type="line"/>
      <point x="681" y="0" type="line"/>
      <point x="681" y="121" type="line"/>
      <point x="477" y="121" type="line"/>
      <point x="477" y="1099" type="line"/>
      <point x="681" y="1099" type="line"/>
      <point x="681" y="1221" type="line"/>
    </contour>
  </outline>
</glyph>
<glyph name="J" format="2">
  <advance width="807"/>
  <unicode hex="004A"/>
  <anchor x="343" y="-84" name="L"/>
  <anchor x="564" y="1279" name="U"/>
  <outline>
    <contour>
      <point x="481" y="1221" type="line"/>
      <point x="492" y="1132"/>
      <point x="493" y="982"/>
      <point x="493" y="819" type="curve"/>
      <point x="493" y="405" type="line" smooth="yes"/>
      <point x="493" y="214"/>
      <point x="407" y="130"/>
      <point x="284" y="130" type="curve" smooth="yes"/>
      <point x="207" y="130"/>
      <point x="123" y="166"/>
      <point x="67" y="230" type="curve"/>
      <point x="29" y="75" type="line"/>
      <point x="89" y="8"/>
      <point x="209" y="-21"/>
      <point x="288" y="-21" type="curve" smooth="yes"/>
      <point x="503" y="-21"/>
      <point x="652" y="99"/>
      <point x="652" y="447" type="curve" smooth="yes"/>
      <point x="652" y="1221" type="line"/>
    </contour>
  </outline>
</glyph>
<glyph name="L" format="2">
  <advance width="903"/>
  <unicode hex="004C"/>
  <anchor x="495" y="0" name="H"/>
  <anchor x="495" y="-84" name="L"/>
  <anchor x="451" y="1003" name="R"/>
  <anchor x="495" y="1279" name="U"/>
  <outline>
    <contour>
      <point x="305" y="138" type="line"/>
      <point x="305" y="1221" type="line"/>
      <point x="134" y="1221" type="line"/>
      <point x="146" y="1154"/>
      <point x="146" y="1022"/>
      <point x="146" y="857" type="curve" smooth="yes"/>
      <point x="146" y="364" type="line" smooth="yes"/>
      <point x="146" y="199"/>
      <point x="146" y="67"/>
      <point x="134" y="0" type="curve"/>
      <point x="857" y="0" type="line"/>
      <point x="857" y="150" type="line"/>
      <point x="790" y="139"/>
      <point x="657" y="138"/>
      <point x="492" y="138" type="curve" smooth="yes"/>
    </contour>
  </outline>
</glyph>
<glyph name="M" format="1">
  <advance width="1501"/>
  <unicode hex="004D"/>
  <outline>
    <contour>
      <point x="740" y="171" type="line"/>
      <point x="380" y="1221" type="line"/>
      <point x="238" y="1221" type="line"/>
      <point x="660" y="0" type="line"/>
      <point x="823" y="0" type="line"/>
      <point x="1243" y="1221" type="line"/>
      <point x="1104" y="1221" type="line"/>
    </contour>
    <contour>
      <point x="192" y="1221" type="line"/>
      <point x="192" y="1221"/>
      <point x="155" y="166"/>
      <point x="134" y="0" type="curve"/>
      <point x="288" y="0" type="line"/>
      <point x="315" y="1007" type="line"/>
      <point x="339" y="1221" type="line"/>
    </contour>
    <contour>
      <point x="1346" y="0" type="line"/>
      <point x="1322" y="166"/>
      <point x="1287" y="1221"/>
      <point x="1287" y="1221" type="curve"/>
      <point x="1141" y="1221" type="line"/>
      <point x="1168" y="1007" type="line"/>
      <point x="1191" y="0" type="line"/>
    </contour>
    <contour>
      <point x="1272" y="0" type="move" name="H"/>
    </contour>
    <contour>
      <point x="740" y="-84" type="move" name="L"/>
    </contour>
    <contour>
      <point x="740" y="1279" type="move" name="U"/>
    </contour>
  </outline>
</glyph>
<glyph name="N" format="1">
  <advance width="1254"/>
  <unicode hex="004E"/>
  <outline>
    <contour>
      <point x="167" y="1133" type="line"/>
      <point x="949" y="0" type="line"/>
      <point x="1066" y="84" type="line"/>
      <point x="284" y="1221" type="line"/>
    </contour>
    <contour>
      <point x="949" y="0" type="line"/>
      <point x="1087" y="0" type="line"/>
      <point x="1087" y="857" type="line" smooth="yes"/>
      <point x="1087" y="1022"/>
      <point x="1088" y="1154"/>
      <point x="1099" y="1221" type="curve"/>
      <point x="949" y="1221" type="line"/>
    </contour>
    <contour>
      <point x="284" y="1221" type="line"/>
      <point x="134" y="1221" type="line"/>
      <point x="146" y="1154"/>
      <point x="146" y="1022"/>
      <point x="146" y="857" type="curve" smooth="yes"/>
      <point x="146" y="364" type="line" smooth="yes"/>
      <point x="146" y="199"/>
      <point x="146" y="67"/>
      <point x="134" y="0" type="curve"/>
      <point x="284" y="0" type="line"/>
    </contour>
    <contour>
      <point x="1028" y="0" type="move" name="H"/>
    </contour>
    <contour>
      <point x="616" y="-84" type="move" name="L"/>
    </contour>
    <contour>
      <point x="616" y="1279" type="move" name="U"/>
    </contour>
  </outline>
</glyph>
<glyph name="O" format="1">
  <advance width="1221"/>
  <unicode hex="004F"/>
  <outline>
    <contour>
      <point x="957" y="598" type="curve" smooth="yes"/>
      <point x="957" y="301"/>
      <point x="807" y="125"/>
      <point x="602" y="125" type="curve" smooth="yes"/>
      <point x="385" y="125"/>
      <point x="242" y="318"/>
      <point x="242" y="623" type="curve" smooth="yes"/>
      <point x="242" y="912"/>
      <point x="390" y="1095"/>
      <point x="602" y="1095" type="curve" smooth="yes"/>
      <point x="814" y="1095"/>
      <point x="957" y="906"/>
    </contour>
    <contour>
      <point x="1120" y="619" type="curve" smooth="yes"/>
      <point x="1120" y="1019"/>
      <point x="876" y="1241"/>
      <point x="610" y="1241" type="curve" smooth="yes"/>
      <point x="340" y="1241"/>
      <point x="79" y="1002"/>
      <point x="79" y="602" type="curve" smooth="yes"/>
      <point x="79" y="201"/>
      <point x="324" y="-21"/>
      <point x="594" y="-21" type="curve" smooth="yes"/>
      <point x="860" y="-21"/>
      <point x="1120" y="217"/>
    </contour>
    <contour>
      <point x="599" y="0" type="move" name="H"/>
    </contour>
    <contour>
      <point x="599" y="-84" type="move" name="L"/>
    </contour>
    <contour>
      <point x="831" y="0" type="move" name="O"/>
    </contour>
    <contour>
      <point x="1221" y="1003" type="move" name="R"/>
    </contour>
    <contour>
      <point x="599" y="1279" type="move" name="U"/>
    </contour>
  </outline>
</glyph>
<glyph name="P" format="1">
  <advance width="999"/>
  <unicode hex="0050"/>
  <outline>
    <contour>
      <point x="305" y="472" type="line"/>
      <point x="359" y="466"/>
      <point x="428" y="464"/>
      <point x="489" y="464" type="curve" smooth="yes"/>
      <point x="764" y="464"/>
      <point x="932" y="615"/>
      <point x="932" y="861" type="curve" smooth="yes"/>
      <point x="932" y="1105"/>
      <point x="759" y="1229"/>
      <point x="489" y="1229" type="curve" smooth="yes"/>
      <point x="311" y="1229"/>
      <point x="134" y="1221"/>
      <point x="134" y="1221" type="curve"/>
      <point x="146" y="1154"/>
      <point x="146" y="1000"/>
      <point x="146" y="836" type="curve"/>
      <point x="146" y="364" type="line" smooth="yes"/>
      <point x="146" y="199"/>
      <point x="146" y="67"/>
      <point x="134" y="0" type="curve"/>
      <point x="318" y="0" type="line"/>
      <point x="306" y="65"/>
      <point x="305" y="198"/>
      <point x="305" y="364" type="curve" smooth="yes"/>
    </contour>
    <contour>
      <point x="305" y="1091" type="line"/>
      <point x="362" y="1093"/>
      <point x="402" y="1095"/>
      <point x="481" y="1095" type="curve" smooth="yes"/>
      <point x="703" y="1095"/>
      <point x="773" y="978"/>
      <point x="773" y="844" type="curve" smooth="yes"/>
      <point x="773" y="710"/>
      <point x="711" y="594"/>
      <point x="477" y="594" type="curve" smooth="yes"/>
      <point x="414" y="594"/>
      <point x="358" y="595"/>
      <point x="305" y="602" type="curve"/>
    </contour>
    <contour>
      <point x="533" y="-84" type="move" name="L"/>
    </contour>
    <contour>
      <point x="533" y="1279" type="move" name="U"/>
    </contour>
  </outline>
</glyph>
<glyph name="Q" format="1">
  <advance width="1233"/>
  <unicode hex="0051"/>
  <outline>
    <contour>
      <point x="1120" y="619" type="curve" smooth="yes"/>
      <point x="1120" y="1019"/>
      <point x="880" y="1241"/>
      <point x="610" y="1241" type="curve" smooth="yes"/>
      <point x="340" y="1241"/>
      <point x="79" y="1002"/>
      <point x="79" y="602" type="curve" smooth="yes"/>
      <point x="79" y="201"/>
      <point x="320" y="-21"/>
      <point x="589" y="-21" type="curve" smooth="yes"/>
      <point x="641" y="-21"/>
      <point x="684" y="-15"/>
      <point x="732" y="0" type="curve"/>
      <point x="789" y="0"/>
      <point x="1033" y="-159"/>
      <point x="1104" y="-159" type="curve" smooth="yes"/>
      <point x="1149" y="-159"/>
      <point x="1196" y="-68"/>
      <point x="1216" y="-38" type="curve"/>
      <point x="1104" y="-23"/>
      <point x="1007" y="23"/>
      <point x="903" y="88" type="curve"/>
      <point x="1050" y="197"/>
      <point x="1120" y="400"/>
    </contour>
    <contour>
      <point x="957" y="598" type="curve" smooth="yes"/>
      <point x="957" y="301"/>
      <point x="807" y="125"/>
      <point x="602" y="125" type="curve" smooth="yes"/>
      <point x="385" y="125"/>
      <point x="242" y="318"/>
      <point x="242" y="623" type="curve" smooth="yes"/>
      <point x="242" y="912"/>
      <point x="390" y="1095"/>
      <point x="602" y="1095" type="curve" smooth="yes"/>
      <point x="814" y="1095"/>
      <point x="957" y="906"/>
    </contour>
    <contour>
      <point x="599" y="-226" type="move" name="L"/>
    </contour>
    <contour>
      <point x="599" y="1279" type="move" name="U"/>
    </contour>
  </outline>
</glyph>
<glyph name="S" format="1">
  <advance width="982"/>
  <unicode hex="0053"/>
  <outline>
    <contour>
      <point x="836" y="1166" type="line"/>
      <point x="727" y="1219"/>
      <point x="635" y="1241"/>
      <point x="506" y="1241" type="curve" smooth="yes"/>
      <point x="228" y="1241"/>
      <point x="113" y="1045"/>
      <point x="113" y="903" type="curve" smooth="yes"/>
      <point x="113" y="761"/>
      <point x="170" y="650"/>
      <point x="431" y="573" type="curve" smooth="yes"/>
      <point x="691" y="494"/>
      <point x="732" y="426"/>
      <point x="732" y="339" type="curve" smooth="yes"/>
      <point x="732" y="203"/>
      <point x="607" y="125"/>
      <point x="472" y="125" type="curve" smooth="yes"/>
      <point x="349" y="125"/>
      <point x="227" y="167"/>
      <point x="117" y="263" type="curve"/>
      <point x="79" y="92" type="line"/>
      <point x="165" y="26"/>
      <point x="311" y="-21"/>
      <point x="472" y="-21" type="curve" smooth="yes"/>
      <point x="701" y="-21"/>
      <point x="890" y="131"/>
      <point x="890" y="355" type="curve" smooth="yes"/>
      <point x="890" y="536"/>
      <point x="769" y="637"/>
      <point x="548" y="702" type="curve" smooth="yes"/>
      <point x="309" y="772"/>
      <point x="272" y="823"/>
      <point x="272" y="915" type="curve" smooth="yes"/>
      <point x="272" y="1007"/>
      <point x="364" y="1095"/>
      <point x="497" y="1095" type="curve" smooth="yes"/>
      <point x="604" y="1095"/>
      <point x="683" y="1069"/>
      <point x="803" y="1003" type="curve"/>
    </contour>
    <contour>
      <point x="485" y="0" type="move" name="H"/>
    </contour>
    <contour>
      <point x="485" y="-84" type="move" name="L"/>
    </contour>
    <contour>
      <point x="485" y="1279" type="move" name="U"/>
    </contour>
  </outline>
</glyph>
<glyph name="T" format="1">
  <advance width="1058"/>
  <unicode hex="0054"/>
  <outline>
    <contour>
      <point x="38" y="1221" type="line"/>
      <point x="38" y="1066" type="line"/>
      <point x="105" y="1080"/>
      <point x="168" y="1083"/>
      <point x="242" y="1083" type="curve" smooth="yes"/>
      <point x="439" y="1083" type="line"/>
      <point x="439" y="364" type="line" smooth="yes"/>
      <point x="439" y="199"/>
      <point x="436" y="67"/>
      <point x="422" y="0" type="curve"/>
      <point x="614" y="0" type="line"/>
      <point x="600" y="67"/>
      <point x="598" y="199"/>
      <point x="598" y="364" type="curve" smooth="yes"/>
      <point x="598" y="1083" type="line"/>
      <point x="798" y="1083" type="line" smooth="yes"/>
      <point x="874" y="1083"/>
      <point x="936" y="1080"/>
      <point x="1003" y="1066" type="curve"/>
      <point x="1003" y="1221" type="line"/>
    </contour>
    <contour>
      <point x="520" y="0" type="move" name="H"/>
    </contour>
    <contour>
      <point x="520" y="-84" type="move" name="L"/>
    </contour>
    <contour>
      <point x="520" y="1279" type="move" name="U"/>
    </contour>
  </outline>
</glyph>
<glyph name="U" format="1">
  <advance width="1204"/>
  <unicode hex="0055"/>
  <outline>
    <contour>
      <point x="878" y="1221" type="line"/>
      <point x="878" y="468" type="line" smooth="yes"/>
      <point x="878" y="250"/>
      <point x="809" y="113"/>
      <point x="594" y="113" type="curve" smooth="yes"/>
      <point x="374" y="113"/>
      <point x="305" y="250"/>
      <point x="305" y="468" type="curve" smooth="yes"/>
      <point x="305" y="1221" type="line"/>
      <point x="134" y="1221" type="line"/>
      <point x="145" y="1154"/>
      <point x="146" y="1022"/>
      <point x="146" y="857" type="curve" smooth="yes"/>
      <point x="146" y="431" type="line"/>
      <point x="146" y="159"/>
      <point x="288" y="-21"/>
      <point x="594" y="-21" type="curve" smooth="yes"/>
      <point x="895" y="-21"/>
      <point x="1037" y="159"/>
      <point x="1037" y="431" type="curve"/>
      <point x="1037" y="857" type="line" smooth="yes"/>
      <point x="1037" y="1030"/>
      <point x="1038" y="1154"/>
      <point x="1049" y="1221" type="curve"/>
    </contour>
    <contour>
      <point x="591" y="0" type="move" name="H"/>
    </contour>
    <contour>
      <point x="591" y="-84" type="move" name="L"/>
    </contour>
    <contour>
      <point x="858" y="0" type="move" name="O"/>
    </contour>
    <contour>
      <point x="1170" y="1003" type="move" name="R"/>
    </contour>
    <contour>
      <point x="591" y="1279" type="move" name="U"/>
    </contour>
  </outline>
</glyph>
<glyph name="V" format="1">
  <advance width="1141"/>
  <unicode hex="0056"/>
  <outline>
    <contour>
      <point x="915" y="1221" type="line"/>
      <point x="562" y="163" type="line"/>
      <point x="209" y="1221" type="line"/>
      <point x="29" y="1221" type="line"/>
      <point x="57" y="1152"/>
      <point x="84" y="1077"/>
      <point x="142" y="915" type="curve" smooth="yes"/>
      <point x="468" y="0" type="line"/>
      <point x="656" y="0" type="line"/>
      <point x="978" y="915" type="line" smooth="yes"/>
      <point x="1035" y="1078"/>
      <point x="1065" y="1152"/>
      <point x="1095" y="1221" type="curve"/>
    </contour>
    <contour>
      <point x="568" y="0" type="move" name="H"/>
    </contour>
    <contour>
      <point x="562" y="-84" type="move" name="L"/>
    </contour>
    <contour>
      <point x="736" y="0" type="move" name="O"/>
    </contour>
    <contour>
      <point x="562" y="1279" type="move" name="U"/>
    </contour>
  </outline>
</glyph>
<glyph name="W" format="1">
  <advance width="1739"/>
  <unicode hex="0057"/>
  <outline>
    <contour>
      <point x="1237" y="0" type="line"/>
      <point x="1333" y="0" type="line"/>
      <point x="1588" y="915" type="line" smooth="yes"/>
      <point x="1634" y="1078"/>
      <point x="1658" y="1152"/>
      <point x="1685" y="1221" type="curve"/>
      <point x="1501" y="1221" type="line"/>
      <point x="1229" y="109" type="line"/>
    </contour>
    <contour>
      <point x="936" y="1221" type="line"/>
      <point x="782" y="1221" type="line"/>
      <point x="828" y="1091" type="line"/>
      <point x="1145" y="0" type="line"/>
      <point x="1237" y="0" type="line"/>
      <point x="1254" y="109" type="line"/>
    </contour>
    <contour>
      <point x="485" y="0" type="line"/>
      <point x="573" y="0" type="line"/>
      <point x="890" y="1091" type="line"/>
      <point x="936" y="1221" type="line"/>
      <point x="782" y="1221" type="line"/>
      <point x="468" y="109" type="line"/>
    </contour>
    <contour>
      <point x="217" y="1221" type="line"/>
      <point x="33" y="1221" type="line"/>
      <point x="59" y="1155"/>
      <point x="85" y="1075"/>
      <point x="130" y="915" type="curve" smooth="yes"/>
      <point x="385" y="0" type="line"/>
      <point x="485" y="0" type="line"/>
      <point x="493" y="109" type="line"/>
    </contour>
    <contour>
      <point x="859" y="-84" type="move" name="L"/>
    </contour>
    <contour>
      <point x="859" y="1279" type="move" name="U"/>
    </contour>
  </outline>
</glyph>
<glyph name="X" format="2">
  <advance width="1108"/>
  <unicode hex="0058"/>
  <anchor x="543" y="-84" name="L"/>
  <anchor x="543" y="1279" name="U"/>
  <outline>
    <contour>
      <point x="449" y="653" type="line"/>
      <point x="222" y="284" type="line" smooth="yes"/>
      <point x="114" y="110"/>
      <point x="86" y="72"/>
      <point x="33" y="0" type="curve"/>
      <point x="226" y="0" type="line"/>
      <point x="537" y="513" type="line"/>
      <point x="861" y="0" type="line"/>
      <point x="1053" y="0" type="line"/>
      <point x="1002" y="69"/>
      <point x="974" y="106"/>
      <point x="864" y="281" type="curve" smooth="yes"/>
      <point x="636" y="641" type="line"/>
      <point x="813" y="928" type="line" smooth="yes"/>
      <point x="917" y="1098"/>
      <point x="960" y="1156"/>
      <point x="1012" y="1221" type="curve"/>
      <point x="815" y="1221" type="line"/>
      <point x="548" y="781" type="line"/>
      <point x="272" y="1221" type="line"/>
      <point x="75" y="1221" type="line"/>
      <point x="129" y="1150"/>
      <point x="168" y="1099"/>
      <point x="276" y="928" type="curve"/>
    </contour>
  </outline>
</glyph>
<glyph name="Y" format="2">
  <advance width="1104"/>
  <unicode hex="0059"/>
  <anchor x="543" y="-84" name="L"/>
  <anchor x="543" y="1279" name="U"/>
  <outline>
    <contour>
      <point x="29" y="1221" type="line"/>
      <point x="123" y="1096"/>
      <point x="178" y="1001"/>
      <point x="242" y="890" type="curve" smooth="yes"/>
      <point x="464" y="511" type="line"/>
      <point x="464" y="364" type="line" smooth="yes"/>
      <point x="464" y="199"/>
      <point x="464" y="67"/>
      <point x="451" y="0" type="curve"/>
      <point x="635" y="0" type="line"/>
      <point x="623" y="67"/>
      <point x="623" y="199"/>
      <point x="623" y="364" type="curve" smooth="yes"/>
      <point x="623" y="504" type="line"/>
      <point x="849" y="890" type="line" smooth="yes"/>
      <point x="912" y="999"/>
      <point x="959" y="1079"/>
      <point x="1058" y="1221" type="curve"/>
      <point x="865" y="1221" type="line"/>
      <point x="552" y="668" type="line"/>
      <point x="222" y="1221" type="line"/>
    </contour>
  </outline>
</glyph>
<glyph name="Z" format="2">
  <advance width="1028"/>
  <unicode hex="005A"/>
  <anchor x="506" y="-84" name="L"/>
  <anchor x="506" y="1279" name="U"/>
  <outline>
    <contour>
      <point x="924" y="1221" type="line"/>
      <point x="113" y="1221" type="line"/>
      <point x="113" y="1066" type="line"/>
      <point x="180" y="1080"/>
      <point x="278" y="1083"/>
      <point x="443" y="1083" type="curve" smooth="yes"/>
      <point x="727" y="1083" type="line"/>
      <point x="63" y="105" type="line"/>
      <point x="63" y="0" type="line"/>
      <point x="949" y="0" type="line"/>
      <point x="949" y="155" type="line"/>
      <point x="882" y="143"/>
      <point x="749" y="138"/>
      <point x="585" y="138" type="curve" smooth="yes"/>
      <point x="259" y="138" type="line"/>
      <point x="924" y="1112" type="line"/>
    </contour>
  </outline>
</glyph>
<glyph name="bracketleft" format="2">
  <advance width="712"/>
  <unicode hex="005B"/>
  <outline>
    <contour>
      <point x="570" y="-225" type="line"/>
      <point x="570" y="-285" type="line"/>
      <point x="256" y="-285" type="line"/>
      <point x="256" y="1136" type="line"/>
      <point x="570" y="1136" type="line"/>
      <point x="570" y="1076" type="line"/>
      <point x="356" y="1076" type="line"/>
      <point x="356" y="-225" type="line"/>
    </contour>
  </outline>
</glyph>
<glyph name="bracketright" format="1">
  <advance width="712"/>
  <unicode hex="005D"/>
  <outline>
    <contour>
      <point x="142" y="1076" type="line"/>
      <point x="142" y="1136" type="line"/>
      <point x="456" y="1136" type="line"/>
      <point x="456" y="-285" type="line"/>
      <point x="142" y="-285" type="line"/>
      <point x="142" y="-225" type="line"/>
      <point x="356" y="-225" type="line"/>
      <point x="356" y="1076" type="line"/>
    </contour>
  </outline>
</glyph>
<glyph name="asciicircum" format="2">
  <advance width="1162"/>
  <unicode hex="005E"/>
  <outline>
    <contour>
      <point x="638" y="1104" type="line"/>
      <point x="524" y="1104" type="line"/>
      <point x="100" y="-1" type="line"/>
      <point x="214" y="-1" type="line"/>
      <point x="581" y="986" type="line"/>
      <point x="947" y="-1" type="line"/>
      <point x="1062" y="-1" type="line"/>
    </contour>
  </outline>
</glyph>
<glyph name="underscore" format="2">
  <advance width="921"/>
  <unicode hex="005F"/>
  <outline>
    <contour>
      <point x="921" y="-150" type="line"/>
      <point x="921" y="-230" type="line"/>
      <point x="0" y="-230" type="line"/>
      <point x="0" y="-150" type="line"/>
    </contour>
  </outline>
</glyph>
<glyph name="a" format="2">
  <advance width="936"/>
  <unicode hex="0061"/>
  <anchor x="451" y="0" name="H"/>
  <anchor x="451" y="-84" name="L"/>
  <anchor x="941" y="0" name="O"/>
  <anchor x="936" y="836" name="R"/>
  <anchor x="451" y="920" name="U"/>
  <outline>
    <contour>
      <point x="794" y="635" type="line"/>
      <point x="794" y="768"/>
      <point x="669" y="869"/>
      <point x="477" y="869" type="curve" smooth="yes"/>
      <point x="349" y="869"/>
      <point x="262" y="831"/>
      <point x="176" y="794" type="curve"/>
      <point x="171" y="758"/>
      <point x="168" y="668"/>
      <point x="167" y="631" type="curve"/>
      <point x="265" y="700"/>
      <point x="350" y="736"/>
      <point x="439" y="736" type="curve" smooth="yes"/>
      <point x="564" y="736"/>
      <point x="640" y="695"/>
      <point x="640" y="594" type="curve" smooth="yes"/>
      <point x="640" y="531" type="line"/>
      <point x="605" y="528"/>
      <point x="472" y="516"/>
      <point x="414" y="510" type="curve" smooth="yes"/>
      <point x="155" y="485"/>
      <point x="79" y="340"/>
      <point x="79" y="213" type="curve" smooth="yes"/>
      <point x="79" y="89"/>
      <point x="194" y="-21"/>
      <point x="351" y="-21" type="curve" smooth="yes"/>
      <point x="455" y="-21"/>
      <point x="566" y="24"/>
      <point x="665" y="130" type="curve"/>
      <point x="676" y="76"/>
      <point x="696" y="27"/>
      <point x="706" y="0" type="curve"/>
      <point x="857" y="0" type="line"/>
      <point x="820" y="94"/>
      <point x="794" y="189"/>
      <point x="794" y="309" type="curve"/>
    </contour>
    <contour>
      <point x="640" y="272" type="line"/>
      <point x="538" y="137"/>
      <point x="461" y="117"/>
      <point x="376" y="117" type="curve" smooth="yes"/>
      <point x="284" y="117"/>
      <point x="230" y="160"/>
      <point x="230" y="234" type="curve" smooth="yes"/>
      <point x="230" y="311"/>
      <point x="280" y="376"/>
      <point x="422" y="393" type="curve" smooth="yes"/>
      <point x="475" y="400"/>
      <point x="598" y="412"/>
      <point x="640" y="414" type="curve"/>
    </contour>
  </outline>
</glyph>
<glyph name="b" format="1">
  <advance width="966"/>
  <unicode hex="0062"/>
  <outline>
    <contour>
      <point x="109" y="1338" type="line"/>
      <point x="121" y="1244"/>
      <point x="121" y="1064"/>
      <point x="121" y="945" type="curve" smooth="yes"/>
      <point x="121" y="782"/>
      <point x="121" y="191"/>
      <point x="121" y="54" type="curve"/>
      <point x="227" y="22"/>
      <point x="345" y="-21"/>
      <point x="481" y="-21" type="curve" smooth="yes"/>
      <point x="727" y="-21"/>
      <point x="886" y="165"/>
      <point x="886" y="451" type="curve" smooth="yes"/>
      <point x="886" y="696"/>
      <point x="767" y="869"/>
      <point x="598" y="869" type="curve" smooth="yes"/>
      <point x="457" y="869"/>
      <point x="354" y="792"/>
      <point x="276" y="690" type="curve"/>
      <point x="276" y="766"/>
      <point x="276" y="1338"/>
      <point x="276" y="1338" type="curve"/>
    </contour>
    <contour>
      <point x="276" y="489" type="line"/>
      <point x="333" y="628"/>
      <point x="444" y="723"/>
      <point x="548" y="723" type="curve" smooth="yes"/>
      <point x="668" y="723"/>
      <point x="736" y="608"/>
      <point x="736" y="422" type="curve" smooth="yes"/>
      <point x="736" y="234"/>
      <point x="629" y="109"/>
      <point x="481" y="109" type="curve" smooth="yes"/>
      <point x="409" y="109"/>
      <point x="358" y="120"/>
      <point x="276" y="155" type="curve"/>
    </contour>
    <contour>
      <point x="493" y="0" type="move" name="H"/>
    </contour>
    <contour>
      <point x="493" y="-84" type="move" name="L"/>
    </contour>
    <contour>
      <point x="966" y="836" type="move" name="R"/>
    </contour>
    <contour>
      <point x="493" y="1367" type="move" name="U"/>
    </contour>
  </outline>
</glyph>
<glyph name="d" format="2">
  <advance width="995"/>
  <unicode hex="0064"/>
  <anchor x="506" y="0" name="H"/>
  <anchor x="506" y="-84" name="L"/>
  <anchor x="995" y="836" name="R"/>
  <anchor x="506" y="1367" name="U"/>
  <outline>
    <contour>
      <point x="861" y="1338" type="line"/>
      <point x="686" y="1338" type="line"/>
      <point x="701" y="1267"/>
      <point x="706" y="1166"/>
      <point x="706" y="1032" type="curve"/>
      <point x="706" y="798" type="line"/>
      <point x="641" y="835"/>
      <point x="556" y="869"/>
      <point x="485" y="869" type="curve" smooth="yes"/>
      <point x="261" y="869"/>
      <point x="88" y="681"/>
      <point x="88" y="385" type="curve" smooth="yes"/>
      <point x="88" y="140"/>
      <point x="218" y="-21"/>
      <point x="422" y="-21" type="curve" smooth="yes"/>
      <point x="545" y="-21"/>
      <point x="648" y="42"/>
      <point x="727" y="155" type="curve"/>
      <point x="742" y="93"/>
      <point x="761" y="28"/>
      <point x="773" y="0" type="curve"/>
      <point x="924" y="0" type="line"/>
      <point x="888" y="94"/>
      <point x="861" y="232"/>
      <point x="861" y="443" type="curve"/>
    </contour>
    <contour>
      <point x="706" y="334" type="line"/>
      <point x="660" y="224"/>
      <point x="553" y="113"/>
      <point x="451" y="113" type="curve" smooth="yes"/>
      <point x="306" y="113"/>
      <point x="242" y="216"/>
      <point x="242" y="410" type="curve" smooth="yes"/>
      <point x="242" y="608"/>
      <point x="359" y="727"/>
      <point x="485" y="727" type="curve" smooth="yes"/>
      <point x="569" y="727"/>
      <point x="624" y="709"/>
      <point x="706" y="665" type="curve"/>
    </contour>
  </outline>
</glyph>
<glyph name="e" format="1">
  <advance width="915"/>
  <unicode hex="0065"/>
  <outline>
    <contour>
      <point x="827" y="405" type="line"/>
      <point x="828" y="421"/>
      <point x="828" y="456"/>
      <point x="828" y="471" type="curve" smooth="yes"/>
      <point x="828" y="659"/>
      <point x="757" y="869"/>
      <point x="481" y="869" type="curve" smooth="yes"/>
      <point x="233" y="869"/>
      <point x="79" y="691"/>
      <point x="79" y="414" type="curve" smooth="yes"/>
      <point x="79" y="130"/>
      <point x="268" y="-21"/>
      <point x="481" y="-21" type="curve" smooth="yes"/>
      <point x="609" y="-21"/>
      <point x="713" y="2"/>
      <point x="832" y="63" type="curve"/>
      <point x="815" y="201" type="line"/>
      <point x="713" y="139"/>
      <point x="609" y="117"/>
      <point x="502" y="117" type="curve" smooth="yes"/>
      <point x="346" y="117"/>
      <point x="234" y="216"/>
      <point x="234" y="422" type="curve" smooth="yes"/>
      <point x="234" y="644"/>
      <point x="322" y="744"/>
      <point x="468" y="744" type="curve" smooth="yes"/>
      <point x="589" y="744"/>
      <point x="677" y="666"/>
      <point x="677" y="523" type="curve"/>
      <point x="205" y="523" type="line"/>
      <point x="205" y="405" type="line"/>
    </contour>
    <contour>
      <point x="456" y="0" type="move" name="H"/>
    </contour>
    <contour>
      <point x="476" y="-84" type="move" name="L"/>
    </contour>
    <contour>
      <point x="773" y="0" type="move" name="O"/>
    </contour>
    <contour>
      <point x="915" y="836" type="move" name="R"/>
    </contour>
    <contour>
      <point x="476" y="920" type="move" name="U"/>
    </contour>
  </outline>
</glyph>
<glyph name="f" format="2">
  <advance width="627"/>
  <unicode hex="0066"/>
  <anchor x="309" y="0" name="H"/>
  <anchor x="280" y="-84" name="L"/>
  <anchor x="468" y="1367" name="U"/>
  <outline>
    <contour>
      <point x="33" y="711" type="line"/>
      <point x="201" y="711" type="line"/>
      <point x="201" y="0" type="line"/>
      <point x="380" y="0" type="line"/>
      <point x="362" y="88"/>
      <point x="355" y="251"/>
      <point x="355" y="413" type="curve" smooth="yes"/>
      <point x="355" y="711" type="line"/>
      <point x="581" y="711" type="line"/>
      <point x="581" y="832" type="line"/>
      <point x="355" y="832" type="line"/>
      <point x="355" y="1012" type="line" smooth="yes"/>
      <point x="355" y="1155"/>
      <point x="402" y="1212"/>
      <point x="489" y="1212" type="curve" smooth="yes"/>
      <point x="538" y="1212"/>
      <point x="594" y="1193"/>
      <point x="635" y="1162" type="curve"/>
      <point x="673" y="1296" type="line"/>
      <point x="621" y="1333"/>
      <point x="554" y="1354"/>
      <point x="489" y="1354" type="curve" smooth="yes"/>
      <point x="308" y="1354"/>
      <point x="201" y="1229"/>
      <point x="201" y="978" type="curve" smooth="yes"/>
      <point x="201" y="832" type="line"/>
      <point x="33" y="832" type="line"/>
    </contour>
  </outline>
</glyph>
<glyph name="g" format="2">
  <advance width="915"/>
  <unicode hex="0067"/>
  <anchor x="456" y="-361" name="H"/>
  <anchor x="456" y="-447" name="L"/>
  <anchor x="915" y="836" name="R"/>
  <anchor x="431" y="920" name="U"/>
  <outline>
    <contour>
      <point x="276" y="330" type="line"/>
      <point x="196" y="298"/>
      <point x="150" y="230"/>
      <point x="150" y="180" type="curve" smooth="yes"/>
      <point x="150" y="101"/>
      <point x="220" y="23"/>
      <point x="456" y="-4" type="curve" smooth="yes"/>
      <point x="673" y="-29"/>
      <point x="736" y="-75"/>
      <point x="736" y="-142" type="curve" smooth="yes"/>
      <point x="736" y="-213"/>
      <point x="611" y="-301"/>
      <point x="460" y="-301" type="curve" smooth="yes"/>
      <point x="270" y="-301"/>
      <point x="180" y="-218"/>
      <point x="180" y="-150" type="curve" smooth="yes"/>
      <point x="180" y="-101"/>
      <point x="204" y="-47"/>
      <point x="389" y="17" type="curve"/>
      <point x="384" y="41"/>
      <point x="242" y="63"/>
      <point x="242" y="63" type="curve"/>
      <point x="94" y="2"/>
      <point x="25" y="-74"/>
      <point x="25" y="-167" type="curve" smooth="yes"/>
      <point x="25" y="-342"/>
      <point x="253" y="-422"/>
      <point x="447" y="-422" type="curve" smooth="yes"/>
      <point x="650" y="-422"/>
      <point x="890" y="-314"/>
      <point x="890" y="-134" type="curve" smooth="yes"/>
      <point x="890" y="-7"/>
      <point x="808" y="75"/>
      <point x="560" y="105" type="curve" smooth="yes"/>
      <point x="343" y="130"/>
      <point x="288" y="166"/>
      <point x="288" y="196" type="curve" smooth="yes"/>
      <point x="288" y="227"/>
      <point x="321" y="264"/>
      <point x="418" y="293" type="curve"/>
    </contour>
    <contour>
      <point x="878" y="869" type="line"/>
      <point x="795" y="864"/>
      <point x="685" y="833"/>
      <point x="610" y="786" type="curve"/>
      <point x="665" y="690" type="line"/>
      <point x="742" y="721"/>
      <point x="808" y="734"/>
      <point x="869" y="736" type="curve"/>
    </contour>
    <contour>
      <point x="96" y="568" type="curve" smooth="yes"/>
      <point x="96" y="398"/>
      <point x="242" y="272"/>
      <point x="431" y="272" type="curve" smooth="yes"/>
      <point x="620" y="272"/>
      <point x="765" y="398"/>
      <point x="765" y="568" type="curve" smooth="yes"/>
      <point x="765" y="739"/>
      <point x="620" y="869"/>
      <point x="431" y="869" type="curve" smooth="yes"/>
      <point x="242" y="869"/>
      <point x="96" y="739"/>
    </contour>
    <contour>
      <point x="238" y="568" type="curve" smooth="yes"/>
      <point x="238" y="671"/>
      <point x="319" y="748"/>
      <point x="431" y="748" type="curve" smooth="yes"/>
      <point x="543" y="748"/>
      <point x="623" y="671"/>
      <point x="623" y="568" type="curve" smooth="yes"/>
      <point x="623" y="466"/>
      <point x="543" y="389"/>
      <point x="431" y="389" type="curve" smooth="yes"/>
      <point x="319" y="389"/>
      <point x="238" y="466"/>
    </contour>
  </outline>
</glyph>
<glyph name="k" format="2">
  <advance width="865"/>
  <unicode hex="006B"/>
  <anchor x="203" y="0" name="H"/>
  <anchor x="478" y="-84" name="L"/>
  <anchor x="865" y="836" name="R"/>
  <anchor x="478" y="1367" name="U"/>
  <outline>
    <contour>
      <point x="276" y="0" type="line"/>
      <point x="276" y="1338" type="line"/>
      <point x="109" y="1338" type="line"/>
      <point x="121" y="1266"/>
      <point x="121" y="1124"/>
      <point x="121" y="945" type="curve" smooth="yes"/>
      <point x="121" y="781"/>
      <point x="121" y="0"/>
      <point x="121" y="0" type="curve"/>
    </contour>
    <contour>
      <point x="614" y="853" type="line"/>
      <point x="234" y="460" type="line"/>
      <point x="364" y="438" type="line"/>
      <point x="823" y="853" type="line"/>
    </contour>
    <contour>
      <point x="255" y="460" type="line"/>
      <point x="644" y="0" type="line"/>
      <point x="849" y="0" type="line"/>
      <point x="343" y="552" type="line"/>
    </contour>
  </outline>
</glyph>
<glyph name="l" format="2">
  <advance width="472"/>
  <unicode hex="006C"/>
  <anchor x="242" y="0" name="H"/>
  <anchor x="242" y="-84" name="L"/>
  <anchor x="460" y="836" name="R"/>
  <anchor x="236" y="1367" name="U"/>
  <outline>
    <contour>
      <point x="314" y="1338" type="line"/>
      <point x="142" y="1338" type="line"/>
      <point x="153" y="1241"/>
      <point x="159" y="1107"/>
      <point x="159" y="945" type="curve"/>
      <point x="159" y="0" type="line"/>
      <point x="330" y="0" type="line"/>
      <point x="319" y="91"/>
      <point x="314" y="289"/>
      <point x="314" y="397" type="curve" smooth="yes"/>
    </contour>
  </outline>
</glyph>
<glyph name="m" format="2">
  <advance width="1409"/>
  <unicode hex="006D"/>
  <anchor x="1212" y="0" name="H"/>
  <anchor x="723" y="-84" name="L"/>
  <anchor x="723" y="920" name="U"/>
  <outline>
    <contour>
      <point x="790" y="552" type="line"/>
      <point x="839" y="656"/>
      <point x="921" y="723"/>
      <point x="1003" y="723" type="curve" smooth="yes"/>
      <point x="1097" y="723"/>
      <point x="1124" y="675"/>
      <point x="1124" y="460" type="curve" smooth="yes"/>
      <point x="1124" y="0" type="line"/>
      <point x="1279" y="0" type="line"/>
      <point x="1279" y="552" type="line" smooth="yes"/>
      <point x="1279" y="758"/>
      <point x="1223" y="869"/>
      <point x="1053" y="869" type="curve" smooth="yes"/>
      <point x="966" y="869"/>
      <point x="874" y="842"/>
      <point x="770" y="729" type="curve"/>
      <point x="742" y="803"/>
      <point x="674" y="869"/>
      <point x="564" y="869" type="curve" smooth="yes"/>
      <point x="468" y="869"/>
      <point x="384" y="841"/>
      <point x="282" y="723" type="curve"/>
      <point x="276" y="763"/>
      <point x="268" y="818"/>
      <point x="255" y="853" type="curve"/>
      <point x="105" y="853" type="line"/>
      <point x="122" y="795"/>
      <point x="146" y="678"/>
      <point x="146" y="514" type="curve" smooth="yes"/>
      <point x="146" y="0" type="line"/>
      <point x="301" y="0" type="line"/>
      <point x="301" y="552" type="line"/>
      <point x="345" y="652"/>
      <point x="432" y="723"/>
      <point x="514" y="723" type="curve" smooth="yes"/>
      <point x="608" y="723"/>
      <point x="635" y="684"/>
      <point x="635" y="477" type="curve" smooth="yes"/>
      <point x="635" y="0" type="line"/>
      <point x="790" y="0" type="line"/>
    </contour>
  </outline>
</glyph>
<glyph name="n" format="1">
  <advance width="991"/>
  <unicode hex="006E"/>
  <outline>
    <contour>
      <point x="878" y="0" type="line"/>
      <point x="878" y="0"/>
      <point x="878" y="384"/>
      <point x="878" y="523" type="curve" smooth="yes"/>
      <point x="878" y="752"/>
      <point x="780" y="869"/>
      <point x="602" y="869" type="curve" smooth="yes"/>
      <point x="484" y="869"/>
      <point x="378" y="817"/>
      <point x="272" y="690" type="curve"/>
      <point x="266" y="730"/>
      <point x="251" y="818"/>
      <point x="238" y="853" type="curve"/>
      <point x="88" y="853" type="line"/>
      <point x="106" y="795"/>
      <point x="130" y="678"/>
      <point x="130" y="514" type="curve" smooth="yes"/>
      <point x="130" y="351"/>
      <point x="130" y="0"/>
      <point x="130" y="0" type="curve"/>
      <point x="284" y="0" type="line"/>
      <point x="284" y="485" type="line"/>
      <point x="321" y="599"/>
      <point x="436" y="723"/>
      <point x="556" y="723" type="curve" smooth="yes"/>
      <point x="669" y="723"/>
      <point x="723" y="669"/>
      <point x="723" y="460" type="curve" smooth="yes"/>
      <point x="723" y="345"/>
      <point x="723" y="0"/>
      <point x="723" y="0" type="curve"/>
    </contour>
    <contour>
      <point x="811" y="0" type="move" name="H"/>
    </contour>
    <contour>
      <point x="502" y="-84" type="move" name="L"/>
    </contour>
    <contour>
      <point x="502" y="920" type="move" name="U"/>
    </contour>
  </outline>
</glyph>
<glyph name="p" format="2">
  <advance width="978"/>
  <unicode hex="0070"/>
  <anchor x="222" y="-364" name="H"/>
  <anchor x="493" y="-418" name="L"/>
  <anchor x="978" y="836" name="R"/>
  <anchor x="493" y="920" name="U"/>
  <outline>
    <contour>
      <point x="88" y="853" type="line"/>
      <point x="125" y="758"/>
      <point x="130" y="614"/>
      <point x="130" y="405" type="curve" smooth="yes"/>
      <point x="130" y="243"/>
      <point x="130" y="-410"/>
      <point x="130" y="-410" type="curve"/>
      <point x="305" y="-410" type="line"/>
      <point x="291" y="-339"/>
      <point x="284" y="-259"/>
      <point x="284" y="-125" type="curve"/>
      <point x="284" y="71" type="line"/>
      <point x="364" y="15"/>
      <point x="429" y="-21"/>
      <point x="518" y="-21" type="curve" smooth="yes"/>
      <point x="728" y="-21"/>
      <point x="899" y="161"/>
      <point x="899" y="447" type="curve" smooth="yes"/>
      <point x="899" y="692"/>
      <point x="772" y="869"/>
      <point x="581" y="869" type="curve" smooth="yes"/>
      <point x="457" y="869"/>
      <point x="350" y="798"/>
      <point x="272" y="694" type="curve"/>
      <point x="264" y="771"/>
      <point x="251" y="824"/>
      <point x="238" y="853" type="curve"/>
    </contour>
    <contour>
      <point x="284" y="481" type="line"/>
      <point x="346" y="642"/>
      <point x="456" y="727"/>
      <point x="552" y="727" type="curve" smooth="yes"/>
      <point x="672" y="727"/>
      <point x="744" y="608"/>
      <point x="744" y="422" type="curve" smooth="yes"/>
      <point x="744" y="233"/>
      <point x="636" y="117"/>
      <point x="518" y="117" type="curve" smooth="yes"/>
      <point x="441" y="117"/>
      <point x="399" y="137"/>
      <point x="284" y="217" type="curve"/>
    </contour>
  </outline>
</glyph>
<glyph name="q" format="2">
  <advance width="945"/>
  <unicode hex="0071"/>
  <anchor x="464" y="-418" name="L"/>
  <anchor x="945" y="836" name="R"/>
  <anchor x="464" y="920" name="U"/>
  <outline>
    <contour>
      <point x="665" y="-410" type="line"/>
      <point x="840" y="-410" type="line"/>
      <point x="826" y="-339"/>
      <point x="819" y="-259"/>
      <point x="819" y="-125" type="curve" smooth="yes"/>
      <point x="819" y="-22"/>
      <point x="819" y="807"/>
      <point x="819" y="807" type="curve"/>
      <point x="729" y="837"/>
      <point x="624" y="869"/>
      <point x="523" y="869" type="curve" smooth="yes"/>
      <point x="217" y="869"/>
      <point x="88" y="620"/>
      <point x="88" y="364" type="curve" smooth="yes"/>
      <point x="88" y="98"/>
      <point x="268" y="-21"/>
      <point x="422" y="-21" type="curve" smooth="yes"/>
      <point x="500" y="-21"/>
      <point x="578" y="16"/>
      <point x="665" y="117" type="curve"/>
    </contour>
    <contour>
      <point x="665" y="305" type="line"/>
      <point x="596" y="183"/>
      <point x="512" y="121"/>
      <point x="435" y="121" type="curve" smooth="yes"/>
      <point x="344" y="121"/>
      <point x="242" y="198"/>
      <point x="242" y="405" type="curve" smooth="yes"/>
      <point x="242" y="563"/>
      <point x="314" y="727"/>
      <point x="497" y="727" type="curve" smooth="yes"/>
      <point x="548" y="727"/>
      <point x="614" y="713"/>
      <point x="665" y="694" type="curve"/>
    </contour>
  </outline>
</glyph>
<glyph name="r" format="1">
  <advance width="744"/>
  <unicode hex="0072"/>
  <outline>
    <contour>
      <point x="284" y="0" type="line"/>
      <point x="284" y="485" type="line"/>
      <point x="321" y="599"/>
      <point x="436" y="719"/>
      <point x="506" y="719" type="curve" smooth="yes"/>
      <point x="572" y="719"/>
      <point x="602" y="644"/>
      <point x="602" y="560" type="curve"/>
      <point x="736" y="589" type="line"/>
      <point x="736" y="736"/>
      <point x="683" y="869"/>
      <point x="543" y="869" type="curve" smooth="yes"/>
      <point x="467" y="869"/>
      <point x="353" y="806"/>
      <point x="272" y="690" type="curve"/>
      <point x="266" y="730"/>
      <point x="251" y="818"/>
      <point x="238" y="853" type="curve"/>
      <point x="88" y="853" type="line"/>
      <point x="106" y="795"/>
      <point x="130" y="678"/>
      <point x="130" y="514" type="curve" smooth="yes"/>
      <point x="130" y="0" type="line"/>
    </contour>
    <contour>
      <point x="226" y="0" type="move" name="H"/>
    </contour>
    <contour>
      <point x="213" y="-84" type="move" name="L"/>
    </contour>
    <contour>
      <point x="380" y="920" type="move" name="U"/>
    </contour>
  </outline>
</glyph>
<glyph name="s" format="2">
  <advance width="807"/>
  <unicode hex="0073"/>
  <anchor x="414" y="0" name="H"/>
  <anchor x="414" y="-84" name="L"/>
  <anchor x="414" y="920" name="U"/>
  <outline>
    <contour>
      <point x="698" y="803" type="line"/>
      <point x="640" y="834"/>
      <point x="552" y="869"/>
      <point x="431" y="869" type="curve" smooth="yes"/>
      <point x="176" y="869"/>
      <point x="109" y="696"/>
      <point x="109" y="619" type="curve" smooth="yes"/>
      <point x="109" y="515"/>
      <point x="152" y="430"/>
      <point x="355" y="380" type="curve" smooth="yes"/>
      <point x="543" y="334"/>
      <point x="585" y="288"/>
      <point x="585" y="226" type="curve" smooth="yes"/>
      <point x="585" y="168"/>
      <point x="516" y="113"/>
      <point x="418" y="113" type="curve" smooth="yes"/>
      <point x="329" y="113"/>
      <point x="209" y="158"/>
      <point x="134" y="226" type="curve"/>
      <point x="92" y="75" type="line"/>
      <point x="158" y="23"/>
      <point x="278" y="-21"/>
      <point x="414" y="-21" type="curve" smooth="yes"/>
      <point x="594" y="-21"/>
      <point x="736" y="96"/>
      <point x="736" y="247" type="curve" smooth="yes"/>
      <point x="736" y="402"/>
      <point x="611" y="467"/>
      <point x="460" y="502" type="curve" smooth="yes"/>
      <point x="284" y="542"/>
      <point x="259" y="568"/>
      <point x="259" y="627" type="curve" smooth="yes"/>
      <point x="259" y="677"/>
      <point x="299" y="736"/>
      <point x="422" y="736" type="curve" smooth="yes"/>
      <point x="526" y="736"/>
      <point x="613" y="689"/>
      <point x="669" y="656" type="curve"/>
    </contour>
  </outline>
</glyph>
<glyph name="t" format="2">
  <advance width="698"/>
  <unicode hex="0074"/>
  <anchor x="397" y="0" name="H"/>
  <anchor x="397" y="-84" name="L"/>
  <anchor x="698" y="836" name="R"/>
  <anchor x="272" y="1137" name="U"/>
  <outline>
    <contour>
      <point x="635" y="180" type="line"/>
      <point x="562" y="139"/>
      <point x="502" y="117"/>
      <point x="454" y="117" type="curve" smooth="yes"/>
      <point x="379" y="117"/>
      <point x="347" y="154"/>
      <point x="347" y="326" type="curve" smooth="yes"/>
      <point x="347" y="1104" type="line"/>
      <point x="192" y="1104" type="line"/>
      <point x="192" y="226" type="line" smooth="yes"/>
      <point x="192" y="33"/>
      <point x="298" y="-21"/>
      <point x="428" y="-21" type="curve" smooth="yes"/>
      <point x="487" y="-21"/>
      <point x="558" y="-3"/>
      <point x="635" y="46" type="curve"/>
    </contour>
    <contour>
      <point x="25" y="711" type="line"/>
      <point x="619" y="711" type="line"/>
      <point x="619" y="832" type="line"/>
      <point x="25" y="832" type="line"/>
    </contour>
  </outline>
</glyph>
<glyph name="u" format="2">
  <advance width="991"/>
  <unicode hex="0075"/>
  <anchor x="492" y="0" name="H"/>
  <anchor x="492" y="-84" name="L"/>
  <anchor x="997" y="0" name="O"/>
  <anchor x="991" y="836" name="R"/>
  <anchor x="492" y="920" name="U"/>
  <outline>
    <contour>
      <point x="911" y="0" type="line"/>
      <point x="876" y="94"/>
      <point x="857" y="214"/>
      <point x="857" y="376" type="curve" smooth="yes"/>
      <point x="857" y="540"/>
      <point x="857" y="853"/>
      <point x="857" y="853" type="curve"/>
      <point x="686" y="853" type="line"/>
      <point x="701" y="751"/>
      <point x="702" y="696"/>
      <point x="702" y="585" type="curve" smooth="yes"/>
      <point x="702" y="351" type="line"/>
      <point x="658" y="249"/>
      <point x="525" y="117"/>
      <point x="426" y="117" type="curve" smooth="yes"/>
      <point x="320" y="117"/>
      <point x="284" y="199"/>
      <point x="284" y="389" type="curve" smooth="yes"/>
      <point x="284" y="504"/>
      <point x="284" y="853"/>
      <point x="284" y="853" type="curve"/>
      <point x="113" y="853" type="line"/>
      <point x="128" y="752"/>
      <point x="130" y="691"/>
      <point x="130" y="585" type="curve" smooth="yes"/>
      <point x="130" y="569"/>
      <point x="130" y="354"/>
      <point x="130" y="339" type="curve" smooth="yes"/>
      <point x="130" y="100"/>
      <point x="219" y="-21"/>
      <point x="397" y="-21" type="curve" smooth="yes"/>
      <point x="514" y="-21"/>
      <point x="622" y="44"/>
      <point x="723" y="167" type="curve"/>
      <point x="732" y="105"/>
      <point x="753" y="38"/>
      <point x="769" y="0" type="curve"/>
    </contour>
  </outline>
</glyph>
<glyph name="v" format="2">
  <advance width="895"/>
  <unicode hex="0076"/>
  <anchor x="459" y="0" name="H"/>
  <anchor x="447" y="-84" name="L"/>
  <anchor x="606" y="0" name="O"/>
  <anchor x="447" y="920" name="U"/>
  <outline>
    <contour>
      <point x="702" y="853" type="line"/>
      <point x="447" y="167" type="line"/>
      <point x="192" y="853" type="line"/>
      <point x="17" y="853" type="line"/>
      <point x="63" y="757"/>
      <point x="120" y="624"/>
      <point x="146" y="556" type="curve" smooth="yes"/>
      <point x="198" y="426"/>
      <point x="368" y="0"/>
      <point x="368" y="0" type="curve"/>
      <point x="527" y="0" type="line"/>
      <point x="527" y="0"/>
      <point x="704" y="448"/>
      <point x="748" y="556" type="curve" smooth="yes"/>
      <point x="776" y="622"/>
      <point x="830" y="757"/>
      <point x="878" y="853" type="curve"/>
    </contour>
  </outline>
</glyph>
<glyph name="w" format="1">
  <advance width="1296"/>
  <unicode hex="0077"/>
  <outline>
    <contour>
      <point x="585" y="853" type="line"/>
      <point x="368" y="180" type="line"/>
      <point x="192" y="853" type="line"/>
      <point x="38" y="853" type="line"/>
      <point x="77" y="725"/>
      <point x="100" y="645"/>
      <point x="125" y="556" type="curve" smooth="yes"/>
      <point x="280" y="0" type="line"/>
      <point x="439" y="0" type="line"/>
      <point x="648" y="656" type="line"/>
      <point x="857" y="0" type="line"/>
      <point x="1016" y="0" type="line"/>
      <point x="1170" y="556" type="line" smooth="yes"/>
      <point x="1199" y="656"/>
      <point x="1219" y="726"/>
      <point x="1258" y="853" type="curve"/>
      <point x="1104" y="853" type="line"/>
      <point x="928" y="180" type="line"/>
      <point x="711" y="853" type="line"/>
    </contour>
    <contour>
      <point x="648" y="-84" type="move" name="L"/>
    </contour>
    <contour>
      <point x="648" y="920" type="move" name="U"/>
    </contour>
  </outline>
</glyph>
<glyph name="bar" format="2">
  <advance width="588"/>
  <unicode hex="007C"/>
  <outline>
    <contour>
      <point x="338" y="1354" type="line"/>
      <point x="250" y="1354" type="line"/>
      <point x="250" y="-503" type="line"/>
      <point x="338" y="-503" type="line"/>
    </contour>
  </outline>
</glyph>
<glyph name="braceright" format="2">
  <advance width="776"/>
  <unicode hex="007D"/>
  <outline>
    <contour>
      <point x="90" y="1294" type="line"/>
      <point x="235" y="1257"/>
      <point x="308" y="1175"/>
      <point x="308" y="1047" type="curve" smooth="yes"/>
      <point x="308" y="1018"/>
      <point x="302" y="975"/>
      <point x="287" y="919" type="curve" smooth="yes"/>
      <point x="272" y="863"/>
      <point x="266" y="819"/>
      <point x="266" y="791" type="curve" smooth="yes"/>
      <point x="266" y="622"/>
      <point x="343" y="510"/>
      <point x="496" y="454" type="curve"/>
      <point x="343" y="399"/>
      <point x="266" y="288"/>
      <point x="266" y="123" type="curve" smooth="yes"/>
      <point x="266" y="92"/>
      <point x="273" y="49"/>
      <point x="287" y="-8" type="curve" smooth="yes"/>
      <point x="300" y="-63"/>
      <point x="308" y="-108"/>
      <point x="308" y="-137" type="curve" smooth="yes"/>
      <point x="308" y="-266"/>
      <point x="235" y="-349"/>
      <point x="90" y="-385" type="curve"/>
      <point x="90" y="-417" type="line"/>
      <point x="178" y="-408"/>
      <point x="256" y="-371"/>
      <point x="320" y="-306" type="curve" smooth="yes"/>
      <point x="387" y="-237"/>
      <point x="420" y="-159"/>
      <point x="420" y="-71" type="curve" smooth="yes"/>
      <point x="420" y="-35"/>
      <point x="415" y="18"/>
      <point x="399" y="87" type="curve" smooth="yes"/>
      <point x="383" y="155"/>
      <point x="378" y="203"/>
      <point x="378" y="230" type="curve" smooth="yes"/>
      <point x="378" y="284"/>
      <point x="402" y="332"/>
      <point x="453" y="370" type="curve" smooth="yes"/>
      <point x="496" y="402"/>
      <point x="541" y="425"/>
      <point x="592" y="431" type="curve"/>
      <point x="592" y="479" type="line"/>
      <point x="541" y="485"/>
      <point x="493" y="506"/>
      <point x="452" y="540" type="curve" smooth="yes"/>
      <point x="402" y="581"/>
      <point x="378" y="629"/>
      <point x="378" y="684" type="curve" smooth="yes"/>
      <point x="378" y="710"/>
      <point x="383" y="754"/>
      <point x="399" y="819" type="curve" smooth="yes"/>
      <point x="415" y="883"/>
      <point x="420" y="934"/>
      <point x="420" y="968" type="curve" smooth="yes"/>
      <point x="420" y="1061"/>
      <point x="388" y="1141"/>
      <point x="322" y="1211" type="curve" smooth="yes"/>
      <point x="258" y="1279"/>
      <point x="181" y="1318"/>
      <point x="90" y="1327" type="curve"/>
    </contour>
  </outline>
</glyph>
<glyph name="asciitilde" format="1">
  <advance width="1044"/>
  <unicode hex="007E"/>
  <outline>
    <contour>
      <point x="954" y="609" type="curve"/>
      <point x="1007" y="539" type="line"/>
      <point x="935" y="403"/>
      <point x="847" y="335"/>
      <point x="743" y="335" type="curve" smooth="yes"/>
      <point x="693" y="335"/>
      <point x="616" y="359"/>
      <point x="513" y="404" type="curve" smooth="yes"/>
      <point x="411" y="450"/>
      <point x="338" y="474"/>
      <point x="294" y="474" type="curve" smooth="yes"/>
      <point x="249" y="474"/>
      <point x="208" y="454"/>
      <point x="170" y="414" type="curve" smooth="yes"/>
      <point x="151" y="392"/>
      <point x="123" y="353"/>
      <point x="90" y="296" type="curve"/>
      <point x="37" y="364" type="line"/>
      <point x="76" y="434"/>
      <point x="110" y="484"/>
      <point x="141" y="515" type="curve" smooth="yes"/>
      <point x="189" y="562"/>
      <point x="242" y="586"/>
      <point x="303" y="586" type="curve" smooth="yes"/>
      <point x="350" y="586"/>
      <point x="428" y="562"/>
      <point x="539" y="515" type="curve" smooth="yes"/>
      <point x="650" y="467"/>
      <point x="721" y="444"/>
      <point x="753" y="444" type="curve" smooth="yes"/>
      <point x="831" y="444"/>
      <point x="899" y="499"/>
    </contour>
  </outline>
</glyph>
<glyph name="exclamdown" format="2">
  <advance width="630"/>
  <unicode hex="00A1"/>
  <outline>
    <contour>
      <point x="230" y="-441" type="curve" smooth="yes"/>
      <point x="230" y="-399"/>
      <point x="232" y="-205"/>
      <point x="234" y="-181" type="curve" smooth="yes"/>
      <point x="294" y="436" type="line" smooth="yes"/>
      <point x="296" y="458"/>
      <point x="338" y="458"/>
      <point x="340" y="436" type="curve" smooth="yes"/>
      <point x="396" y="-181" type="line"/>
      <point x="398" y="-224"/>
      <point x="401" y="-399"/>
      <point x="401" y="-441" type="curve" smooth="yes"/>
      <point x="401" y="-479"/>
      <point x="377" y="-490"/>
      <point x="314" y="-490" type="curve" smooth="yes"/>
      <point x="252" y="-490"/>
      <point x="230" y="-476"/>
    </contour>
    <contour>
      <point x="200" y="740" type="curve" smooth="yes"/>
      <point x="200" y="820"/>
      <point x="249" y="870"/>
      <point x="315" y="870" type="curve" smooth="yes"/>
      <point x="379" y="870"/>
      <point x="430" y="820"/>
      <point x="430" y="740" type="curve" smooth="yes"/>
      <point x="430" y="660"/>
      <point x="379" y="610"/>
      <point x="315" y="610" type="curve" smooth="yes"/>
      <point x="249" y="610"/>
      <point x="200" y="660"/>
    </contour>
  </outline>
</glyph>
<glyph name="cent" format="1">
  <advance width="1003"/>
  <unicode hex="00A2"/>
  <outline>
    <contour>
      <point x="584" y="888" type="curve" smooth="yes"/>
      <point x="332" y="888"/>
      <point x="171" y="691"/>
      <point x="171" y="451" type="curve" smooth="yes"/>
      <point x="171" y="197"/>
      <point x="344" y="42"/>
      <point x="557" y="42" type="curve" smooth="yes"/>
      <point x="675" y="42"/>
      <point x="751" y="69"/>
      <point x="831" y="130" type="curve"/>
      <point x="815" y="268" type="line"/>
      <point x="746" y="207"/>
      <point x="668" y="173"/>
      <point x="573" y="173" type="curve" smooth="yes"/>
      <point x="419" y="173"/>
      <point x="323" y="288"/>
      <point x="323" y="459" type="curve" smooth="yes"/>
      <point x="323" y="646"/>
      <point x="431" y="757"/>
      <point x="573" y="757" type="curve" smooth="yes"/>
      <point x="655" y="757"/>
      <point x="723" y="730"/>
      <point x="795" y="677" type="curve"/>
      <point x="823" y="820" type="line"/>
      <point x="765" y="860"/>
      <point x="691" y="888"/>
    </contour>
    <contour>
      <point x="506" y="1104" type="line"/>
      <point x="506" y="-176" type="line"/>
      <point x="614" y="-176" type="line"/>
      <point x="614" y="1104" type="line"/>
    </contour>
  </outline>
</glyph>
<glyph name="brokenbar" format="2">
  <advance width="588"/>
  <unicode hex="00A6"/>
  <outline>
    <contour>
      <point x="338" y="1354" type="line"/>
      <point x="338" y="557" type="line"/>
      <point x="250" y="557" type="line"/>
      <point x="250" y="1354" type="line"/>
    </contour>
    <contour>
      <point x="338" y="294" type="line"/>
      <point x="338" y="-503" type="line"/>
      <point x="250" y="-503" type="line"/>
      <point x="250" y="294" type="line"/>
    </contour>
  </outline>
</glyph>
<glyph name="ordfeminine" format="1">
  <advance width="675"/>
  <unicode hex="00AA"/>
  <outline>
    <contour>
      <point x="65" y="418" type="line"/>
      <point x="644" y="418" type="line"/>
      <point x="644" y="502" type="line"/>
      <point x="65" y="502" type="line"/>
    </contour>
    <contour>
      <point x="507" y="769" type="line"/>
      <point x="507" y="721"/>
      <point x="517" y="603"/>
      <point x="533" y="568" type="curve"/>
      <point x="635" y="568" type="line"/>
      <point x="613" y="630"/>
      <point x="598" y="720"/>
      <point x="598" y="856" type="curve" smooth="yes"/>
      <point x="598" y="1109" type="line"/>
      <point x="538" y="1124"/>
      <point x="460" y="1134"/>
      <point x="384" y="1134" type="curve" smooth="yes"/>
      <point x="166" y="1134"/>
      <point x="68" y="964"/>
      <point x="68" y="791" type="curve" smooth="yes"/>
      <point x="68" y="638"/>
      <point x="145" y="555"/>
      <point x="243" y="555" type="curve" smooth="yes"/>
      <point x="366" y="555"/>
      <point x="458" y="701"/>
      <point x="507" y="823" type="curve"/>
    </contour>
    <contour>
      <point x="375" y="1047" type="curve" smooth="yes"/>
      <point x="434" y="1047"/>
      <point x="470" y="1040"/>
      <point x="489" y="1036" type="curve"/>
      <point x="489" y="1001" type="line" smooth="yes"/>
      <point x="489" y="923"/>
      <point x="364" y="647"/>
      <point x="261" y="647" type="curve" smooth="yes"/>
      <point x="215" y="647"/>
      <point x="176" y="707"/>
      <point x="176" y="791" type="curve" smooth="yes"/>
      <point x="176" y="922"/>
      <point x="222" y="1047"/>
    </contour>
  </outline>
</glyph>
<glyph name="logicalnot" format="2">
  <advance width="1003"/>
  <unicode hex="00AC"/>
  <outline>
    <contour>
      <point x="890" y="284" type="line"/>
      <point x="890" y="669" type="line"/>
      <point x="92" y="669" type="line"/>
      <point x="92" y="543" type="line"/>
      <point x="765" y="543" type="line"/>
      <point x="765" y="284" type="line"/>
    </contour>
  </outline>
</glyph>
<glyph name="registered" format="2">
  <advance width="1350"/>
  <unicode hex="00AE"/>
  <outline>
    <contour>
      <point x="715" y="1241" type="curve" smooth="yes"/>
      <point x="415" y="1241"/>
      <point x="125" y="1028"/>
      <point x="125" y="610" type="curve" smooth="yes"/>
      <point x="125" y="184"/>
      <point x="415" y="-21"/>
      <point x="715" y="-21" type="curve" smooth="yes"/>
      <point x="1006" y="-21"/>
      <point x="1308" y="184"/>
      <point x="1308" y="610" type="curve" smooth="yes"/>
      <point x="1308" y="1028"/>
      <point x="1006" y="1241"/>
    </contour>
    <contour>
      <point x="715" y="1141" type="curve" smooth="yes"/>
      <point x="965" y="1141"/>
      <point x="1204" y="957"/>
      <point x="1204" y="610" type="curve" smooth="yes"/>
      <point x="1204" y="263"/>
      <point x="965" y="79"/>
      <point x="715" y="79" type="curve" smooth="yes"/>
      <point x="465" y="79"/>
      <point x="230" y="263"/>
      <point x="230" y="610" type="curve" smooth="yes"/>
      <point x="230" y="957"/>
      <point x="465" y="1141"/>
    </contour>
    <contour>
      <point x="564" y="558" type="line"/>
      <point x="668" y="558" type="line"/>
      <point x="886" y="242" type="line"/>
      <point x="1016" y="242" type="line"/>
      <point x="986" y="274"/>
      <point x="826" y="491"/>
      <point x="769" y="568" type="curve"/>
      <point x="852" y="590"/>
      <point x="941" y="650"/>
      <point x="941" y="773" type="curve" smooth="yes"/>
      <point x="941" y="920"/>
      <point x="824" y="986"/>
      <point x="665" y="986" type="curve" smooth="yes"/>
      <point x="540" y="986"/>
      <point x="456" y="978"/>
      <point x="456" y="978" type="curve"/>
      <point x="462" y="935"/>
      <point x="462" y="855"/>
      <point x="462" y="751" type="curve" smooth="yes"/>
      <point x="462" y="458" type="line" smooth="yes"/>
      <point x="462" y="354"/>
      <point x="462" y="285"/>
      <point x="456" y="242" type="curve"/>
      <point x="573" y="242" type="line"/>
      <point x="565" y="284"/>
      <point x="564" y="354"/>
      <point x="564" y="458" type="curve"/>
    </contour>
    <contour>
      <point x="564" y="896" type="line"/>
      <point x="593" y="898"/>
      <point x="624" y="900"/>
      <point x="660" y="900" type="curve" smooth="yes"/>
      <point x="783" y="900"/>
      <point x="836" y="849"/>
      <point x="836" y="765" type="curve" smooth="yes"/>
      <point x="836" y="686"/>
      <point x="773" y="641"/>
      <point x="660" y="641" type="curve"/>
      <point x="564" y="641" type="line"/>
    </contour>
  </outline>
</glyph>
<glyph name="macron" format="1">
  <advance width="594"/>
  <unicode hex="00AF"/>
  <outline>
    <contour>
      <point x="0" y="1037" type="line"/>
      <point x="594" y="1037" type="line"/>
      <point x="594" y="1162" type="line"/>
      <point x="0" y="1162" type="line"/>
    </contour>
  </outline>
</glyph>
<glyph name="degree" format="1">
  <advance width="535"/>
  <unicode hex="00B0"/>
  <outline>
    <contour>
      <point x="380" y="1032" type="curve"/>
      <point x="380" y="970"/>
      <point x="330" y="920"/>
      <point x="268" y="920" type="curve" smooth="yes"/>
      <point x="205" y="920"/>
      <point x="155" y="970"/>
      <point x="155" y="1032" type="curve" smooth="yes"/>
      <point x="155" y="1095"/>
      <point x="205" y="1145"/>
      <point x="268" y="1145" type="curve" smooth="yes"/>
      <point x="330" y="1145"/>
      <point x="380" y="1095"/>
    </contour>
    <contour>
      <point x="59" y="1032" type="curve"/>
      <point x="59" y="915"/>
      <point x="150" y="823"/>
      <point x="268" y="823" type="curve" smooth="yes"/>
      <point x="385" y="823"/>
      <point x="477" y="915"/>
      <point x="477" y="1032" type="curve" smooth="yes"/>
      <point x="477" y="1150"/>
      <point x="385" y="1241"/>
      <point x="268" y="1241" type="curve" smooth="yes"/>
      <point x="150" y="1241"/>
      <point x="59" y="1150"/>
    </contour>
  </outline>
</glyph>
<glyph name="plusminus" format="2">
  <advance width="1003"/>
  <unicode hex="00B1"/>
  <outline>
    <contour>
      <point x="130" y="698" type="line"/>
      <point x="439" y="698" type="line"/>
      <point x="439" y="393" type="line"/>
      <point x="564" y="393" type="line"/>
      <point x="564" y="698" type="line"/>
      <point x="874" y="698" type="line"/>
      <point x="874" y="823" type="line"/>
      <point x="564" y="823" type="line"/>
      <point x="564" y="1141" type="line"/>
      <point x="439" y="1141" type="line"/>
      <point x="439" y="823" type="line"/>
      <point x="130" y="823" type="line"/>
    </contour>
    <contour>
      <point x="130" y="167" type="line"/>
      <point x="874" y="167" type="line"/>
      <point x="874" y="293" type="line"/>
      <point x="130" y="293" type="line"/>
    </contour>
  </outline>
</glyph>
<glyph name="paragraph" format="2">
  <advance width="857"/>
  <unicode hex="00B6"/>
  <outline>
    <contour>
      <point x="807" y="1124" type="line"/>
      <point x="807" y="1221" type="line"/>
      <point x="368" y="1221" type="line" smooth="yes"/>
      <point x="236" y="1221"/>
      <point x="42" y="1155"/>
      <point x="42" y="930" type="curve" smooth="yes"/>
      <point x="42" y="706"/>
      <point x="237" y="640"/>
      <point x="351" y="640" type="curve"/>
      <point x="351" y="0" type="line"/>
      <point x="464" y="0" type="line"/>
      <point x="464" y="1124" type="line"/>
      <point x="598" y="1124" type="line"/>
      <point x="598" y="0" type="line"/>
      <point x="711" y="0" type="line"/>
      <point x="711" y="1124" type="line"/>
    </contour>
  </outline>
</glyph>
<glyph name="periodcentered" format="1">
  <advance width="600"/>
  <unicode hex="00B7"/>
  <outline>
    <contour>
      <point x="415" y="740" type="curve" smooth="yes"/>
      <point x="415" y="660"/>
      <point x="366" y="610"/>
      <point x="300" y="610" type="curve" smooth="yes"/>
      <point x="236" y="610"/>
      <point x="185" y="660"/>
      <point x="185" y="740" type="curve" smooth="yes"/>
      <point x="185" y="820"/>
      <point x="236" y="870"/>
      <point x="300" y="870" type="curve" smooth="yes"/>
      <point x="366" y="870"/>
      <point x="415" y="820"/>
    </contour>
  </outline>
</glyph>
<glyph name="Eth" format="2">
  <advance width="1200"/>
  <unicode hex="00D0"/>
  <anchor x="598" y="-84" name="L"/>
  <anchor x="598" y="1279" name="U"/>
  <outline>
    <contour>
      <point x="0" y="698" type="line"/>
      <point x="0" y="577" type="line"/>
      <point x="146" y="577" type="line"/>
      <point x="146" y="380" type="line" smooth="yes"/>
      <point x="146" y="215"/>
      <point x="146" y="67"/>
      <point x="134" y="0" type="curve"/>
      <point x="134" y="0"/>
      <point x="390" y="-8"/>
      <point x="497" y="-8" type="curve" smooth="yes"/>
      <point x="742" y="-8"/>
      <point x="1099" y="121"/>
      <point x="1099" y="619" type="curve" smooth="yes"/>
      <point x="1099" y="1165"/>
      <point x="693" y="1229"/>
      <point x="514" y="1229" type="curve" smooth="yes"/>
      <point x="401" y="1229"/>
      <point x="205" y="1226"/>
      <point x="134" y="1221" type="curve"/>
      <point x="146" y="1154"/>
      <point x="146" y="1000"/>
      <point x="146" y="836" type="curve" smooth="yes"/>
      <point x="146" y="698" type="line"/>
    </contour>
    <contour>
      <point x="305" y="1091" type="line"/>
      <point x="347" y="1093"/>
      <point x="438" y="1095"/>
      <point x="493" y="1095" type="curve" smooth="yes"/>
      <point x="734" y="1095"/>
      <point x="936" y="976"/>
      <point x="936" y="602" type="curve" smooth="yes"/>
      <point x="936" y="257"/>
      <point x="713" y="130"/>
      <point x="489" y="130" type="curve" smooth="yes"/>
      <point x="410" y="130"/>
      <point x="344" y="135"/>
      <point x="305" y="138" type="curve"/>
      <point x="305" y="577" type="line"/>
      <point x="623" y="577" type="line"/>
      <point x="623" y="698" type="line"/>
      <point x="305" y="698" type="line"/>
    </contour>
  </outline>
</glyph>
<glyph name="multiply" format="2">
  <advance width="1003"/>
  <unicode hex="00D7"/>
  <outline>
    <contour>
      <point x="166" y="854" type="line"/>
      <point x="415" y="604" type="line"/>
      <point x="170" y="359" type="line"/>
      <point x="258" y="270" type="line"/>
      <point x="503" y="515" type="line"/>
      <point x="745" y="274" type="line"/>
      <point x="833" y="363" type="line"/>
      <point x="592" y="604" type="line"/>
      <point x="838" y="849" type="line"/>
      <point x="749" y="938" type="line"/>
      <point x="503" y="692" type="line"/>
      <point x="254" y="942" type="line"/>
    </contour>
  </outline>
</glyph>
<glyph name="Oslash" format="1">
  <advance width="1221"/>
  <unicode hex="00D8"/>
  <outline>
    <contour>
      <point x="957" y="598" type="curve" smooth="yes"/>
      <point x="957" y="301"/>
      <point x="807" y="125"/>
      <point x="602" y="125" type="curve" smooth="yes"/>
      <point x="385" y="125"/>
      <point x="242" y="318"/>
      <point x="242" y="623" type="curve" smooth="yes"/>
      <point x="242" y="912"/>
      <point x="390" y="1095"/>
      <point x="602" y="1095" type="curve" smooth="yes"/>
      <point x="814" y="1095"/>
      <point x="957" y="906"/>
    </contour>
    <contour>
      <point x="1120" y="619" type="curve" smooth="yes"/>
      <point x="1120" y="1019"/>
      <point x="876" y="1241"/>
      <point x="610" y="1241" type="curve" smooth="yes"/>
      <point x="340" y="1241"/>
      <point x="79" y="1002"/>
      <point x="79" y="602" type="curve" smooth="yes"/>
      <point x="79" y="201"/>
      <point x="324" y="-21"/>
      <point x="594" y="-21" type="curve" smooth="yes"/>
      <point x="860" y="-21"/>
      <point x="1120" y="217"/>
    </contour>
    <contour>
      <point x="886" y="1279" type="line"/>
      <point x="163" y="-63" type="line"/>
      <point x="287" y="-63" type="line"/>
      <point x="1008" y="1279" type="line"/>
    </contour>
    <contour>
      <point x="599" y="-84" type="move" name="L"/>
    </contour>
    <contour>
      <point x="599" y="1279" type="move" name="U"/>
    </contour>
  </outline>
</glyph>
<glyph name="ae" format="2">
  <advance width="1459"/>
  <unicode hex="00E6"/>
  <anchor x="742" y="0" name="H"/>
  <anchor x="723" y="-84" name="L"/>
  <anchor x="1323" y="0" name="O"/>
  <anchor x="1459" y="836" name="R"/>
  <anchor x="723" y="920" name="U"/>
  <outline>
    <contour>
      <point x="1041" y="869" type="curve" smooth="yes"/>
      <point x="920" y="869"/>
      <point x="811" y="815"/>
      <point x="736" y="723" type="curve"/>
      <point x="677" y="822"/>
      <point x="565" y="869"/>
      <point x="451" y="869" type="curve" smooth="yes"/>
      <point x="324" y="869"/>
      <point x="262" y="831"/>
      <point x="176" y="794" type="curve"/>
      <point x="171" y="758"/>
      <point x="168" y="668"/>
      <point x="167" y="631" type="curve"/>
      <point x="265" y="700"/>
      <point x="325" y="736"/>
      <point x="414" y="736" type="curve" smooth="yes"/>
      <point x="539" y="736"/>
      <point x="631" y="695"/>
      <point x="631" y="594" type="curve" smooth="yes"/>
      <point x="631" y="523" type="line"/>
      <point x="597" y="520"/>
      <point x="463" y="517"/>
      <point x="405" y="510" type="curve" smooth="yes"/>
      <point x="156" y="476"/>
      <point x="79" y="340"/>
      <point x="79" y="213" type="curve" smooth="yes"/>
      <point x="79" y="89"/>
      <point x="194" y="-21"/>
      <point x="351" y="-21" type="curve" smooth="yes"/>
      <point x="455" y="-21"/>
      <point x="558" y="16"/>
      <point x="656" y="121" type="curve" smooth="yes"/>
      <point x="669" y="135"/>
      <point x="682" y="150"/>
      <point x="694" y="164" type="curve"/>
      <point x="767" y="42"/>
      <point x="895" y="-21"/>
      <point x="1032" y="-21" type="curve" smooth="yes"/>
      <point x="1161" y="-21"/>
      <point x="1257" y="2"/>
      <point x="1375" y="63" type="curve"/>
      <point x="1359" y="201" type="line"/>
      <point x="1257" y="139"/>
      <point x="1161" y="117"/>
      <point x="1053" y="117" type="curve" smooth="yes"/>
      <point x="902" y="117"/>
      <point x="784" y="210"/>
      <point x="777" y="405" type="curve"/>
      <point x="1371" y="405" type="line"/>
      <point x="1371" y="472" type="line"/>
      <point x="1371" y="660"/>
      <point x="1300" y="869"/>
    </contour>
    <contour>
      <point x="631" y="405" type="curve"/>
      <point x="631" y="365"/>
      <point x="636" y="327"/>
      <point x="644" y="293" type="curve"/>
      <point x="641" y="284"/>
      <point x="636" y="278"/>
      <point x="631" y="272" type="curve" smooth="yes"/>
      <point x="538" y="137"/>
      <point x="461" y="117"/>
      <point x="376" y="117" type="curve" smooth="yes"/>
      <point x="293" y="117"/>
      <point x="234" y="168"/>
      <point x="234" y="234" type="curve" smooth="yes"/>
      <point x="234" y="311"/>
      <point x="274" y="368"/>
      <point x="414" y="393" type="curve" smooth="yes"/>
      <point x="466" y="402"/>
      <point x="589" y="404"/>
    </contour>
    <contour>
      <point x="1028" y="744" type="curve" smooth="yes"/>
      <point x="1133" y="744"/>
      <point x="1221" y="666"/>
      <point x="1221" y="523" type="curve"/>
      <point x="786" y="523" type="line"/>
      <point x="813" y="674"/>
      <point x="906" y="744"/>
    </contour>
  </outline>
</glyph>
<glyph name="eth" format="2">
  <advance width="970"/>
  <unicode hex="00F0"/>
  <anchor x="478" y="-84" name="L"/>
  <anchor x="478" y="1367" name="U"/>
  <outline>
    <contour>
      <point x="79" y="407" type="curve" smooth="yes"/>
      <point x="79" y="128"/>
      <point x="239" y="-21"/>
      <point x="468" y="-21" type="curve" smooth="yes"/>
      <point x="725" y="-21"/>
      <point x="878" y="155"/>
      <point x="878" y="507" type="curve" smooth="yes"/>
      <point x="878" y="861"/>
      <point x="643" y="1214"/>
      <point x="412" y="1354" type="curve"/>
      <point x="267" y="1281" type="line"/>
      <point x="452" y="1193"/>
      <point x="645" y="951"/>
      <point x="712" y="726" type="curve"/>
      <point x="635" y="798"/>
      <point x="574" y="836"/>
      <point x="440" y="836" type="curve" smooth="yes"/>
      <point x="276" y="836"/>
      <point x="79" y="678"/>
    </contour>
    <contour>
      <point x="234" y="407" type="curve" smooth="yes"/>
      <point x="234" y="586"/>
      <point x="324" y="702"/>
      <point x="477" y="702" type="curve" smooth="yes"/>
      <point x="620" y="702"/>
      <point x="719" y="594"/>
      <point x="719" y="407" type="curve" smooth="yes"/>
      <point x="719" y="229"/>
      <point x="628" y="113"/>
      <point x="477" y="113" type="curve" smooth="yes"/>
      <point x="333" y="113"/>
      <point x="234" y="221"/>
    </contour>
    <contour>
      <point x="833" y="1242" type="line"/>
      <point x="762" y="1330" type="line"/>
      <point x="268" y="1025" type="line"/>
      <point x="338" y="935" type="line"/>
    </contour>
  </outline>
</glyph>
<glyph name="divide" format="2">
  <advance width="1003"/>
  <unicode hex="00F7"/>
  <outline>
    <contour>
      <point x="383" y="340" type="curve" smooth="yes"/>
      <point x="383" y="277"/>
      <point x="438" y="223"/>
      <point x="502" y="223" type="curve" smooth="yes"/>
      <point x="565" y="223"/>
      <point x="616" y="277"/>
      <point x="616" y="340" type="curve" smooth="yes"/>
      <point x="616" y="404"/>
      <point x="565" y="456"/>
      <point x="502" y="456" type="curve" smooth="yes"/>
      <point x="438" y="456"/>
      <point x="383" y="404"/>
    </contour>
    <contour>
      <point x="383" y="874" type="curve" smooth="yes"/>
      <point x="383" y="810"/>
      <point x="438" y="757"/>
      <point x="502" y="757" type="curve" smooth="yes"/>
      <point x="565" y="757"/>
      <point x="616" y="810"/>
      <point x="616" y="874" type="curve" smooth="yes"/>
      <point x="616" y="937"/>
      <point x="565" y="990"/>
      <point x="502" y="990" type="curve" smooth="yes"/>
      <point x="438" y="990"/>
      <point x="383" y="937"/>
    </contour>
    <contour>
      <point x="130" y="543" type="line"/>
      <point x="874" y="543" type="line"/>
      <point x="874" y="669" type="line"/>
      <point x="130" y="669" type="line"/>
    </contour>
  </outline>
</glyph>
<glyph name="oslash" format="1">
  <advance width="953"/>
  <unicode hex="00F8"/>
  <outline>
    <contour>
      <point x="79" y="424" type="curve" smooth="yes"/>
      <point x="79" y="136"/>
      <point x="239" y="-21"/>
      <point x="468" y="-21" type="curve" smooth="yes"/>
      <point x="688" y="-21"/>
      <point x="874" y="136"/>
      <point x="874" y="424" type="curve" smooth="yes"/>
      <point x="874" y="711"/>
      <point x="715" y="869"/>
      <point x="485" y="869" type="curve" smooth="yes"/>
      <point x="265" y="869"/>
      <point x="79" y="711"/>
    </contour>
    <contour>
      <point x="234" y="424" type="curve" smooth="yes"/>
      <point x="234" y="619"/>
      <point x="341" y="736"/>
      <point x="477" y="736" type="curve" smooth="yes"/>
      <point x="620" y="736"/>
      <point x="719" y="619"/>
      <point x="719" y="424" type="curve" smooth="yes"/>
      <point x="719" y="229"/>
      <point x="611" y="113"/>
      <point x="477" y="113" type="curve" smooth="yes"/>
      <point x="333" y="113"/>
      <point x="234" y="229"/>
    </contour>
    <contour>
      <point x="670" y="924" type="line"/>
      <point x="138" y="-63" type="line"/>
      <point x="262" y="-63" type="line"/>
      <point x="793" y="924" type="line"/>
    </contour>
    <contour>
      <point x="477" y="0" type="move" name="H"/>
    </contour>
    <contour>
      <point x="477" y="-84" type="move" name="L"/>
    </contour>
    <contour>
      <point x="701" y="0" type="move" name="O"/>
    </contour>
    <contour>
      <point x="953" y="836" type="move" name="R"/>
    </contour>
    <contour>
      <point x="477" y="920" type="move" name="U"/>
    </contour>
  </outline>
</glyph>
<glyph name="thorn" format="1">
  <advance width="978"/>
  <unicode hex="00FE"/>
  <outline>
    <contour>
      <point x="113" y="1338" type="line"/>
      <point x="124" y="1241"/>
      <point x="130" y="1107"/>
      <point x="130" y="945" type="curve" smooth="yes"/>
      <point x="130" y="-410" type="line"/>
      <point x="305" y="-410" type="line"/>
      <point x="291" y="-339"/>
      <point x="284" y="-259"/>
      <point x="284" y="-125" type="curve" smooth="yes"/>
      <point x="284" y="-54"/>
      <point x="284" y="-26"/>
      <point x="284" y="71" type="curve"/>
      <point x="364" y="15"/>
      <point x="429" y="-21"/>
      <point x="518" y="-21" type="curve" smooth="yes"/>
      <point x="728" y="-21"/>
      <point x="899" y="161"/>
      <point x="899" y="447" type="curve" smooth="yes"/>
      <point x="899" y="692"/>
      <point x="772" y="869"/>
      <point x="581" y="869" type="curve" smooth="yes"/>
      <point x="457" y="869"/>
      <point x="349" y="793"/>
      <point x="284" y="710" type="curve"/>
      <point x="284" y="1338" type="line"/>
    </contour>
    <contour>
      <point x="284" y="481" type="line"/>
      <point x="346" y="642"/>
      <point x="456" y="727"/>
      <point x="552" y="727" type="curve" smooth="yes"/>
      <point x="672" y="727"/>
      <point x="744" y="608"/>
      <point x="744" y="422" type="curve" smooth="yes"/>
      <point x="744" y="233"/>
      <point x="636" y="117"/>
      <point x="518" y="117" type="curve" smooth="yes"/>
      <point x="441" y="117"/>
      <point x="399" y="137"/>
      <point x="284" y="217" type="curve"/>
    </contour>
    <contour>
      <point x="493" y="-418" type="move" name="L"/>
    </contour>
    <contour>
      <point x="518" y="1367" type="move" name="U"/>
    </contour>
  </outline>
</glyph>
<glyph name="idotless" format="2">
  <advance width="472"/>
  <unicode hex="0131"/>
  <anchor x="238" y="0" name="H"/>
  <anchor x="238" y="-84" name="L"/>
  <anchor x="435" y="0" name="O"/>
  <anchor x="460" y="836" name="R"/>
  <anchor x="238" y="920" name="U"/>
  <outline>
    <contour>
      <point x="314" y="853" type="line"/>
      <point x="146" y="853" type="line"/>
      <point x="157" y="765"/>
      <point x="159" y="606"/>
      <point x="159" y="443" type="curve" smooth="yes"/>
      <point x="159" y="281"/>
      <point x="159" y="0"/>
      <point x="159" y="0" type="curve"/>
      <point x="330" y="0" type="line"/>
      <point x="319" y="89"/>
      <point x="314" y="289"/>
      <point x="314" y="397" type="curve" smooth="yes"/>
    </contour>
  </outline>
</glyph>
<glyph name="OE" format="1">
  <advance width="1630"/>
  <unicode hex="0152"/>
  <outline>
    <contour>
      <point x="1530" y="0" type="line"/>
      <point x="1530" y="150" type="line"/>
      <point x="1463" y="139"/>
      <point x="1351" y="138"/>
      <point x="1186" y="138" type="curve" smooth="yes"/>
      <point x="1049" y="138" type="line"/>
      <point x="1049" y="573" type="line"/>
      <point x="1442" y="573" type="line"/>
      <point x="1442" y="706" type="line"/>
      <point x="1049" y="706" type="line"/>
      <point x="1049" y="1083" type="line"/>
      <point x="1505" y="1083" type="line"/>
      <point x="1505" y="1221" type="line"/>
      <point x="890" y="1221" type="line"/>
      <point x="890" y="1083" type="line"/>
      <point x="816" y="1176"/>
      <point x="713" y="1241"/>
      <point x="577" y="1241" type="curve" smooth="yes"/>
      <point x="315" y="1241"/>
      <point x="79" y="1002"/>
      <point x="79" y="602" type="curve" smooth="yes"/>
      <point x="79" y="201"/>
      <point x="299" y="-21"/>
      <point x="560" y="-21" type="curve" smooth="yes"/>
      <point x="685" y="-21"/>
      <point x="803" y="42"/>
      <point x="890" y="138" type="curve"/>
      <point x="890" y="0" type="line"/>
    </contour>
    <contour>
      <point x="899" y="598" type="curve" smooth="yes"/>
      <point x="899" y="301"/>
      <point x="773" y="125"/>
      <point x="568" y="125" type="curve" smooth="yes"/>
      <point x="368" y="125"/>
      <point x="242" y="318"/>
      <point x="242" y="623" type="curve" smooth="yes"/>
      <point x="242" y="912"/>
      <point x="374" y="1095"/>
      <point x="568" y="1095" type="curve" smooth="yes"/>
      <point x="781" y="1095"/>
      <point x="899" y="906"/>
    </contour>
    <contour>
      <point x="804" y="-84" type="move" name="L"/>
    </contour>
    <contour>
      <point x="804" y="1279" type="move" name="U"/>
    </contour>
  </outline>
</glyph>
<glyph name="oe" format="1">
  <advance width="1555"/>
  <unicode hex="0153"/>
  <outline>
    <contour>
      <point x="79" y="424" type="curve" smooth="yes"/>
      <point x="79" y="136"/>
      <point x="239" y="-21"/>
      <point x="468" y="-21" type="curve" smooth="yes"/>
      <point x="600" y="-21"/>
      <point x="720" y="36"/>
      <point x="794" y="144" type="curve"/>
      <point x="869" y="35"/>
      <point x="990" y="-21"/>
      <point x="1120" y="-21" type="curve" smooth="yes"/>
      <point x="1249" y="-21"/>
      <point x="1353" y="2"/>
      <point x="1471" y="63" type="curve"/>
      <point x="1455" y="201" type="line"/>
      <point x="1353" y="139"/>
      <point x="1249" y="117"/>
      <point x="1141" y="117" type="curve" smooth="yes"/>
      <point x="990" y="117"/>
      <point x="879" y="210"/>
      <point x="874" y="405" type="curve"/>
      <point x="1466" y="405" type="line"/>
      <point x="1467" y="421"/>
      <point x="1467" y="456"/>
      <point x="1467" y="471" type="curve" smooth="yes"/>
      <point x="1467" y="659"/>
      <point x="1396" y="869"/>
      <point x="1120" y="869" type="curve" smooth="yes"/>
      <point x="979" y="869"/>
      <point x="869" y="811"/>
      <point x="799" y="710" type="curve"/>
      <point x="732" y="814"/>
      <point x="620" y="869"/>
      <point x="485" y="869" type="curve" smooth="yes"/>
      <point x="265" y="869"/>
      <point x="79" y="711"/>
    </contour>
    <contour>
      <point x="234" y="424" type="curve" smooth="yes"/>
      <point x="234" y="619"/>
      <point x="341" y="736"/>
      <point x="477" y="736" type="curve" smooth="yes"/>
      <point x="620" y="736"/>
      <point x="719" y="619"/>
      <point x="719" y="424" type="curve" smooth="yes"/>
      <point x="719" y="229"/>
      <point x="611" y="113"/>
      <point x="477" y="113" type="curve" smooth="yes"/>
      <point x="333" y="113"/>
      <point x="234" y="229"/>
    </contour>
    <contour>
      <point x="1108" y="744" type="curve" smooth="yes"/>
      <point x="1229" y="744"/>
      <point x="1317" y="666"/>
      <point x="1317" y="523" type="curve"/>
      <point x="880" y="523" type="line"/>
      <point x="905" y="674"/>
      <point x="986" y="744"/>
    </contour>
    <contour>
      <point x="827" y="0" type="move" name="H"/>
    </contour>
    <contour>
      <point x="798" y="-84" type="move" name="L"/>
    </contour>
    <contour>
      <point x="1407" y="0" type="move" name="O"/>
    </contour>
    <contour>
      <point x="1555" y="836" type="move" name="R"/>
    </contour>
    <contour>
      <point x="798" y="920" type="move" name="U"/>
    </contour>
  </outline>
</glyph>
<glyph name="florin" format="2">
  <advance width="610"/>
  <unicode hex="0192"/>
  <anchor x="248" y="-418" name="L"/>
  <anchor x="451" y="1367" name="U"/>
  <outline>
    <contour>
      <point x="17" y="711" type="line"/>
      <point x="564" y="711" type="line"/>
      <point x="564" y="832" type="line"/>
      <point x="17" y="832" type="line"/>
    </contour>
    <contour>
      <point x="656" y="1296" type="line"/>
      <point x="604" y="1333"/>
      <point x="538" y="1354"/>
      <point x="472" y="1354" type="curve" smooth="yes"/>
      <point x="292" y="1354"/>
      <point x="184" y="1229"/>
      <point x="184" y="978" type="curve" smooth="yes"/>
      <point x="184" y="909"/>
      <point x="184" y="65"/>
      <point x="184" y="-21" type="curve" smooth="yes"/>
      <point x="184" y="-186"/>
      <point x="121" y="-251"/>
      <point x="32" y="-251" type="curve" smooth="yes"/>
      <point x="-15" y="-251"/>
      <point x="-93" y="-228"/>
      <point x="-130" y="-201" type="curve"/>
      <point x="-159" y="-339" type="line"/>
      <point x="-109" y="-373"/>
      <point x="-23" y="-393"/>
      <point x="24" y="-393" type="curve" smooth="yes"/>
      <point x="215" y="-393"/>
      <point x="339" y="-291"/>
      <point x="339" y="21" type="curve" smooth="yes"/>
      <point x="339" y="613"/>
      <point x="339" y="812"/>
      <point x="339" y="1012" type="curve" smooth="yes"/>
      <point x="339" y="1163"/>
      <point x="385" y="1221"/>
      <point x="472" y="1221" type="curve" smooth="yes"/>
      <point x="521" y="1221"/>
      <point x="576" y="1201"/>
      <point x="618" y="1170" type="curve"/>
    </contour>
  </outline>
</glyph>
<glyph name="circumflex" format="1">
  <advance width="727"/>
  <unicode hex="02C6"/>
  <outline>
    <contour>
      <point x="134" y="978" type="line"/>
      <point x="364" y="1212" type="line"/>
      <point x="594" y="978" type="line"/>
      <point x="719" y="978" type="line"/>
      <point x="435" y="1338" type="line"/>
      <point x="293" y="1338" type="line"/>
      <point x="8" y="978" type="line"/>
    </contour>
  </outline>
</glyph>
<glyph name="caron" format="2">
  <advance width="711"/>
  <unicode hex="02C7"/>
  <anchor x="355" y="1367" name="U"/>
  <outline>
    <contour>
      <point x="0" y="1338" type="line"/>
      <point x="284" y="978" type="line"/>
      <point x="426" y="978" type="line"/>
      <point x="711" y="1338" type="line"/>
      <point x="585" y="1338" type="line"/>
      <point x="355" y="1104" type="line"/>
      <point x="125" y="1338" type="line"/>
    </contour>
  </outline>
</glyph>
<glyph name="breve" format="2">
  <advance width="627"/>
  <unicode hex="02D8"/>
  <anchor x="314" y="1367" name="U"/>
  <outline>
    <contour>
      <point x="627" y="1296" type="curve"/>
      <point x="525" y="1296" type="line"/>
      <point x="508" y="1183"/>
      <point x="423" y="1087"/>
      <point x="314" y="1087" type="curve" smooth="yes"/>
      <point x="205" y="1087"/>
      <point x="114" y="1183"/>
      <point x="100" y="1296" type="curve"/>
      <point x="0" y="1296" type="line"/>
      <point x="0" y="1134"/>
      <point x="117" y="961"/>
      <point x="314" y="961" type="curve" smooth="yes"/>
      <point x="508" y="961"/>
      <point x="627" y="1134"/>
    </contour>
  </outline>
</glyph>
<glyph name="dotaccent" format="2">
  <advance width="226"/>
  <unicode hex="02D9"/>
  <outline>
    <contour>
      <point x="0" y="1124" type="curve" smooth="yes"/>
      <point x="0" y="1063"/>
      <point x="51" y="1012"/>
      <point x="113" y="1012" type="curve" smooth="yes"/>
      <point x="175" y="1012"/>
      <point x="226" y="1063"/>
      <point x="226" y="1124" type="curve" smooth="yes"/>
      <point x="226" y="1186"/>
      <point x="175" y="1237"/>
      <point x="113" y="1237" type="curve" smooth="yes"/>
      <point x="51" y="1237"/>
      <point x="0" y="1186"/>
    </contour>
  </outline>
</glyph>
<glyph name="tilde" format="2">
  <advance width="594"/>
  <unicode hex="02DC"/>
  <outline>
    <contour>
      <point x="0" y="1007" type="curve"/>
      <point x="88" y="1007" type="line"/>
      <point x="92" y="1048"/>
      <point x="118" y="1078"/>
      <point x="159" y="1078" type="curve" smooth="yes"/>
      <point x="190" y="1078"/>
      <point x="224" y="1067"/>
      <point x="288" y="1035" type="curve" smooth="yes"/>
      <point x="338" y="1010"/>
      <point x="384" y="995"/>
      <point x="428" y="995" type="curve" smooth="yes"/>
      <point x="531" y="995"/>
      <point x="594" y="1097"/>
      <point x="594" y="1204" type="curve"/>
      <point x="506" y="1204" type="line"/>
      <point x="500" y="1165"/>
      <point x="474" y="1133"/>
      <point x="435" y="1133" type="curve" smooth="yes"/>
      <point x="400" y="1133"/>
      <point x="365" y="1147"/>
      <point x="305" y="1173" type="curve" smooth="yes"/>
      <point x="247" y="1198"/>
      <point x="205" y="1216"/>
      <point x="161" y="1216" type="curve" smooth="yes"/>
      <point x="61" y="1216"/>
      <point x="0" y="1109"/>
    </contour>
  </outline>
</glyph>
<glyph name="hungarumlaut" format="2">
  <advance width="660"/>
  <unicode hex="02DD"/>
  <outline>
    <contour>
      <point x="485" y="1338" type="line"/>
      <point x="284" y="961" type="line"/>
      <point x="401" y="961" type="line"/>
      <point x="660" y="1338" type="line"/>
    </contour>
    <contour>
      <point x="201" y="1338" type="line"/>
      <point x="0" y="961" type="line"/>
      <point x="117" y="961" type="line"/>
      <point x="376" y="1338" type="line"/>
    </contour>
  </outline>
</glyph>
<glyph name="gravecomb" format="2">
  <advance width="0"/>
  <unicode hex="0300"/>
  <anchor x="-460" y="1367" name="U"/>
  <anchor x="-460" y="920" name="_U"/>
  <outline>
    <contour>
      <point x="-786" y="1338" type="line"/>
      <point x="-435" y="978" type="line"/>
      <point x="-301" y="978" type="line"/>
      <point x="-594" y="1338" type="line"/>
    </contour>
  </outline>
</glyph>
<glyph name="acutecomb" format="2">
  <unicode hex="0301"/>
  <anchor x="-477" y="1367" name="U"/>
  <anchor x="-477" y="920" name="_U"/>
  <outline>
    <contour>
      <point x="-334" y="1338" type="line"/>
      <point x="-627" y="978" type="line"/>
      <point x="-493" y="978" type="line"/>
      <point x="-142" y="1338" type="line"/>
    </contour>
  </outline>
</glyph>
<glyph name="circumflexcomb" format="1">
  <advance width="0"/>
  <unicode hex="0302"/>
  <outline>
    <contour>
      <point x="-706" y="978" type="line"/>
      <point x="-477" y="1212" type="line"/>
      <point x="-247" y="978" type="line"/>
      <point x="-121" y="978" type="line"/>
      <point x="-405" y="1338" type="line"/>
      <point x="-548" y="1338" type="line"/>
      <point x="-832" y="978" type="line"/>
    </contour>
    <contour>
      <point x="-477" y="1367" type="move" name="U"/>
    </contour>
    <contour>
      <point x="-477" y="920" type="move" name="_U"/>
    </contour>
  </outline>
</glyph>
<glyph name="tildecomb" format="2">
  <unicode hex="0303"/>
  <anchor x="-485" y="1246" name="U"/>
  <anchor x="-485" y="920" name="_U"/>
  <outline>
    <contour>
      <point x="-773" y="1007" type="curve"/>
      <point x="-685" y="1007" type="line"/>
      <point x="-681" y="1048"/>
      <point x="-655" y="1078"/>
      <point x="-614" y="1078" type="curve" smooth="yes"/>
      <point x="-583" y="1078"/>
      <point x="-549" y="1067"/>
      <point x="-485" y="1035" type="curve" smooth="yes"/>
      <point x="-435" y="1010"/>
      <point x="-389" y="995"/>
      <point x="-345" y="995" type="curve" smooth="yes"/>
      <point x="-242" y="995"/>
      <point x="-179" y="1097"/>
      <point x="-179" y="1204" type="curve"/>
      <point x="-267" y="1204" type="line"/>
      <point x="-273" y="1165"/>
      <point x="-299" y="1133"/>
      <point x="-338" y="1133" type="curve" smooth="yes"/>
      <point x="-373" y="1133"/>
      <point x="-408" y="1147"/>
      <point x="-468" y="1173" type="curve" smooth="yes"/>
      <point x="-526" y="1198"/>
      <point x="-568" y="1216"/>
      <point x="-612" y="1216" type="curve" smooth="yes"/>
      <point x="-712" y="1216"/>
      <point x="-773" y="1109"/>
    </contour>
  </outline>
</glyph>
<glyph name="dieresiscomb" format="2">
  <unicode hex="0308"/>
  <anchor x="-477" y="1258" name="U"/>
  <anchor x="-477" y="920" name="_U"/>
  <outline>
    <contour>
      <point x="-410" y="1124" type="curve" smooth="yes"/>
      <point x="-410" y="1063"/>
      <point x="-363" y="1012"/>
      <point x="-301" y="1012" type="curve" smooth="yes"/>
      <point x="-238" y="1012"/>
      <point x="-192" y="1063"/>
      <point x="-192" y="1124" type="curve" smooth="yes"/>
      <point x="-192" y="1186"/>
      <point x="-238" y="1237"/>
      <point x="-301" y="1237" type="curve" smooth="yes"/>
      <point x="-363" y="1237"/>
      <point x="-410" y="1186"/>
    </contour>
    <contour>
      <point x="-761" y="1124" type="curve" smooth="yes"/>
      <point x="-761" y="1063"/>
      <point x="-714" y="1012"/>
      <point x="-652" y="1012" type="curve" smooth="yes"/>
      <point x="-589" y="1012"/>
      <point x="-543" y="1063"/>
      <point x="-543" y="1124" type="curve" smooth="yes"/>
      <point x="-543" y="1186"/>
      <point x="-589" y="1237"/>
      <point x="-652" y="1237" type="curve" smooth="yes"/>
      <point x="-714" y="1237"/>
      <point x="-761" y="1186"/>
    </contour>
  </outline>
</glyph>
<glyph name="caroncomb" format="2">
  <advance width="0"/>
  <unicode hex="030C"/>
  <anchor x="-477" y="1367" name="U"/>
  <anchor x="-477" y="920" name="_U"/>
  <outline>
    <contour>
      <point x="-832" y="1338" type="line"/>
      <point x="-548" y="978" type="line"/>
      <point x="-405" y="978" type="line"/>
      <point x="-121" y="1338" type="line"/>
      <point x="-247" y="1338" type="line"/>
      <point x="-477" y="1104" type="line"/>
      <point x="-706" y="1338" type="line"/>
    </contour>
  </outline>
</glyph>
<glyph name="cedillacomb" format="1">
  <advance width="0"/>
  <unicode hex="0327"/>
  <outline>
    <contour>
      <point x="-539" y="42" type="line"/>
      <point x="-539" y="-171" type="line"/>
      <point x="-522" y="-161"/>
      <point x="-492" y="-150"/>
      <point x="-466" y="-150" type="curve" smooth="yes"/>
      <point x="-421" y="-150"/>
      <point x="-385" y="-182"/>
      <point x="-385" y="-226" type="curve"/>
      <point x="-387" y="-288"/>
      <point x="-447" y="-309"/>
      <point x="-497" y="-309" type="curve" smooth="yes"/>
      <point x="-533" y="-309"/>
      <point x="-557" y="-302"/>
      <point x="-581" y="-284" type="curve"/>
      <point x="-589" y="-368" type="line"/>
      <point x="-555" y="-387"/>
      <point x="-520" y="-401"/>
      <point x="-477" y="-401" type="curve" smooth="yes"/>
      <point x="-377" y="-401"/>
      <point x="-263" y="-331"/>
      <point x="-263" y="-217" type="curve" smooth="yes"/>
      <point x="-263" y="-135"/>
      <point x="-319" y="-75"/>
      <point x="-395" y="-75" type="curve" smooth="yes"/>
      <point x="-413" y="-75"/>
      <point x="-424" y="-77"/>
      <point x="-435" y="-79" type="curve"/>
      <point x="-435" y="42" type="line"/>
    </contour>
    <contour>
      <point x="-510" y="-435" type="move" name="L"/>
    </contour>
    <contour>
      <point x="-477" y="0" type="move" name="_H"/>
    </contour>
  </outline>
</glyph>
<glyph name="Pi" format="2">
  <advance width="1183"/>
  <unicode hex="03A0"/>
  <outline>
    <contour>
      <point x="857" y="1083" type="line"/>
      <point x="857" y="0" type="line"/>
      <point x="1028" y="0" type="line"/>
      <point x="1016" y="67"/>
      <point x="1016" y="195"/>
      <point x="1016" y="359" type="curve" smooth="yes"/>
      <point x="1016" y="857" type="line" smooth="yes"/>
      <point x="1016" y="1022"/>
      <point x="1016" y="1154"/>
      <point x="1028" y="1221" type="curve"/>
      <point x="134" y="1221" type="line"/>
      <point x="146" y="1154"/>
      <point x="146" y="1022"/>
      <point x="146" y="857" type="curve" smooth="yes"/>
      <point x="146" y="359" type="line" smooth="yes"/>
      <point x="146" y="195"/>
      <point x="146" y="67"/>
      <point x="134" y="0" type="curve"/>
      <point x="305" y="0" type="line"/>
      <point x="305" y="1083" type="line"/>
    </contour>
  </outline>
</glyph>
<glyph name="mu" format="1">
  <advance width="991"/>
  <unicode hex="03BC"/>
  <outline>
    <contour>
      <point x="911" y="0" type="line"/>
      <point x="876" y="94"/>
      <point x="857" y="214"/>
      <point x="857" y="376" type="curve" smooth="yes"/>
      <point x="857" y="540"/>
      <point x="857" y="853"/>
      <point x="857" y="853" type="curve"/>
      <point x="686" y="853" type="line"/>
      <point x="701" y="751"/>
      <point x="702" y="696"/>
      <point x="702" y="585" type="curve" smooth="yes"/>
      <point x="702" y="351" type="line"/>
      <point x="666" y="247"/>
      <point x="555" y="117"/>
      <point x="472" y="117" type="curve" smooth="yes"/>
      <point x="379" y="117"/>
      <point x="284" y="199"/>
      <point x="284" y="389" type="curve" smooth="yes"/>
      <point x="284" y="504"/>
      <point x="284" y="853"/>
      <point x="284" y="853" type="curve"/>
      <point x="113" y="853" type="line"/>
      <point x="128" y="752"/>
      <point x="130" y="691"/>
      <point x="130" y="585" type="curve" smooth="yes"/>
      <point x="130" y="569"/>
      <point x="130" y="354"/>
      <point x="130" y="339" type="curve" smooth="yes"/>
      <point x="130" y="-410" type="line"/>
      <point x="305" y="-410" type="line"/>
      <point x="291" y="-339"/>
      <point x="284" y="-259"/>
      <point x="284" y="-125" type="curve"/>
      <point x="284" y="67" type="line"/>
      <point x="315" y="23"/>
      <point x="379" y="-21"/>
      <point x="456" y="-21" type="curve" smooth="yes"/>
      <point x="563" y="-21"/>
      <point x="670" y="84"/>
      <point x="723" y="167" type="curve"/>
      <point x="732" y="105"/>
      <point x="753" y="38"/>
      <point x="769" y="0" type="curve"/>
    </contour>
  </outline>
</glyph>
<glyph name="pi" format="2">
  <advance width="1099"/>
  <unicode hex="03C0"/>
  <anchor x="543" y="-84" name="L"/>
  <anchor x="543" y="920" name="U"/>
  <outline>
    <contour>
      <point x="1037" y="732" type="line"/>
      <point x="1037" y="853" type="line"/>
      <point x="50" y="853" type="line"/>
      <point x="50" y="732" type="line"/>
      <point x="222" y="732" type="line"/>
      <point x="222" y="0" type="line"/>
      <point x="376" y="0" type="line"/>
      <point x="376" y="732" type="line"/>
      <point x="711" y="732" type="line"/>
      <point x="711" y="523" type="line"/>
      <point x="711" y="397"/>
      <point x="711" y="275"/>
      <point x="715" y="198" type="curve" smooth="yes"/>
      <point x="719" y="115"/>
      <point x="727" y="51"/>
      <point x="748" y="0" type="curve"/>
      <point x="911" y="0" type="line"/>
      <point x="876" y="94"/>
      <point x="865" y="172"/>
      <point x="865" y="334" type="curve"/>
      <point x="865" y="732" type="line"/>
    </contour>
  </outline>
</glyph>
<glyph name="uni1980" format="2">
  <advance width="1669"/>
  <unicode hex="1980"/>
  <outline>
    <contour>
      <point x="468" y="-20" type="curve" smooth="yes"/>
      <point x="707" y="-20"/>
      <point x="879" y="137"/>
      <point x="879" y="422" type="curve" smooth="yes"/>
      <point x="879" y="691"/>
      <point x="706" y="870"/>
      <point x="458" y="870" type="curve" smooth="yes"/>
      <point x="321" y="870"/>
      <point x="203" y="815"/>
      <point x="103" y="687" type="curve" smooth="yes"/>
      <point x="100" y="683"/>
      <point x="98" y="679"/>
      <point x="98" y="675" type="curve" smooth="yes"/>
      <point x="98" y="668"/>
      <point x="102" y="661"/>
      <point x="108" y="657" type="curve"/>
      <point x="173" y="607" type="line"/>
      <point x="177" y="604"/>
      <point x="181" y="603"/>
      <point x="185" y="603" type="curve" smooth="yes"/>
      <point x="191" y="603"/>
      <point x="197" y="606"/>
      <point x="201" y="612" type="curve" smooth="yes"/>
      <point x="277" y="712"/>
      <point x="354" y="753"/>
      <point x="458" y="753" type="curve" smooth="yes"/>
      <point x="619" y="753"/>
      <point x="762" y="645"/>
      <point x="762" y="422" type="curve" smooth="yes"/>
      <point x="762" y="186"/>
      <point x="614" y="97"/>
      <point x="468" y="97" type="curve" smooth="yes"/>
      <point x="364" y="97"/>
      <point x="286" y="137"/>
      <point x="210" y="237" type="curve" smooth="yes"/>
      <point x="206" y="243"/>
      <point x="200" y="247"/>
      <point x="193" y="247" type="curve" smooth="yes"/>
      <point x="190" y="247"/>
      <point x="186" y="246"/>
      <point x="182" y="243" type="curve" smooth="yes"/>
      <point x="118" y="193" type="line" smooth="yes"/>
      <point x="112" y="188"/>
      <point x="108" y="181"/>
      <point x="108" y="174" type="curve" smooth="yes"/>
      <point x="108" y="170"/>
      <point x="109" y="166"/>
      <point x="112" y="163" type="curve" smooth="yes"/>
      <point x="212" y="35"/>
      <point x="330" y="-20"/>
    </contour>
    <contour>
      <point x="1566" y="449" type="curve" smooth="yes"/>
      <point x="1566" y="722"/>
      <point x="1390" y="870"/>
      <point x="1131" y="870" type="curve" smooth="yes"/>
      <point x="939" y="870"/>
      <point x="815" y="761"/>
      <point x="734" y="676" type="curve"/>
      <point x="732" y="673"/>
      <point x="730" y="669"/>
      <point x="730" y="665" type="curve" smooth="yes"/>
      <point x="730" y="658"/>
      <point x="734" y="651"/>
      <point x="740" y="646" type="curve" smooth="yes"/>
      <point x="795" y="596" type="line" smooth="yes"/>
      <point x="798" y="593"/>
      <point x="802" y="592"/>
      <point x="805" y="592" type="curve" smooth="yes"/>
      <point x="812" y="592"/>
      <point x="818" y="596"/>
      <point x="823" y="601" type="curve" smooth="yes"/>
      <point x="901" y="683"/>
      <point x="1007" y="753"/>
      <point x="1131" y="753" type="curve" smooth="yes"/>
      <point x="1296" y="753"/>
      <point x="1449" y="655"/>
      <point x="1449" y="449" type="curve" smooth="yes"/>
      <point x="1449" y="281"/>
      <point x="1306" y="117"/>
      <point x="1082" y="117" type="curve" smooth="yes"/>
      <point x="1072" y="117"/>
      <point x="1063" y="110"/>
      <point x="1063" y="100" type="curve" smooth="yes"/>
      <point x="1063" y="53" type="line" smooth="yes"/>
      <point x="1063" y="45"/>
      <point x="1072" y="37"/>
      <point x="1082" y="37" type="curve" smooth="yes"/>
      <point x="1414" y="37"/>
      <point x="1566" y="223"/>
    </contour>
    <contour>
      <point x="1571" y="-276" type="curve" smooth="yes"/>
      <point x="1571" y="-30"/>
      <point x="1412" y="117"/>
      <point x="1085" y="117" type="curve"/>
      <point x="1085" y="37" type="line"/>
      <point x="1257" y="37"/>
      <point x="1454" y="-54"/>
      <point x="1454" y="-276" type="curve" smooth="yes"/>
      <point x="1454" y="-510"/>
      <point x="1249" y="-594"/>
      <point x="1084" y="-594" type="curve" smooth="yes"/>
      <point x="900" y="-594"/>
      <point x="775" y="-496"/>
      <point x="724" y="-393" type="curve" smooth="yes"/>
      <point x="720" y="-385"/>
      <point x="711" y="-378"/>
      <point x="704" y="-378" type="curve" smooth="yes"/>
      <point x="703" y="-378"/>
      <point x="701" y="-379"/>
      <point x="700" y="-379" type="curve" smooth="yes"/>
      <point x="670" y="-389" type="line" smooth="yes"/>
      <point x="662" y="-392"/>
      <point x="656" y="-400"/>
      <point x="656" y="-408" type="curve" smooth="yes"/>
      <point x="656" y="-410"/>
      <point x="657" y="-412"/>
      <point x="657" y="-413" type="curve" smooth="yes"/>
      <point x="704" y="-537"/>
      <point x="870" y="-692"/>
      <point x="1084" y="-692" type="curve" smooth="yes"/>
      <point x="1324" y="-692"/>
      <point x="1571" y="-559"/>
    </contour>
  </outline>
</glyph>
<glyph name="uni1981" format="1">
  <advance width="1669"/>
  <unicode hex="1981"/>
  <outline>
    <contour>
      <point x="468" y="-20" type="curve" smooth="yes"/>
      <point x="330" y="-20"/>
      <point x="212" y="35"/>
      <point x="112" y="163" type="curve" smooth="yes"/>
      <point x="105" y="172"/>
      <point x="108" y="185"/>
      <point x="118" y="193" type="curve" smooth="yes"/>
      <point x="182" y="243" type="line" smooth="yes"/>
      <point x="192" y="251"/>
      <point x="204" y="247"/>
      <point x="210" y="237" type="curve" smooth="yes"/>
      <point x="286" y="137"/>
      <point x="364" y="97"/>
      <point x="468" y="97" type="curve" smooth="yes"/>
      <point x="614" y="97"/>
      <point x="762" y="186"/>
      <point x="762" y="422" type="curve" smooth="yes"/>
      <point x="762" y="645"/>
      <point x="619" y="753"/>
      <point x="458" y="753" type="curve" smooth="yes"/>
      <point x="354" y="753"/>
      <point x="277" y="712"/>
      <point x="201" y="612" type="curve" smooth="yes"/>
      <point x="194" y="603"/>
      <point x="183" y="600"/>
      <point x="173" y="607" type="curve"/>
      <point x="108" y="657" type="line"/>
      <point x="98" y="664"/>
      <point x="95" y="678"/>
      <point x="103" y="687" type="curve" smooth="yes"/>
      <point x="203" y="815"/>
      <point x="321" y="870"/>
      <point x="458" y="870" type="curve" smooth="yes"/>
      <point x="706" y="870"/>
      <point x="879" y="691"/>
      <point x="879" y="422" type="curve" smooth="yes"/>
      <point x="879" y="137"/>
      <point x="707" y="-20"/>
    </contour>
    <contour>
      <point x="823" y="601" type="curve" smooth="yes"/>
      <point x="816" y="593"/>
      <point x="804" y="588"/>
      <point x="795" y="596" type="curve" smooth="yes"/>
      <point x="740" y="646" type="line" smooth="yes"/>
      <point x="731" y="654"/>
      <point x="727" y="667"/>
      <point x="734" y="676" type="curve"/>
      <point x="815" y="761"/>
      <point x="939" y="870"/>
      <point x="1131" y="870" type="curve" smooth="yes"/>
      <point x="1390" y="870"/>
      <point x="1566" y="722"/>
      <point x="1566" y="449" type="curve" smooth="yes"/>
      <point x="1566" y="223"/>
      <point x="1414" y="38"/>
      <point x="1082" y="37" type="curve" smooth="yes"/>
      <point x="1072" y="37"/>
      <point x="1063" y="45"/>
      <point x="1063" y="53" type="curve" smooth="yes"/>
      <point x="1063" y="100" type="line" smooth="yes"/>
      <point x="1063" y="110"/>
      <point x="1072" y="117"/>
      <point x="1082" y="117" type="curve" smooth="yes"/>
      <point x="1306" y="117"/>
      <point x="1449" y="281"/>
      <point x="1449" y="449" type="curve" smooth="yes"/>
      <point x="1449" y="655"/>
      <point x="1296" y="753"/>
      <point x="1131" y="753" type="curve" smooth="yes"/>
      <point x="1007" y="753"/>
      <point x="901" y="683"/>
    </contour>
    <contour>
      <point x="1571" y="-275" type="curve" smooth="yes"/>
      <point x="1571" y="-558"/>
      <point x="1324" y="-691"/>
      <point x="1084" y="-691" type="curve" smooth="yes"/>
      <point x="870" y="-691"/>
      <point x="704" y="-536"/>
      <point x="657" y="-412" type="curve" smooth="yes"/>
      <point x="654" y="-403"/>
      <point x="661" y="-392"/>
      <point x="670" y="-388" type="curve" smooth="yes"/>
      <point x="700" y="-378" type="line" smooth="yes"/>
      <point x="708" y="-375"/>
      <point x="719" y="-382"/>
      <point x="724" y="-392" type="curve" smooth="yes"/>
      <point x="775" y="-495"/>
      <point x="900" y="-593"/>
      <point x="1084" y="-593" type="curve" smooth="yes"/>
      <point x="1249" y="-593"/>
      <point x="1454" y="-509"/>
      <point x="1454" y="-275" type="curve" smooth="yes"/>
      <point x="1454" y="-53"/>
      <point x="1257" y="37"/>
      <point x="1085" y="37" type="curve"/>
      <point x="1085" y="117" type="line"/>
      <point x="1412" y="117"/>
      <point x="1571" y="-29"/>
    </contour>
    <contour>
      <point x="529" y="1038" type="curve" smooth="yes"/>
      <point x="519" y="1038"/>
      <point x="510" y="1044"/>
      <point x="510" y="1055" type="curve" smooth="yes"/>
      <point x="510" y="1120" type="line" smooth="yes"/>
      <point x="510" y="1129"/>
      <point x="519" y="1136"/>
      <point x="529" y="1136" type="curve" smooth="yes"/>
      <point x="629" y="1136"/>
      <point x="805" y="1246"/>
      <point x="805" y="1406" type="curve" smooth="yes"/>
      <point x="805" y="1416"/>
      <point x="812" y="1425"/>
      <point x="820" y="1425" type="curve" smooth="yes"/>
      <point x="867" y="1425" type="line" smooth="yes"/>
      <point x="877" y="1425"/>
      <point x="884" y="1416"/>
      <point x="884" y="1406" type="curve" smooth="yes"/>
      <point x="884" y="1224"/>
      <point x="693" y="1038"/>
    </contour>
    <contour>
      <point x="1160" y="1038" type="curve" smooth="yes"/>
      <point x="995" y="1038"/>
      <point x="805" y="1224"/>
      <point x="805" y="1406" type="curve" smooth="yes"/>
      <point x="805" y="1416"/>
      <point x="811" y="1425"/>
      <point x="821" y="1425" type="curve" smooth="yes"/>
      <point x="868" y="1425" type="line" smooth="yes"/>
      <point x="877" y="1425"/>
      <point x="884" y="1416"/>
      <point x="884" y="1406" type="curve" smooth="yes"/>
      <point x="884" y="1246"/>
      <point x="1060" y="1136"/>
      <point x="1160" y="1136" type="curve" smooth="yes"/>
      <point x="1169" y="1136"/>
      <point x="1179" y="1129"/>
      <point x="1179" y="1120" type="curve" smooth="yes"/>
      <point x="1179" y="1055" type="line" smooth="yes"/>
      <point x="1179" y="1044"/>
      <point x="1169" y="1038"/>
    </contour>
  </outline>
</glyph>
<glyph name="uni1983" format="2">
  <advance width="1108"/>
  <unicode hex="1983"/>
  <outline>
    <contour>
      <point x="1024" y="-158" type="curve" smooth="yes"/>
      <point x="1024" y="219"/>
      <point x="814" y="430"/>
      <point x="471" y="430" type="curve" smooth="yes"/>
      <point x="285" y="430"/>
      <point x="116" y="354"/>
      <point x="116" y="201" type="curve" smooth="yes"/>
      <point x="116" y="67"/>
      <point x="285" y="-20"/>
      <point x="467" y="-20" type="curve" smooth="yes"/>
      <point x="790" y="-20"/>
      <point x="1005" y="155"/>
      <point x="1005" y="439" type="curve" smooth="yes"/>
      <point x="1005" y="681"/>
      <point x="850" y="870"/>
      <point x="537" y="870" type="curve" smooth="yes"/>
      <point x="343" y="870"/>
      <point x="197" y="797"/>
      <point x="116" y="659" type="curve" smooth="yes"/>
      <point x="109" y="649"/>
      <point x="112" y="637"/>
      <point x="122" y="629" type="curve" smooth="yes"/>
      <point x="186" y="579" type="line" smooth="yes"/>
      <point x="195" y="571"/>
      <point x="209" y="574"/>
      <point x="214" y="584" type="curve" smooth="yes"/>
      <point x="271" y="684"/>
      <point x="386" y="753"/>
      <point x="537" y="753" type="curve" smooth="yes"/>
      <point x="754" y="753"/>
      <point x="888" y="644"/>
      <point x="888" y="439" type="curve" smooth="yes"/>
      <point x="888" y="213"/>
      <point x="707" y="83"/>
      <point x="467" y="83" type="curve" smooth="yes"/>
      <point x="343" y="83"/>
      <point x="219" y="128"/>
      <point x="219" y="201" type="curve" smooth="yes"/>
      <point x="219" y="283"/>
      <point x="343" y="327"/>
      <point x="471" y="327" type="curve" smooth="yes"/>
      <point x="749" y="327"/>
      <point x="907" y="142"/>
      <point x="907" y="-158" type="curve" smooth="yes"/>
      <point x="907" y="-401"/>
      <point x="767" y="-592"/>
      <point x="536" y="-592" type="curve" smooth="yes"/>
      <point x="358" y="-592"/>
      <point x="252" y="-515"/>
      <point x="186" y="-391" type="curve" smooth="yes"/>
      <point x="182" y="-382"/>
      <point x="170" y="-374"/>
      <point x="163" y="-377" type="curve" smooth="yes"/>
      <point x="133" y="-387" type="line" smooth="yes"/>
      <point x="123" y="-391"/>
      <point x="116" y="-402"/>
      <point x="120" y="-411" type="curve" smooth="yes"/>
      <point x="187" y="-565"/>
      <point x="328" y="-690"/>
      <point x="536" y="-690" type="curve" smooth="yes"/>
      <point x="842" y="-690"/>
      <point x="1024" y="-469"/>
    </contour>
  </outline>
</glyph>
<glyph name="uni1984" format="2">
  <advance width="1622"/>
  <unicode hex="1984"/>
  <outline>
    <component base="uni19A0"/>
    <contour>
      <point x="1347" y="-444" type="curve" smooth="yes"/>
      <point x="1347" y="-287"/>
      <point x="1212" y="-108"/>
      <point x="812" y="-108" type="curve" smooth="yes"/>
      <point x="418" y="-108"/>
      <point x="276" y="-246"/>
      <point x="276" y="-453" type="curve" smooth="yes"/>
      <point x="276" y="-603"/>
      <point x="375" y="-692"/>
      <point x="491" y="-692" type="curve" smooth="yes"/>
      <point x="737" y="-692"/>
      <point x="666" y="-383"/>
      <point x="812" y="-383" type="curve" smooth="yes"/>
      <point x="863" y="-383"/>
      <point x="916" y="-424"/>
      <point x="916" y="-504" type="curve" smooth="yes"/>
      <point x="916" y="-539"/>
      <point x="910" y="-583"/>
      <point x="880" y="-649" type="curve" smooth="yes"/>
      <point x="879" y="-651"/>
      <point x="875" y="-667"/>
      <point x="883" y="-671" type="curve" smooth="yes"/>
      <point x="894" y="-677"/>
      <point x="905" y="-686"/>
      <point x="918" y="-691" type="curve" smooth="yes"/>
      <point x="926" y="-694"/>
      <point x="939" y="-684"/>
      <point x="949" y="-662" type="curve" smooth="yes"/>
      <point x="979" y="-596"/>
      <point x="1000" y="-531"/>
      <point x="1000" y="-475" type="curve" smooth="yes"/>
      <point x="1000" y="-380"/>
      <point x="925" y="-290"/>
      <point x="812" y="-290" type="curve" smooth="yes"/>
      <point x="588" y="-290"/>
      <point x="655" y="-594"/>
      <point x="491" y="-594" type="curve" smooth="yes"/>
      <point x="427" y="-594"/>
      <point x="379" y="-546"/>
      <point x="379" y="-453" type="curve" smooth="yes"/>
      <point x="379" y="-315"/>
      <point x="492" y="-206"/>
      <point x="812" y="-206" type="curve" smooth="yes"/>
      <point x="1109" y="-206"/>
      <point x="1244" y="-318"/>
      <point x="1244" y="-472" type="curve" smooth="yes"/>
      <point x="1244" y="-549"/>
      <point x="1223" y="-608"/>
      <point x="1204" y="-643" type="curve" smooth="yes"/>
      <point x="1196" y="-659"/>
      <point x="1194" y="-665"/>
      <point x="1201" y="-669" type="curve" smooth="yes"/>
      <point x="1209" y="-674"/>
      <point x="1234" y="-688"/>
      <point x="1245" y="-692" type="curve" smooth="yes"/>
      <point x="1256" y="-695"/>
      <point x="1267" y="-681"/>
      <point x="1276" y="-667" type="curve" smooth="yes"/>
      <point x="1320" y="-597"/>
      <point x="1347" y="-526"/>
    </contour>
  </outline>
</glyph>
<glyph name="uni1987" format="2">
  <advance width="1145"/>
  <unicode hex="1987"/>
  <outline>
    <contour>
      <point x="552" y="-690" type="curve" smooth="yes"/>
      <point x="863" y="-690"/>
      <point x="1043" y="-393"/>
      <point x="1043" y="136" type="curve" smooth="yes"/>
      <point x="1043" y="627"/>
      <point x="846" y="870"/>
      <point x="556" y="870" type="curve" smooth="yes"/>
      <point x="262" y="870"/>
      <point x="103" y="618"/>
      <point x="103" y="369" type="curve" smooth="yes"/>
      <point x="103" y="127"/>
      <point x="152" y="-20"/>
      <point x="313" y="-20" type="curve" smooth="yes"/>
      <point x="388" y="-20"/>
      <point x="453" y="28"/>
      <point x="495" y="86" type="curve" smooth="yes"/>
      <point x="532" y="137"/>
      <point x="568" y="182"/>
      <point x="594" y="182" type="curve" smooth="yes"/>
      <point x="625" y="182"/>
      <point x="655" y="161"/>
      <point x="655" y="122" type="curve" smooth="yes"/>
      <point x="655" y="90"/>
      <point x="622" y="70"/>
      <point x="607" y="61" type="curve" smooth="yes"/>
      <point x="601" y="57"/>
      <point x="596" y="52"/>
      <point x="596" y="45" type="curve" smooth="yes"/>
      <point x="596" y="43"/>
      <point x="597" y="41"/>
      <point x="598" y="39" type="curve" smooth="yes"/>
      <point x="642" y="-34" type="line" smooth="yes"/>
      <point x="645" y="-40"/>
      <point x="651" y="-43"/>
      <point x="656" y="-43" type="curve" smooth="yes"/>
      <point x="659" y="-43"/>
      <point x="662" y="-43"/>
      <point x="665" y="-41" type="curve" smooth="yes"/>
      <point x="703" y="-20"/>
      <point x="771" y="39"/>
      <point x="771" y="122" type="curve" smooth="yes"/>
      <point x="771" y="226"/>
      <point x="699" y="299"/>
      <point x="594" y="299" type="curve" smooth="yes"/>
      <point x="533" y="299"/>
      <point x="476" y="245"/>
      <point x="433" y="188" type="curve" smooth="yes"/>
      <point x="394" y="137"/>
      <point x="351" y="97"/>
      <point x="313" y="97" type="curve" smooth="yes"/>
      <point x="231" y="97"/>
      <point x="220" y="202"/>
      <point x="220" y="369" type="curve" smooth="yes"/>
      <point x="220" y="559"/>
      <point x="332" y="753"/>
      <point x="556" y="753" type="curve" smooth="yes"/>
      <point x="785" y="753"/>
      <point x="926" y="535"/>
      <point x="926" y="136" type="curve" smooth="yes"/>
      <point x="926" y="-298"/>
      <point x="800" y="-592"/>
      <point x="552" y="-592" type="curve" smooth="yes"/>
      <point x="359" y="-592"/>
      <point x="252" y="-503"/>
      <point x="210" y="-363" type="curve" smooth="yes"/>
      <point x="208" y="-354"/>
      <point x="198" y="-349"/>
      <point x="190" y="-349" type="curve" smooth="yes"/>
      <point x="189" y="-349"/>
      <point x="188" y="-349"/>
      <point x="187" y="-349" type="curve" smooth="yes"/>
      <point x="157" y="-359" type="line" smooth="yes"/>
      <point x="149" y="-362"/>
      <point x="144" y="-371"/>
      <point x="144" y="-379" type="curve" smooth="yes"/>
      <point x="144" y="-381"/>
      <point x="144" y="-382"/>
      <point x="144" y="-383" type="curve" smooth="yes"/>
      <point x="181" y="-544"/>
      <point x="330" y="-690"/>
    </contour>
  </outline>
</glyph>
<glyph name="uni1988" format="2">
  <advance width="1043"/>
  <unicode hex="1988"/>
  <outline>
    <contour>
      <point x="432" y="463" type="curve"/>
      <point x="432" y="383" type="line"/>
      <point x="343" y="383"/>
      <point x="229" y="340"/>
      <point x="229" y="252" type="curve" smooth="yes"/>
      <point x="229" y="148"/>
      <point x="327" y="97"/>
      <point x="482" y="97" type="curve" smooth="yes"/>
      <point x="689" y="97"/>
      <point x="823" y="250"/>
      <point x="823" y="430" type="curve" smooth="yes"/>
      <point x="823" y="611"/>
      <point x="698" y="753"/>
      <point x="482" y="753" type="curve" smooth="yes"/>
      <point x="337" y="753"/>
      <point x="229" y="712"/>
      <point x="229" y="598" type="curve" smooth="yes"/>
      <point x="229" y="511"/>
      <point x="343" y="461"/>
      <point x="432" y="462" type="curve" smooth="yes"/>
      <point x="441" y="462"/>
      <point x="451" y="455"/>
      <point x="451" y="445" type="curve" smooth="yes"/>
      <point x="451" y="398" type="line" smooth="yes"/>
      <point x="451" y="390"/>
      <point x="441" y="382"/>
      <point x="432" y="382" type="curve" smooth="yes"/>
      <point x="306" y="382"/>
      <point x="112" y="436"/>
      <point x="112" y="608" type="curve" smooth="yes"/>
      <point x="112" y="774"/>
      <point x="262" y="870"/>
      <point x="482" y="870" type="curve" smooth="yes"/>
      <point x="770" y="870"/>
      <point x="940" y="685"/>
      <point x="940" y="425" type="curve" smooth="yes"/>
      <point x="940" y="165"/>
      <point x="752" y="-20"/>
      <point x="482" y="-20" type="curve" smooth="yes"/>
      <point x="252" y="-20"/>
      <point x="112" y="77"/>
      <point x="112" y="243" type="curve" smooth="yes"/>
      <point x="112" y="396"/>
      <point x="307" y="463"/>
    </contour>
  </outline>
</glyph>
<glyph name="uni198A" format="2">
  <advance width="1341"/>
  <unicode hex="198A"/>
  <outline>
    <contour>
      <point x="520" y="-20" type="curve" smooth="yes"/>
      <point x="272" y="-20"/>
      <point x="112" y="63"/>
      <point x="112" y="248" type="curve" smooth="yes"/>
      <point x="112" y="376"/>
      <point x="243" y="473"/>
      <point x="361" y="473" type="curve" smooth="yes"/>
      <point x="379" y="473"/>
      <point x="410" y="473"/>
      <point x="421" y="473" type="curve" smooth="yes"/>
      <point x="442" y="473"/>
      <point x="464" y="462"/>
      <point x="464" y="441" type="curve" smooth="yes"/>
      <point x="464" y="421"/>
      <point x="441" y="404"/>
      <point x="421" y="404" type="curve" smooth="yes"/>
      <point x="295" y="405"/>
      <point x="230" y="345"/>
      <point x="230" y="257" type="curve" smooth="yes"/>
      <point x="230" y="134"/>
      <point x="338" y="97"/>
      <point x="520" y="97" type="curve" smooth="yes"/>
      <point x="844" y="97"/>
      <point x="855" y="437"/>
      <point x="820" y="720" type="curve" smooth="yes"/>
      <point x="756" y="1237"/>
      <point x="789" y="1540"/>
      <point x="1048" y="1540" type="curve" smooth="yes"/>
      <point x="1260" y="1540"/>
      <point x="1309" y="1381"/>
      <point x="1262" y="1147" type="curve" smooth="yes"/>
      <point x="1260" y="1138"/>
      <point x="1256" y="1128"/>
      <point x="1247" y="1128" type="curve" smooth="yes"/>
      <point x="1210" y="1129" type="line" smooth="yes"/>
      <point x="1200" y="1129"/>
      <point x="1193" y="1138"/>
      <point x="1193" y="1147" type="curve" smooth="yes"/>
      <point x="1193" y="1324"/>
      <point x="1178" y="1451"/>
      <point x="1048" y="1451" type="curve" smooth="yes"/>
      <point x="905" y="1451"/>
      <point x="877" y="1191"/>
      <point x="938" y="720" type="curve" smooth="yes"/>
      <point x="985" y="354"/>
      <point x="913" y="-20"/>
    </contour>
    <contour>
      <point x="466" y="402" type="curve" smooth="yes"/>
      <point x="268" y="402"/>
      <point x="112" y="467"/>
      <point x="112" y="636" type="curve" smooth="yes"/>
      <point x="112" y="762"/>
      <point x="209" y="870"/>
      <point x="393" y="870" type="curve" smooth="yes"/>
      <point x="478" y="870"/>
      <point x="532" y="845"/>
      <point x="561" y="824" type="curve" smooth="yes"/>
      <point x="568" y="818"/>
      <point x="573" y="810"/>
      <point x="568" y="801" type="curve" smooth="yes"/>
      <point x="525" y="732" type="line" smooth="yes"/>
      <point x="521" y="725"/>
      <point x="509" y="721"/>
      <point x="499" y="726" type="curve" smooth="yes"/>
      <point x="483" y="734"/>
      <point x="458" y="753"/>
      <point x="393" y="753" type="curve" smooth="yes"/>
      <point x="281" y="753"/>
      <point x="230" y="696"/>
      <point x="230" y="636" type="curve" smooth="yes"/>
      <point x="230" y="554"/>
      <point x="264" y="482"/>
      <point x="466" y="482" type="curve" smooth="yes"/>
      <point x="475" y="482"/>
      <point x="484" y="475"/>
      <point x="484" y="465" type="curve" smooth="yes"/>
      <point x="484" y="418" type="line" smooth="yes"/>
      <point x="484" y="410"/>
      <point x="475" y="402"/>
    </contour>
  </outline>
</glyph>
<glyph name="uni198B" format="2">
  <advance width="1178"/>
  <unicode hex="198B"/>
  <outline>
    <contour>
      <point x="1066" y="449" type="curve" smooth="yes"/>
      <point x="1066" y="716"/>
      <point x="887" y="870"/>
      <point x="594" y="870" type="curve" smooth="yes"/>
      <point x="324" y="870"/>
      <point x="103" y="678"/>
      <point x="103" y="393" type="curve" smooth="yes"/>
      <point x="103" y="209"/>
      <point x="176" y="81"/>
      <point x="313" y="-19" type="curve" smooth="yes"/>
      <point x="316" y="-21"/>
      <point x="320" y="-23"/>
      <point x="324" y="-23" type="curve" smooth="yes"/>
      <point x="331" y="-23"/>
      <point x="338" y="-19"/>
      <point x="343" y="-13" type="curve" smooth="yes"/>
      <point x="394" y="51" type="line" smooth="yes"/>
      <point x="397" y="54"/>
      <point x="398" y="58"/>
      <point x="398" y="61" type="curve" smooth="yes"/>
      <point x="398" y="68"/>
      <point x="394" y="75"/>
      <point x="388" y="79" type="curve" smooth="yes"/>
      <point x="288" y="155"/>
      <point x="220" y="252"/>
      <point x="220" y="393" type="curve" smooth="yes"/>
      <point x="220" y="582"/>
      <point x="361" y="753"/>
      <point x="594" y="753" type="curve" smooth="yes"/>
      <point x="829" y="753"/>
      <point x="949" y="633"/>
      <point x="949" y="449" type="curve" smooth="yes"/>
      <point x="949" y="252"/>
      <point x="834" y="126"/>
      <point x="694" y="126" type="curve" smooth="yes"/>
      <point x="684" y="126"/>
      <point x="675" y="120"/>
      <point x="675" y="109" type="curve" smooth="yes"/>
      <point x="675" y="63" type="line" smooth="yes"/>
      <point x="675" y="54"/>
      <point x="684" y="47"/>
      <point x="694" y="47" type="curve" smooth="yes"/>
      <point x="942" y="47"/>
      <point x="1066" y="269"/>
    </contour>
    <contour>
      <point x="1085" y="-265" type="curve" smooth="yes"/>
      <point x="1085" y="27"/>
      <point x="873" y="126"/>
      <point x="696" y="126" type="curve"/>
      <point x="696" y="47" type="line"/>
      <point x="755" y="47"/>
      <point x="968" y="-6"/>
      <point x="968" y="-265" type="curve" smooth="yes"/>
      <point x="968" y="-509"/>
      <point x="762" y="-592"/>
      <point x="597" y="-592" type="curve" smooth="yes"/>
      <point x="413" y="-592"/>
      <point x="288" y="-494"/>
      <point x="237" y="-391" type="curve" smooth="yes"/>
      <point x="232" y="-381"/>
      <point x="221" y="-374"/>
      <point x="213" y="-377" type="curve" smooth="yes"/>
      <point x="183" y="-387" type="line" smooth="yes"/>
      <point x="174" y="-390"/>
      <point x="166" y="-402"/>
      <point x="170" y="-411" type="curve" smooth="yes"/>
      <point x="217" y="-535"/>
      <point x="383" y="-690"/>
      <point x="597" y="-690" type="curve" smooth="yes"/>
      <point x="837" y="-690"/>
      <point x="1085" y="-558"/>
    </contour>
  </outline>
</glyph>
<glyph name="uni198D" format="2">
  <advance width="1781"/>
  <unicode hex="198D"/>
  <outline>
    <contour>
      <point x="528" y="-20" type="curve" smooth="yes"/>
      <point x="722" y="-20"/>
      <point x="872" y="79"/>
      <point x="911" y="223" type="curve" smooth="yes"/>
      <point x="920" y="257"/>
      <point x="930" y="309"/>
      <point x="930" y="355" type="curve" smooth="yes"/>
      <point x="930" y="365"/>
      <point x="924" y="374"/>
      <point x="913" y="374" type="curve" smooth="yes"/>
      <point x="867" y="374" type="line" smooth="yes"/>
      <point x="858" y="374"/>
      <point x="851" y="365"/>
      <point x="851" y="355" type="curve" smooth="yes"/>
      <point x="851" y="195"/>
      <point x="712" y="97"/>
      <point x="528" y="97" type="curve" smooth="yes"/>
      <point x="345" y="97"/>
      <point x="220" y="234"/>
      <point x="220" y="421" type="curve" smooth="yes"/>
      <point x="220" y="602"/>
      <point x="313" y="753"/>
      <point x="463" y="753" type="curve" smooth="yes"/>
      <point x="475" y="753"/>
      <point x="498" y="749"/>
      <point x="506" y="749" type="curve" smooth="yes"/>
      <point x="513" y="749"/>
      <point x="518" y="750"/>
      <point x="521" y="755" type="curve" smooth="yes"/>
      <point x="564" y="829" type="line" smooth="yes"/>
      <point x="566" y="832"/>
      <point x="566" y="835"/>
      <point x="566" y="838" type="curve" smooth="yes"/>
      <point x="566" y="844"/>
      <point x="563" y="850"/>
      <point x="556" y="853" type="curve" smooth="yes"/>
      <point x="527" y="865"/>
      <point x="493" y="870"/>
      <point x="463" y="870" type="curve" smooth="yes"/>
      <point x="234" y="870"/>
      <point x="103" y="666"/>
      <point x="103" y="421" type="curve" smooth="yes"/>
      <point x="103" y="176"/>
      <point x="251" y="-20"/>
    </contour>
    <contour>
      <point x="1253" y="-20" type="curve" smooth="yes"/>
      <point x="1531" y="-20"/>
      <point x="1678" y="176"/>
      <point x="1678" y="421" type="curve" smooth="yes"/>
      <point x="1678" y="675"/>
      <point x="1547" y="870"/>
      <point x="1318" y="870" type="curve" smooth="yes"/>
      <point x="1288" y="870"/>
      <point x="1254" y="865"/>
      <point x="1225" y="853" type="curve" smooth="yes"/>
      <point x="1219" y="850"/>
      <point x="1215" y="844"/>
      <point x="1215" y="837" type="curve" smooth="yes"/>
      <point x="1215" y="835"/>
      <point x="1216" y="832"/>
      <point x="1217" y="829" type="curve" smooth="yes"/>
      <point x="1260" y="755" type="line" smooth="yes"/>
      <point x="1263" y="750"/>
      <point x="1268" y="749"/>
      <point x="1275" y="749" type="curve" smooth="yes"/>
      <point x="1283" y="749"/>
      <point x="1306" y="753"/>
      <point x="1318" y="753" type="curve" smooth="yes"/>
      <point x="1468" y="753"/>
      <point x="1561" y="598"/>
      <point x="1561" y="421" type="curve" smooth="yes"/>
      <point x="1561" y="234"/>
      <point x="1436" y="97"/>
      <point x="1253" y="97" type="curve" smooth="yes"/>
      <point x="1069" y="97"/>
      <point x="930" y="195"/>
      <point x="930" y="355" type="curve" smooth="yes"/>
      <point x="930" y="365"/>
      <point x="923" y="374"/>
      <point x="914" y="374" type="curve" smooth="yes"/>
      <point x="868" y="374" type="line" smooth="yes"/>
      <point x="857" y="374"/>
      <point x="851" y="365"/>
      <point x="851" y="355" type="curve" smooth="yes"/>
      <point x="851" y="309"/>
      <point x="861" y="257"/>
      <point x="870" y="223" type="curve" smooth="yes"/>
      <point x="909" y="79"/>
      <point x="1059" y="-20"/>
    </contour>
  </outline>
</glyph>
<glyph name="uni198E" format="2">
  <advance width="1731"/>
  <unicode hex="198E"/>
  <outline>
    <contour>
      <point x="519" y="870" type="curve" smooth="yes"/>
      <point x="251" y="870"/>
      <point x="103" y="675"/>
      <point x="103" y="421" type="curve" smooth="yes"/>
      <point x="103" y="176"/>
      <point x="241" y="-20"/>
      <point x="519" y="-20" type="curve" smooth="yes"/>
      <point x="787" y="-20"/>
      <point x="930" y="175"/>
      <point x="930" y="421" type="curve" smooth="yes"/>
      <point x="930" y="685"/>
      <point x="778" y="870"/>
    </contour>
    <contour>
      <point x="519" y="753" type="curve" smooth="yes"/>
      <point x="694" y="753"/>
      <point x="813" y="609"/>
      <point x="813" y="421" type="curve" smooth="yes"/>
      <point x="813" y="243"/>
      <point x="703" y="97"/>
      <point x="519" y="97" type="curve" smooth="yes"/>
      <point x="336" y="97"/>
      <point x="220" y="234"/>
      <point x="220" y="421" type="curve" smooth="yes"/>
      <point x="220" y="609"/>
      <point x="326" y="753"/>
    </contour>
    <contour>
      <point x="1230" y="-20" type="curve" smooth="yes"/>
      <point x="1506" y="-20"/>
      <point x="1628" y="194"/>
      <point x="1628" y="421" type="curve" smooth="yes"/>
      <point x="1628" y="694"/>
      <point x="1471" y="870"/>
      <point x="1212" y="870" type="curve" smooth="yes"/>
      <point x="1028" y="870"/>
      <point x="872" y="770"/>
      <point x="796" y="669" type="curve"/>
      <point x="861" y="567" type="line"/>
      <point x="917" y="655"/>
      <point x="1035" y="753"/>
      <point x="1212" y="753" type="curve" smooth="yes"/>
      <point x="1376" y="753"/>
      <point x="1511" y="626"/>
      <point x="1511" y="421" type="curve" smooth="yes"/>
      <point x="1511" y="252"/>
      <point x="1427" y="97"/>
      <point x="1230" y="97" type="curve" smooth="yes"/>
      <point x="1193" y="97"/>
      <point x="1147" y="107"/>
      <point x="1123" y="121" type="curve" smooth="yes"/>
      <point x="1121" y="122"/>
      <point x="1118" y="123"/>
      <point x="1115" y="123" type="curve" smooth="yes"/>
      <point x="1108" y="123"/>
      <point x="1101" y="120"/>
      <point x="1098" y="115" type="curve" smooth="yes"/>
      <point x="1055" y="41" type="line" smooth="yes"/>
      <point x="1053" y="39"/>
      <point x="1053" y="36"/>
      <point x="1053" y="33" type="curve" smooth="yes"/>
      <point x="1053" y="27"/>
      <point x="1056" y="21"/>
      <point x="1062" y="18" type="curve" smooth="yes"/>
      <point x="1110" y="-9"/>
      <point x="1177" y="-20"/>
    </contour>
  </outline>
</glyph>
<glyph name="uni198F" format="2">
  <advance width="1099"/>
  <unicode hex="198F"/>
  <outline>
    <contour>
      <point x="383" y="-20" type="curve" smooth="yes"/>
      <point x="468" y="-20"/>
      <point x="541" y="1"/>
      <point x="570" y="22" type="curve" smooth="yes"/>
      <point x="576" y="26"/>
      <point x="580" y="32"/>
      <point x="580" y="38" type="curve" smooth="yes"/>
      <point x="580" y="40"/>
      <point x="579" y="43"/>
      <point x="578" y="45" type="curve" smooth="yes"/>
      <point x="535" y="114" type="line" smooth="yes"/>
      <point x="532" y="119"/>
      <point x="525" y="123"/>
      <point x="518" y="123" type="curve" smooth="yes"/>
      <point x="515" y="123"/>
      <point x="512" y="122"/>
      <point x="510" y="121" type="curve" smooth="yes"/>
      <point x="494" y="112"/>
      <point x="449" y="97"/>
      <point x="383" y="97" type="curve" smooth="yes"/>
      <point x="291" y="97"/>
      <point x="229" y="137"/>
      <point x="229" y="215" type="curve" smooth="yes"/>
      <point x="229" y="296"/>
      <point x="309" y="369"/>
      <point x="455" y="369" type="curve" smooth="yes"/>
      <point x="465" y="369"/>
      <point x="474" y="376"/>
      <point x="474" y="386" type="curve" smooth="yes"/>
      <point x="474" y="433" type="line" smooth="yes"/>
      <point x="474" y="441"/>
      <point x="465" y="449"/>
      <point x="455" y="449" type="curve" smooth="yes"/>
      <point x="305" y="449"/>
      <point x="112" y="384"/>
      <point x="112" y="215" type="curve" smooth="yes"/>
      <point x="112" y="79"/>
      <point x="227" y="-20"/>
    </contour>
    <contour>
      <point x="510" y="-690" type="curve" smooth="yes"/>
      <point x="830" y="-690"/>
      <point x="996" y="-406"/>
      <point x="996" y="113" type="curve" smooth="yes"/>
      <point x="996" y="680"/>
      <point x="846" y="870"/>
      <point x="510" y="870" type="curve" smooth="yes"/>
      <point x="299" y="870"/>
      <point x="112" y="774"/>
      <point x="112" y="589" type="curve" smooth="yes"/>
      <point x="112" y="424"/>
      <point x="321" y="369"/>
      <point x="455" y="369" type="curve" smooth="yes"/>
      <point x="465" y="369"/>
      <point x="474" y="376"/>
      <point x="474" y="386" type="curve" smooth="yes"/>
      <point x="474" y="433" type="line" smooth="yes"/>
      <point x="474" y="441"/>
      <point x="465" y="449"/>
      <point x="455" y="449" type="curve" smooth="yes"/>
      <point x="319" y="449"/>
      <point x="229" y="520"/>
      <point x="229" y="589" type="curve" smooth="yes"/>
      <point x="229" y="703"/>
      <point x="365" y="753"/>
      <point x="510" y="753" type="curve" smooth="yes"/>
      <point x="767" y="753"/>
      <point x="879" y="559"/>
      <point x="879" y="113" type="curve" smooth="yes"/>
      <point x="879" y="-311"/>
      <point x="768" y="-592"/>
      <point x="510" y="-592" type="curve" smooth="yes"/>
      <point x="345" y="-592"/>
      <point x="243" y="-531"/>
      <point x="201" y="-466" type="curve" smooth="yes"/>
      <point x="194" y="-455"/>
      <point x="190" y="-450"/>
      <point x="182" y="-450" type="curve" smooth="yes"/>
      <point x="180" y="-450"/>
      <point x="177" y="-451"/>
      <point x="174" y="-452" type="curve" smooth="yes"/>
      <point x="148" y="-462" type="line" smooth="yes"/>
      <point x="140" y="-465"/>
      <point x="133" y="-473"/>
      <point x="133" y="-481" type="curve" smooth="yes"/>
      <point x="133" y="-482"/>
      <point x="134" y="-484"/>
      <point x="135" y="-486" type="curve" smooth="yes"/>
      <point x="181" y="-581"/>
      <point x="307" y="-690"/>
    </contour>
  </outline>
</glyph>
<glyph name="uni1991" format="2">
  <advance width="1066"/>
  <unicode hex="1991"/>
  <outline>
    <contour>
      <point x="940" y="645" type="curve" smooth="yes"/>
      <point x="940" y="790"/>
      <point x="825" y="870"/>
      <point x="678" y="870" type="curve" smooth="yes"/>
      <point x="593" y="870"/>
      <point x="520" y="849"/>
      <point x="491" y="827" type="curve" smooth="yes"/>
      <point x="485" y="823"/>
      <point x="481" y="818"/>
      <point x="481" y="812" type="curve" smooth="yes"/>
      <point x="481" y="809"/>
      <point x="482" y="807"/>
      <point x="483" y="805" type="curve" smooth="yes"/>
      <point x="526" y="736" type="line" smooth="yes"/>
      <point x="530" y="730"/>
      <point x="536" y="727"/>
      <point x="543" y="727" type="curve" smooth="yes"/>
      <point x="546" y="727"/>
      <point x="549" y="728"/>
      <point x="552" y="729" type="curve" smooth="yes"/>
      <point x="568" y="738"/>
      <point x="612" y="753"/>
      <point x="678" y="753" type="curve" smooth="yes"/>
      <point x="752" y="753"/>
      <point x="823" y="705"/>
      <point x="823" y="636" type="curve" smooth="yes"/>
      <point x="823" y="554"/>
      <point x="752" y="482"/>
      <point x="606" y="482" type="curve" smooth="yes"/>
      <point x="597" y="482"/>
      <point x="587" y="475"/>
      <point x="587" y="465" type="curve" smooth="yes"/>
      <point x="587" y="418" type="line" smooth="yes"/>
      <point x="587" y="410"/>
      <point x="597" y="402"/>
      <point x="606" y="402" type="curve" smooth="yes"/>
      <point x="756" y="402"/>
      <point x="940" y="476"/>
    </contour>
    <contour>
      <point x="954" y="252" type="curve" smooth="yes"/>
      <point x="954" y="426"/>
      <point x="741" y="482"/>
      <point x="606" y="482" type="curve" smooth="yes"/>
      <point x="597" y="482"/>
      <point x="587" y="475"/>
      <point x="587" y="465" type="curve" smooth="yes"/>
      <point x="587" y="418" type="line" smooth="yes"/>
      <point x="587" y="410"/>
      <point x="597" y="402"/>
      <point x="606" y="402" type="curve" smooth="yes"/>
      <point x="742" y="402"/>
      <point x="837" y="350"/>
      <point x="837" y="262" type="curve" smooth="yes"/>
      <point x="837" y="143"/>
      <point x="725" y="97"/>
      <point x="570" y="97" type="curve" smooth="yes"/>
      <point x="357" y="97"/>
      <point x="238" y="266"/>
      <point x="238" y="737" type="curve" smooth="yes"/>
      <point x="238" y="1224"/>
      <point x="317" y="1451"/>
      <point x="556" y="1451" type="curve" smooth="yes"/>
      <point x="730" y="1451"/>
      <point x="799" y="1362"/>
      <point x="842" y="1269" type="curve" smooth="yes"/>
      <point x="845" y="1261"/>
      <point x="851" y="1255"/>
      <point x="859" y="1255" type="curve" smooth="yes"/>
      <point x="866" y="1255"/>
      <point x="892" y="1264"/>
      <point x="902" y="1269" type="curve" smooth="yes"/>
      <point x="907" y="1271"/>
      <point x="909" y="1275"/>
      <point x="909" y="1281" type="curve" smooth="yes"/>
      <point x="909" y="1284"/>
      <point x="908" y="1288"/>
      <point x="905" y="1299" type="curve" smooth="yes"/>
      <point x="870" y="1413"/>
      <point x="769" y="1540"/>
      <point x="556" y="1540" type="curve" smooth="yes"/>
      <point x="254" y="1540"/>
      <point x="122" y="1319"/>
      <point x="122" y="737" type="curve" smooth="yes"/>
      <point x="122" y="186"/>
      <point x="275" y="-20"/>
      <point x="570" y="-20" type="curve" smooth="yes"/>
      <point x="809" y="-20"/>
      <point x="954" y="70"/>
    </contour>
  </outline>
</glyph>
<glyph name="uni1992" format="2">
  <advance width="1206"/>
  <unicode hex="1992"/>
  <outline>
    <contour>
      <point x="567" y="310" type="curve"/>
      <point x="646" y="310" type="line"/>
      <point x="646" y="222"/>
      <point x="698" y="97"/>
      <point x="795" y="97" type="curve" smooth="yes"/>
      <point x="918" y="97"/>
      <point x="986" y="196"/>
      <point x="986" y="360" type="curve" smooth="yes"/>
      <point x="986" y="596"/>
      <point x="826" y="753"/>
      <point x="598" y="753" type="curve" smooth="yes"/>
      <point x="371" y="753"/>
      <point x="220" y="596"/>
      <point x="220" y="360" type="curve" smooth="yes"/>
      <point x="220" y="196"/>
      <point x="288" y="97"/>
      <point x="411" y="97" type="curve" smooth="yes"/>
      <point x="509" y="97"/>
      <point x="568" y="222"/>
      <point x="568" y="310" type="curve" smooth="yes"/>
      <point x="568" y="320"/>
      <point x="574" y="329"/>
      <point x="584" y="329" type="curve" smooth="yes"/>
      <point x="631" y="329" type="line" smooth="yes"/>
      <point x="640" y="329"/>
      <point x="647" y="320"/>
      <point x="647" y="310" type="curve" smooth="yes"/>
      <point x="647" y="184"/>
      <point x="602" y="-20"/>
      <point x="402" y="-20" type="curve" smooth="yes"/>
      <point x="217" y="-20"/>
      <point x="103" y="131"/>
      <point x="103" y="360" type="curve" smooth="yes"/>
      <point x="103" y="657"/>
      <point x="296" y="870"/>
      <point x="603" y="870" type="curve" smooth="yes"/>
      <point x="910" y="870"/>
      <point x="1103" y="658"/>
      <point x="1103" y="360" type="curve" smooth="yes"/>
      <point x="1103" y="131"/>
      <point x="989" y="-20"/>
      <point x="804" y="-20" type="curve" smooth="yes"/>
      <point x="623" y="-20"/>
      <point x="567" y="185"/>
    </contour>
  </outline>
</glyph>
<glyph name="uni1993" format="2">
  <advance width="1113"/>
  <unicode hex="1993"/>
  <outline>
    <contour>
      <point x="542" y="-690" type="curve" smooth="yes"/>
      <point x="829" y="-690"/>
      <point x="1010" y="-507"/>
      <point x="1010" y="-223" type="curve" smooth="yes"/>
      <point x="1010" y="69"/>
      <point x="870" y="243"/>
      <point x="561" y="243" type="curve" smooth="yes"/>
      <point x="464" y="243"/>
      <point x="341" y="194"/>
      <point x="261" y="140" type="curve" smooth="yes"/>
      <point x="252" y="135"/>
      <point x="243" y="147"/>
      <point x="243" y="157" type="curve" smooth="yes"/>
      <point x="243" y="285" type="line" smooth="yes"/>
      <point x="243" y="614"/>
      <point x="359" y="753"/>
      <point x="561" y="753" type="curve" smooth="yes"/>
      <point x="757" y="753"/>
      <point x="852" y="633"/>
      <point x="865" y="482" type="curve" smooth="yes"/>
      <point x="866" y="469"/>
      <point x="870" y="463"/>
      <point x="882" y="463" type="curve" smooth="yes"/>
      <point x="969" y="463" type="line" smooth="yes"/>
      <point x="978" y="463"/>
      <point x="983" y="470"/>
      <point x="982" y="482" type="curve" smooth="yes"/>
      <point x="969" y="694"/>
      <point x="849" y="870"/>
      <point x="561" y="870" type="curve" smooth="yes"/>
      <point x="305" y="870"/>
      <point x="126" y="703"/>
      <point x="126" y="295" type="curve" smooth="yes"/>
      <point x="126" y="-18" type="line"/>
      <point x="127" y="-28"/>
      <point x="143" y="-38"/>
      <point x="156" y="-34" type="curve"/>
      <point x="257" y="41"/>
      <point x="405" y="126"/>
      <point x="552" y="126" type="curve" smooth="yes"/>
      <point x="782" y="126"/>
      <point x="893" y="-7"/>
      <point x="893" y="-223" type="curve" smooth="yes"/>
      <point x="893" y="-438"/>
      <point x="764" y="-592"/>
      <point x="542" y="-592" type="curve" smooth="yes"/>
      <point x="378" y="-592"/>
      <point x="225" y="-503"/>
      <point x="193" y="-325" type="curve" smooth="yes"/>
      <point x="191" y="-315"/>
      <point x="177" y="-308"/>
      <point x="169" y="-311" type="curve" smooth="yes"/>
      <point x="139" y="-322" type="line" smooth="yes"/>
      <point x="130" y="-325"/>
      <point x="125" y="-336"/>
      <point x="126" y="-346" type="curve" smooth="yes"/>
      <point x="154" y="-544"/>
      <point x="330" y="-690"/>
    </contour>
  </outline>
</glyph>
<glyph name="uni1994" format="2">
  <advance width="1362"/>
  <unicode hex="1994"/>
  <outline>
    <contour>
      <point x="538" y="-20" type="curve" smooth="yes"/>
      <point x="864" y="-20"/>
      <point x="969" y="237"/>
      <point x="969" y="534" type="curve" smooth="yes"/>
      <point x="969" y="595"/>
      <point x="965" y="657"/>
      <point x="957" y="719" type="curve" smooth="yes"/>
      <point x="937" y="873"/>
      <point x="927" y="1005"/>
      <point x="927" y="1112" type="curve" smooth="yes"/>
      <point x="927" y="1333"/>
      <point x="971" y="1451"/>
      <point x="1067" y="1451" type="curve" smooth="yes"/>
      <point x="1197" y="1451"/>
      <point x="1212" y="1323"/>
      <point x="1212" y="1146" type="curve" smooth="yes"/>
      <point x="1212" y="1137"/>
      <point x="1218" y="1128"/>
      <point x="1229" y="1128" type="curve" smooth="yes"/>
      <point x="1266" y="1127" type="line" smooth="yes"/>
      <point x="1274" y="1127"/>
      <point x="1279" y="1137"/>
      <point x="1281" y="1146" type="curve" smooth="yes"/>
      <point x="1292" y="1199"/>
      <point x="1297" y="1248"/>
      <point x="1297" y="1293" type="curve" smooth="yes"/>
      <point x="1297" y="1444"/>
      <point x="1231" y="1540"/>
      <point x="1067" y="1540" type="curve" smooth="yes"/>
      <point x="880" y="1540"/>
      <point x="811" y="1382"/>
      <point x="811" y="1099" type="curve" smooth="yes"/>
      <point x="811" y="990"/>
      <point x="821" y="863"/>
      <point x="839" y="719" type="curve" smooth="yes"/>
      <point x="847" y="655"/>
      <point x="852" y="588"/>
      <point x="852" y="522" type="curve" smooth="yes"/>
      <point x="852" y="300"/>
      <point x="788" y="97"/>
      <point x="538" y="97" type="curve" smooth="yes"/>
      <point x="330" y="97"/>
      <point x="220" y="265"/>
      <point x="220" y="449" type="curve" smooth="yes"/>
      <point x="220" y="611"/>
      <point x="281" y="722"/>
      <point x="407" y="767" type="curve" smooth="yes"/>
      <point x="413" y="769"/>
      <point x="417" y="777"/>
      <point x="417" y="783" type="curve" smooth="yes"/>
      <point x="417" y="786"/>
      <point x="416" y="789"/>
      <point x="415" y="791" type="curve" smooth="yes"/>
      <point x="370" y="864" type="line" smooth="yes"/>
      <point x="367" y="869"/>
      <point x="362" y="872"/>
      <point x="355" y="872" type="curve" smooth="yes"/>
      <point x="352" y="872"/>
      <point x="349" y="871"/>
      <point x="346" y="870" type="curve" smooth="yes"/>
      <point x="179" y="794"/>
      <point x="103" y="646"/>
      <point x="103" y="449" type="curve" smooth="yes"/>
      <point x="103" y="172"/>
      <point x="291" y="-20"/>
    </contour>
  </outline>
</glyph>
